G04 Layer: BottomPasteMaskLayer*
G04 EasyEDA v6.4.20.6, 2021-08-20T18:50:31+10:00*
G04 da2b955f28294749bdafdb94d24a6b32,8629367194b24dd88a5c18b2f13758b0,10*
G04 Gerber Generator version 0.2*
G04 Scale: 100 percent, Rotated: No, Reflected: No *
G04 Dimensions in millimeters *
G04 leading zeros omitted , absolute positions ,4 integer and 5 decimal *
%FSLAX45Y45*%
%MOMM*%

%ADD17C,0.7000*%
%ADD18C,0.6000*%
%ADD19C,2.0000*%

%LPD*%
D19*
X-12857256Y-5765800D02*
G01*
X-13007256Y-5765800D01*
D17*
X-12622227Y-5765800D02*
G01*
X-12762227Y-5765800D01*
X-12622321Y-5915913D02*
G01*
X-12742321Y-5915913D01*
X-12622321Y-5615686D02*
G01*
X-12742321Y-5615686D01*
D18*
X-11439690Y-5613400D02*
G01*
X-11339690Y-5613400D01*
X-11439690Y-5740400D02*
G01*
X-11339690Y-5740400D01*
X-11439690Y-5867400D02*
G01*
X-11339690Y-5867400D01*
X-11439690Y-5994400D02*
G01*
X-11339690Y-5994400D01*
X-12039688Y-5613400D02*
G01*
X-11939689Y-5613400D01*
X-12039688Y-5740400D02*
G01*
X-11939689Y-5740400D01*
X-12039688Y-5867400D02*
G01*
X-11939689Y-5867400D01*
X-12039688Y-5994400D02*
G01*
X-11939689Y-5994400D01*
G36*
X-4502792Y-3952100D02*
G01*
X-4502792Y-4052100D01*
X-4347791Y-4052100D01*
X-4347791Y-3952100D01*
G37*
G36*
X-4502792Y-4152099D02*
G01*
X-4502792Y-4252099D01*
X-4347791Y-4252099D01*
X-4347791Y-4152099D01*
G37*
G36*
X-4772393Y-3962102D02*
G01*
X-4772393Y-4062102D01*
X-4662390Y-4062102D01*
X-4662390Y-3962102D01*
G37*
G36*
X-4772393Y-4142112D02*
G01*
X-4772393Y-4242112D01*
X-4662390Y-4242112D01*
X-4662390Y-4142112D01*
G37*
G36*
X-5097045Y-4431200D02*
G01*
X-5097045Y-4611199D01*
X-4897046Y-4611199D01*
X-4897046Y-4431200D01*
G37*
G36*
X-5097045Y-4177200D02*
G01*
X-5097045Y-4357199D01*
X-4897046Y-4357199D01*
X-4897046Y-4177200D01*
G37*
G36*
X-5097045Y-3923200D02*
G01*
X-5097045Y-4103199D01*
X-4897046Y-4103199D01*
X-4897046Y-3923200D01*
G37*
G36*
X-5097045Y-3669200D02*
G01*
X-5097045Y-3849199D01*
X-4897046Y-3849199D01*
X-4897046Y-3669200D01*
G37*
G36*
X-5887138Y-3849199D02*
G01*
X-5887138Y-3669200D01*
X-6087137Y-3669200D01*
X-6087137Y-3849199D01*
G37*
G36*
X-5887138Y-4103199D02*
G01*
X-5887138Y-3923200D01*
X-6087137Y-3923200D01*
X-6087137Y-4103199D01*
G37*
G36*
X-5887138Y-4357199D02*
G01*
X-5887138Y-4177200D01*
X-6087137Y-4177200D01*
X-6087137Y-4357199D01*
G37*
G36*
X-5887138Y-4611199D02*
G01*
X-5887138Y-4431200D01*
X-6087137Y-4431200D01*
X-6087137Y-4611199D01*
G37*
G36*
X-2092591Y-2177801D02*
G01*
X-1972591Y-2177801D01*
X-1972591Y-1987798D01*
X-2092591Y-1987798D01*
G37*
G36*
X-1772577Y-2177801D02*
G01*
X-1652577Y-2177801D01*
X-1652577Y-1987798D01*
X-1772577Y-1987798D01*
G37*
G36*
X-2305977Y-3828801D02*
G01*
X-2185977Y-3828801D01*
X-2185977Y-3638798D01*
X-2305977Y-3638798D01*
G37*
G36*
X-2625991Y-3828801D02*
G01*
X-2505991Y-3828801D01*
X-2505991Y-3638798D01*
X-2625991Y-3638798D01*
G37*
G36*
X-2194191Y-5467101D02*
G01*
X-2074191Y-5467101D01*
X-2074191Y-5277098D01*
X-2194191Y-5277098D01*
G37*
G36*
X-1874177Y-5467101D02*
G01*
X-1754177Y-5467101D01*
X-1754177Y-5277098D01*
X-1874177Y-5277098D01*
G37*
G36*
X-10261191Y-2074199D02*
G01*
X-10261191Y-1954199D01*
X-10451193Y-1954199D01*
X-10451193Y-2074199D01*
G37*
G36*
X-10261191Y-1754184D02*
G01*
X-10261191Y-1634185D01*
X-10451193Y-1634185D01*
X-10451193Y-1754184D01*
G37*
G36*
X-8038691Y-905799D02*
G01*
X-8038691Y-785799D01*
X-8228693Y-785799D01*
X-8228693Y-905799D01*
G37*
G36*
X-8038691Y-585784D02*
G01*
X-8038691Y-465785D01*
X-8228693Y-465785D01*
X-8228693Y-585784D01*
G37*
G36*
X-9486491Y-905799D02*
G01*
X-9486491Y-785799D01*
X-9676493Y-785799D01*
X-9676493Y-905799D01*
G37*
G36*
X-9486491Y-585784D02*
G01*
X-9486491Y-465785D01*
X-9676493Y-465785D01*
X-9676493Y-585784D01*
G37*
G36*
X-10959691Y-905799D02*
G01*
X-10959691Y-785799D01*
X-11149693Y-785799D01*
X-11149693Y-905799D01*
G37*
G36*
X-10959691Y-585784D02*
G01*
X-10959691Y-465785D01*
X-11149693Y-465785D01*
X-11149693Y-585784D01*
G37*
G36*
X-11088590Y-5977092D02*
G01*
X-11088590Y-5877092D01*
X-11198593Y-5877092D01*
X-11198593Y-5977092D01*
G37*
G36*
X-11088590Y-6137092D02*
G01*
X-11088590Y-6037092D01*
X-11198593Y-6037092D01*
X-11198593Y-6137092D01*
G37*
G36*
X-11088590Y-5608792D02*
G01*
X-11088590Y-5508792D01*
X-11198593Y-5508792D01*
X-11198593Y-5608792D01*
G37*
G36*
X-11088590Y-5768792D02*
G01*
X-11088590Y-5668792D01*
X-11198593Y-5668792D01*
X-11198593Y-5768792D01*
G37*
G36*
X-12585192Y-4977000D02*
G01*
X-12585192Y-5097000D01*
X-12445192Y-5097000D01*
X-12445192Y-4977000D01*
G37*
G36*
X-12585192Y-5316999D02*
G01*
X-12585192Y-5436999D01*
X-12445192Y-5436999D01*
X-12445192Y-5316999D01*
G37*
G36*
X-12287392Y-6046500D02*
G01*
X-12187392Y-6046500D01*
X-12187392Y-5891499D01*
X-12287392Y-5891499D01*
G37*
G36*
X-12487391Y-6046500D02*
G01*
X-12387392Y-6046500D01*
X-12387392Y-5891499D01*
X-12487391Y-5891499D01*
G37*
G36*
X-12287392Y-5767100D02*
G01*
X-12187392Y-5767100D01*
X-12187392Y-5612099D01*
X-12287392Y-5612099D01*
G37*
G36*
X-12487391Y-5767100D02*
G01*
X-12387392Y-5767100D01*
X-12387392Y-5612099D01*
X-12487391Y-5612099D01*
G37*
M02*
