G04 Layer: TopSolderMaskLayer*
G04 EasyEDA v6.4.20.6, 2021-08-20T18:50:31+10:00*
G04 da2b955f28294749bdafdb94d24a6b32,8629367194b24dd88a5c18b2f13758b0,10*
G04 Gerber Generator version 0.2*
G04 Scale: 100 percent, Rotated: No, Reflected: No *
G04 Dimensions in millimeters *
G04 leading zeros omitted , absolute positions ,4 integer and 5 decimal *
%FSLAX45Y45*%
%MOMM*%

%ADD64C,2.2032*%
%ADD65C,0.8032*%
%ADD66C,0.9032*%
%ADD67C,0.6532*%
%ADD68C,1.6032*%
%ADD69C,7.2032*%
%ADD70C,1.5032*%
%ADD72C,2.0032*%
%ADD74C,3.1032*%
%ADD78R,1.3032X1.2032*%
%ADD92C,1.7780*%
%ADD95C,2.4032*%

%LPD*%
D64*
X-3726789Y-2018901D02*
G01*
X-3726789Y-1968901D01*
X-3472789Y-2018901D02*
G01*
X-3472789Y-1968901D01*
X-3726789Y-2934101D02*
G01*
X-3726789Y-2984101D01*
X-3980789Y-2934101D02*
G01*
X-3980789Y-2984101D01*
D65*
X-7432822Y-4890515D02*
G01*
X-7552822Y-4890515D01*
X-7432822Y-4763515D02*
G01*
X-7552822Y-4763515D01*
X-7432822Y-4636515D02*
G01*
X-7552822Y-4636515D01*
X-7432822Y-4509515D02*
G01*
X-7552822Y-4509515D01*
X-8027182Y-4890515D02*
G01*
X-8147182Y-4890515D01*
X-8027182Y-4763515D02*
G01*
X-8147182Y-4763515D01*
X-8027182Y-4636515D02*
G01*
X-8147182Y-4636515D01*
X-8027182Y-4509515D02*
G01*
X-8147182Y-4509515D01*
D64*
X-5886658Y-5118100D02*
G01*
X-5966658Y-5118100D01*
D66*
X-5581601Y-5118100D02*
G01*
X-5721601Y-5118100D01*
X-5581695Y-4967986D02*
G01*
X-5701695Y-4967986D01*
X-5581695Y-5268213D02*
G01*
X-5701695Y-5268213D01*
D67*
X-9657689Y-4746950D02*
G01*
X-9657689Y-4866949D01*
X-9577679Y-4746950D02*
G01*
X-9577679Y-4866949D01*
X-9497669Y-4746950D02*
G01*
X-9497669Y-4866949D01*
X-9417659Y-4746950D02*
G01*
X-9417659Y-4866949D01*
X-9337903Y-4746950D02*
G01*
X-9337903Y-4866949D01*
X-9257893Y-4746950D02*
G01*
X-9257893Y-4866949D01*
X-9177883Y-4746950D02*
G01*
X-9177883Y-4866949D01*
X-9097873Y-4746950D02*
G01*
X-9097873Y-4866949D01*
X-9001409Y-4964429D02*
G01*
X-8881409Y-4964429D01*
X-9001409Y-5044439D02*
G01*
X-8881409Y-5044439D01*
X-9001409Y-5124450D02*
G01*
X-8881409Y-5124450D01*
X-9001409Y-5204460D02*
G01*
X-8881409Y-5204460D01*
X-9001409Y-5284215D02*
G01*
X-8881409Y-5284215D01*
X-9001409Y-5364226D02*
G01*
X-8881409Y-5364226D01*
X-9001409Y-5444236D02*
G01*
X-8881409Y-5444236D01*
X-9001409Y-5524245D02*
G01*
X-8881409Y-5524245D01*
X-9098889Y-5623250D02*
G01*
X-9098889Y-5743249D01*
X-9178899Y-5623250D02*
G01*
X-9178899Y-5743249D01*
X-9258909Y-5623250D02*
G01*
X-9258909Y-5743249D01*
X-9338919Y-5623250D02*
G01*
X-9338919Y-5743249D01*
X-9418675Y-5623250D02*
G01*
X-9418675Y-5743249D01*
X-9498685Y-5623250D02*
G01*
X-9498685Y-5743249D01*
X-9578695Y-5623250D02*
G01*
X-9578695Y-5743249D01*
X-9658705Y-5623250D02*
G01*
X-9658705Y-5743249D01*
X-9875169Y-5523229D02*
G01*
X-9755169Y-5523229D01*
X-9875169Y-5443220D02*
G01*
X-9755169Y-5443220D01*
X-9875169Y-5363210D02*
G01*
X-9755169Y-5363210D01*
X-9875169Y-5283200D02*
G01*
X-9755169Y-5283200D01*
X-9875169Y-5203444D02*
G01*
X-9755169Y-5203444D01*
X-9875169Y-5123434D02*
G01*
X-9755169Y-5123434D01*
X-9875169Y-5043423D02*
G01*
X-9755169Y-5043423D01*
X-9875169Y-4963413D02*
G01*
X-9755169Y-4963413D01*
D64*
X-5224556Y-5118100D02*
G01*
X-5374556Y-5118100D01*
D66*
X-4989527Y-5118100D02*
G01*
X-5129527Y-5118100D01*
X-4989621Y-4967986D02*
G01*
X-5109621Y-4967986D01*
X-4989621Y-5268213D02*
G01*
X-5109621Y-5268213D01*
D68*
X-12816695Y-1187322D02*
G01*
X-12706695Y-1187322D01*
X-12316190Y-1187322D02*
G01*
X-12206188Y-1187322D01*
X-12816695Y-1887321D02*
G01*
X-12706695Y-1887321D01*
X-11815681Y-1187322D02*
G01*
X-11705681Y-1187322D01*
X-12316190Y-1887321D02*
G01*
X-12206188Y-1887321D01*
X-11815681Y-1887321D02*
G01*
X-11705681Y-1887321D01*
X-1265791Y-3087319D02*
G01*
X-1155791Y-3087319D01*
X-765284Y-3087319D02*
G01*
X-655284Y-3087319D01*
X-1265791Y-3787317D02*
G01*
X-1155791Y-3787317D01*
X-264777Y-3087319D02*
G01*
X-154777Y-3087319D01*
X-765284Y-3787317D02*
G01*
X-655284Y-3787317D01*
X-264777Y-3787317D02*
G01*
X-154777Y-3787317D01*
X-12816695Y-3087319D02*
G01*
X-12706695Y-3087319D01*
X-12316190Y-3087319D02*
G01*
X-12206188Y-3087319D01*
X-12816695Y-3787317D02*
G01*
X-12706695Y-3787317D01*
X-11815681Y-3087319D02*
G01*
X-11705681Y-3087319D01*
X-12316190Y-3787317D02*
G01*
X-12206188Y-3787317D01*
X-11815681Y-3787317D02*
G01*
X-11705681Y-3787317D01*
X-1265791Y-1187322D02*
G01*
X-1155791Y-1187322D01*
X-765284Y-1187322D02*
G01*
X-655284Y-1187322D01*
X-1265791Y-1887321D02*
G01*
X-1155791Y-1887321D01*
X-264777Y-1187322D02*
G01*
X-154777Y-1187322D01*
X-765284Y-1887321D02*
G01*
X-655284Y-1887321D01*
X-264777Y-1887321D02*
G01*
X-154777Y-1887321D01*
D69*
X-4980279Y-1638300D02*
G01*
X-4980279Y-1638300D01*
X-6630288Y-635000D02*
G01*
X-6630288Y-635000D01*
D70*
G01*
X-10838789Y-5181600D03*
G01*
X-10838789Y-5435600D03*
G36*
X-4090923Y-2129028D02*
G01*
X-4090923Y-1858771D01*
X-3870452Y-1858771D01*
X-3870452Y-2129028D01*
G37*
D72*
G01*
X-10667695Y-4521200D03*
G01*
X-10927689Y-4521200D03*
G36*
X-11287760Y-4621276D02*
G01*
X-11287760Y-4421123D01*
X-11087608Y-4421123D01*
X-11087608Y-4621276D01*
G37*
D74*
G01*
X-5479389Y-1994992D03*
G36*
X-5634481Y-3240278D02*
G01*
X-5634481Y-2929889D01*
X-5324347Y-2929889D01*
X-5324347Y-3240278D01*
G37*
G01*
X-5479389Y-2540000D03*
G36*
X-3582923Y-3094228D02*
G01*
X-3582923Y-2823971D01*
X-3362452Y-2823971D01*
X-3362452Y-3094228D01*
G37*
G36*
X-7928102Y-4882642D02*
G01*
X-7928102Y-4517389D01*
X-7651750Y-4517389D01*
X-7651750Y-4882642D01*
G37*
G36*
X-8227313Y-5742178D02*
G01*
X-8227313Y-5611621D01*
X-8106918Y-5611621D01*
X-8106918Y-5742178D01*
G37*
G36*
X-8047228Y-5742178D02*
G01*
X-8047228Y-5611621D01*
X-7927086Y-5611621D01*
X-7927086Y-5742178D01*
G37*
G36*
X-9633965Y-6096507D02*
G01*
X-9633965Y-5976112D01*
X-9503663Y-5976112D01*
X-9503663Y-6096507D01*
G37*
G36*
X-9633965Y-5936487D02*
G01*
X-9633965Y-5816092D01*
X-9503663Y-5816092D01*
X-9503663Y-5936487D01*
G37*
G36*
X-9418065Y-6096507D02*
G01*
X-9418065Y-5976112D01*
X-9287763Y-5976112D01*
X-9287763Y-6096507D01*
G37*
G36*
X-9418065Y-5936487D02*
G01*
X-9418065Y-5816092D01*
X-9287763Y-5816092D01*
X-9287763Y-5936487D01*
G37*
G36*
X-8937497Y-7056881D02*
G01*
X-8937497Y-6946392D01*
X-8817102Y-6946392D01*
X-8817102Y-7056881D01*
G37*
G36*
X-8937497Y-7226808D02*
G01*
X-8937497Y-7116571D01*
X-8817102Y-7116571D01*
X-8817102Y-7226808D01*
G37*
G36*
X-8670797Y-7056881D02*
G01*
X-8670797Y-6946392D01*
X-8550402Y-6946392D01*
X-8550402Y-7056881D01*
G37*
G36*
X-8670797Y-7226808D02*
G01*
X-8670797Y-7116571D01*
X-8550402Y-7116571D01*
X-8550402Y-7226808D01*
G37*
G36*
X-8609076Y-4507484D02*
G01*
X-8609076Y-4367276D01*
X-8318754Y-4367276D01*
X-8318754Y-4507484D01*
G37*
G36*
X-8609076Y-4827523D02*
G01*
X-8609076Y-4687315D01*
X-8318754Y-4687315D01*
X-8318754Y-4827523D01*
G37*
G36*
X-8516365Y-4232655D02*
G01*
X-8516365Y-4022344D01*
X-8375904Y-4022344D01*
X-8375904Y-4232655D01*
G37*
G36*
X-8196326Y-4232655D02*
G01*
X-8196326Y-4022344D01*
X-8055863Y-4022344D01*
X-8055863Y-4232655D01*
G37*
G36*
X-4191762Y-5434329D02*
G01*
X-4191762Y-5259070D01*
X-4071365Y-5259070D01*
X-4071365Y-5434329D01*
G37*
G36*
X-3991863Y-5434329D02*
G01*
X-3991863Y-5259070D01*
X-3871468Y-5259070D01*
X-3871468Y-5434329D01*
G37*
G36*
X-3747262Y-5434329D02*
G01*
X-3747262Y-5259070D01*
X-3626865Y-5259070D01*
X-3626865Y-5434329D01*
G37*
G36*
X-3547363Y-5434329D02*
G01*
X-3547363Y-5259070D01*
X-3426968Y-5259070D01*
X-3426968Y-5434329D01*
G37*
G36*
X-4119371Y-5837173D02*
G01*
X-4119371Y-5716778D01*
X-3943857Y-5716778D01*
X-3943857Y-5837173D01*
G37*
G36*
X-4119371Y-5637021D02*
G01*
X-4119371Y-5516626D01*
X-3943857Y-5516626D01*
X-3943857Y-5637021D01*
G37*
G36*
X-3776471Y-5637021D02*
G01*
X-3776471Y-5516626D01*
X-3600957Y-5516626D01*
X-3600957Y-5637021D01*
G37*
G36*
X-3776471Y-5837173D02*
G01*
X-3776471Y-5716778D01*
X-3600957Y-5716778D01*
X-3600957Y-5837173D01*
G37*
G36*
X-4439665Y-5393181D02*
G01*
X-4439665Y-5272786D01*
X-4309363Y-5272786D01*
X-4309363Y-5393181D01*
G37*
G36*
X-4439665Y-5573013D02*
G01*
X-4439665Y-5452871D01*
X-4309363Y-5452871D01*
X-4309363Y-5573013D01*
G37*
G36*
X-3499865Y-5647181D02*
G01*
X-3499865Y-5526786D01*
X-3369563Y-5526786D01*
X-3369563Y-5647181D01*
G37*
G36*
X-3499865Y-5827013D02*
G01*
X-3499865Y-5706871D01*
X-3369563Y-5706871D01*
X-3369563Y-5827013D01*
G37*
G36*
X-3131565Y-6439407D02*
G01*
X-3131565Y-6319012D01*
X-3001263Y-6319012D01*
X-3001263Y-6439407D01*
G37*
G36*
X-3131565Y-6279387D02*
G01*
X-3131565Y-6158992D01*
X-3001263Y-6158992D01*
X-3001263Y-6279387D01*
G37*
G36*
X-3126486Y-6663181D02*
G01*
X-3126486Y-6552692D01*
X-3006344Y-6552692D01*
X-3006344Y-6663181D01*
G37*
G36*
X-3126486Y-6833108D02*
G01*
X-3126486Y-6722871D01*
X-3006344Y-6722871D01*
X-3006344Y-6833108D01*
G37*
G36*
X-6515862Y-6259829D02*
G01*
X-6515862Y-6084570D01*
X-6395465Y-6084570D01*
X-6395465Y-6259829D01*
G37*
G36*
X-6315963Y-6259829D02*
G01*
X-6315963Y-6084570D01*
X-6195568Y-6084570D01*
X-6195568Y-6259829D01*
G37*
G36*
X-6960362Y-6285229D02*
G01*
X-6960362Y-6109970D01*
X-6839965Y-6109970D01*
X-6839965Y-6285229D01*
G37*
G36*
X-6760463Y-6285229D02*
G01*
X-6760463Y-6109970D01*
X-6640068Y-6109970D01*
X-6640068Y-6285229D01*
G37*
G36*
X-6532371Y-6475221D02*
G01*
X-6532371Y-6354826D01*
X-6356857Y-6354826D01*
X-6356857Y-6475221D01*
G37*
G36*
X-6532371Y-6675373D02*
G01*
X-6532371Y-6554978D01*
X-6356857Y-6554978D01*
X-6356857Y-6675373D01*
G37*
G36*
X-7040371Y-6475221D02*
G01*
X-7040371Y-6354826D01*
X-6864858Y-6354826D01*
X-6864858Y-6475221D01*
G37*
G36*
X-7040371Y-6675373D02*
G01*
X-7040371Y-6554978D01*
X-6864858Y-6554978D01*
X-6864858Y-6675373D01*
G37*
G36*
X-6255765Y-6472681D02*
G01*
X-6255765Y-6352286D01*
X-6125463Y-6352286D01*
X-6125463Y-6472681D01*
G37*
G36*
X-6255765Y-6652513D02*
G01*
X-6255765Y-6532371D01*
X-6125463Y-6532371D01*
X-6125463Y-6652513D01*
G37*
G36*
X-6763765Y-6472681D02*
G01*
X-6763765Y-6352286D01*
X-6633463Y-6352286D01*
X-6633463Y-6472681D01*
G37*
G36*
X-6763765Y-6652513D02*
G01*
X-6763765Y-6532371D01*
X-6633463Y-6532371D01*
X-6633463Y-6652513D01*
G37*
G36*
X-7544562Y-6259829D02*
G01*
X-7544562Y-6084570D01*
X-7424165Y-6084570D01*
X-7424165Y-6259829D01*
G37*
G36*
X-7344663Y-6259829D02*
G01*
X-7344663Y-6084570D01*
X-7224268Y-6084570D01*
X-7224268Y-6259829D01*
G37*
G36*
X-7700771Y-6462521D02*
G01*
X-7700771Y-6342126D01*
X-7525258Y-6342126D01*
X-7525258Y-6462521D01*
G37*
G36*
X-7700771Y-6662673D02*
G01*
X-7700771Y-6542278D01*
X-7525258Y-6542278D01*
X-7525258Y-6662673D01*
G37*
G36*
X-7424165Y-6472681D02*
G01*
X-7424165Y-6352286D01*
X-7293863Y-6352286D01*
X-7293863Y-6472681D01*
G37*
G36*
X-7424165Y-6652513D02*
G01*
X-7424165Y-6532371D01*
X-7293863Y-6532371D01*
X-7293863Y-6652513D01*
G37*
G36*
X-7709662Y-5967221D02*
G01*
X-7709662Y-5796787D01*
X-7389368Y-5796787D01*
X-7389368Y-5967221D01*
G37*
G36*
X-7709662Y-5506212D02*
G01*
X-7709662Y-5335778D01*
X-7389368Y-5335778D01*
X-7389368Y-5506212D01*
G37*
G36*
X-7271765Y-5979413D02*
G01*
X-7271765Y-5859018D01*
X-7141463Y-5859018D01*
X-7141463Y-5979413D01*
G37*
G36*
X-7271765Y-5799328D02*
G01*
X-7271765Y-5679186D01*
X-7141463Y-5679186D01*
X-7141463Y-5799328D01*
G37*
G36*
X-6382765Y-5431281D02*
G01*
X-6382765Y-5310886D01*
X-6252463Y-5310886D01*
X-6252463Y-5431281D01*
G37*
G36*
X-6382765Y-5611113D02*
G01*
X-6382765Y-5490971D01*
X-6252463Y-5490971D01*
X-6252463Y-5611113D01*
G37*
G36*
X-7319010Y-5633465D02*
G01*
X-7319010Y-5263134D01*
X-7078726Y-5263134D01*
X-7078726Y-5633465D01*
G37*
G36*
X-6699250Y-5283454D02*
G01*
X-6699250Y-5153152D01*
X-6458965Y-5153152D01*
X-6458965Y-5283454D01*
G37*
G36*
X-6699250Y-5513578D02*
G01*
X-6699250Y-5383021D01*
X-6458965Y-5383021D01*
X-6458965Y-5513578D01*
G37*
G36*
X-6699250Y-5743447D02*
G01*
X-6699250Y-5613145D01*
X-6458965Y-5613145D01*
X-6458965Y-5743447D01*
G37*
G36*
X-5404865Y-6109207D02*
G01*
X-5404865Y-5988812D01*
X-5274563Y-5988812D01*
X-5274563Y-6109207D01*
G37*
G36*
X-5404865Y-5949187D02*
G01*
X-5404865Y-5828792D01*
X-5274563Y-5828792D01*
X-5274563Y-5949187D01*
G37*
G36*
X-360171Y-5408421D02*
G01*
X-360171Y-5288026D01*
X-184657Y-5288026D01*
X-184657Y-5408421D01*
G37*
G36*
X-360171Y-5608573D02*
G01*
X-360171Y-5488178D01*
X-184657Y-5488178D01*
X-184657Y-5608573D01*
G37*
G36*
X-12721844Y-2462784D02*
G01*
X-12721844Y-2322576D01*
X-12511531Y-2322576D01*
X-12511531Y-2462784D01*
G37*
G36*
X-12721844Y-2782823D02*
G01*
X-12721844Y-2642615D01*
X-12511531Y-2642615D01*
X-12511531Y-2782823D01*
G37*
G36*
X-12429744Y-2462784D02*
G01*
X-12429744Y-2322576D01*
X-12219431Y-2322576D01*
X-12219431Y-2462784D01*
G37*
G36*
X-12429744Y-2782823D02*
G01*
X-12429744Y-2642615D01*
X-12219431Y-2642615D01*
X-12219431Y-2782823D01*
G37*
G36*
X-12137644Y-2462784D02*
G01*
X-12137644Y-2322576D01*
X-11927331Y-2322576D01*
X-11927331Y-2462784D01*
G37*
G36*
X-12137644Y-2782823D02*
G01*
X-12137644Y-2642615D01*
X-11927331Y-2642615D01*
X-11927331Y-2782823D01*
G37*
G36*
X-11845544Y-2462784D02*
G01*
X-11845544Y-2322576D01*
X-11635231Y-2322576D01*
X-11635231Y-2462784D01*
G37*
G36*
X-11845544Y-2782823D02*
G01*
X-11845544Y-2642615D01*
X-11635231Y-2642615D01*
X-11635231Y-2782823D01*
G37*
G36*
X-7300976Y-4192778D02*
G01*
X-7300976Y-4062221D01*
X-7180834Y-4062221D01*
X-7180834Y-4192778D01*
G37*
G36*
X-7460995Y-4192778D02*
G01*
X-7460995Y-4062221D01*
X-7340600Y-4062221D01*
X-7340600Y-4192778D01*
G37*
G36*
X-9735565Y-4636007D02*
G01*
X-9735565Y-4515612D01*
X-9605263Y-4515612D01*
X-9605263Y-4636007D01*
G37*
G36*
X-9735565Y-4475987D02*
G01*
X-9735565Y-4355592D01*
X-9605263Y-4355592D01*
X-9605263Y-4475987D01*
G37*
G36*
X-4579365Y-6609587D02*
G01*
X-4579365Y-6489192D01*
X-4449063Y-6489192D01*
X-4449063Y-6609587D01*
G37*
D78*
G01*
X-4514189Y-6709384D03*
G36*
X-11259565Y-5334507D02*
G01*
X-11259565Y-5214112D01*
X-11129263Y-5214112D01*
X-11129263Y-5334507D01*
G37*
G36*
X-11259565Y-5174487D02*
G01*
X-11259565Y-5054092D01*
X-11129263Y-5054092D01*
X-11129263Y-5174487D01*
G37*
G36*
X-7473695Y-3710178D02*
G01*
X-7473695Y-3579621D01*
X-7353300Y-3579621D01*
X-7353300Y-3710178D01*
G37*
G36*
X-7313676Y-3710178D02*
G01*
X-7313676Y-3579621D01*
X-7193279Y-3579621D01*
X-7193279Y-3710178D01*
G37*
G36*
X-6452870Y-4266692D02*
G01*
X-6452870Y-4003802D01*
X-6182360Y-4003802D01*
X-6182360Y-4266692D01*
G37*
G36*
X-6452870Y-4871212D02*
G01*
X-6452870Y-4608321D01*
X-6182360Y-4608321D01*
X-6182360Y-4871212D01*
G37*
G36*
X-7483855Y-3951478D02*
G01*
X-7483855Y-3820921D01*
X-7363460Y-3820921D01*
X-7363460Y-3951478D01*
G37*
G36*
X-7303770Y-3951478D02*
G01*
X-7303770Y-3820921D01*
X-7183373Y-3820921D01*
X-7183373Y-3951478D01*
G37*
D64*
G01*
X-10038689Y-1689100D03*
G01*
X-10038689Y-2197100D03*
G01*
X-10737189Y-520700D03*
G01*
X-10737189Y-1028700D03*
G01*
X-9302089Y-520700D03*
G01*
X-9302089Y-1028700D03*
G01*
X-7841589Y-520700D03*
G01*
X-7841589Y-1028700D03*
G36*
X-8846565Y-4140707D02*
G01*
X-8846565Y-4020312D01*
X-8716263Y-4020312D01*
X-8716263Y-4140707D01*
G37*
G36*
X-8846565Y-3980687D02*
G01*
X-8846565Y-3860292D01*
X-8716263Y-3860292D01*
X-8716263Y-3980687D01*
G37*
G36*
X-7011923Y-4895595D02*
G01*
X-7011923Y-4375404D01*
X-6791705Y-4375404D01*
X-6791705Y-4895595D01*
G37*
G36*
X-7342123Y-4895595D02*
G01*
X-7342123Y-4375404D01*
X-7121652Y-4375404D01*
X-7121652Y-4895595D01*
G37*
D72*
G01*
X-6172200Y-7188200D03*
G01*
X-5918200Y-7188200D03*
G01*
X-5664200Y-7188200D03*
G01*
X-5410200Y-7188200D03*
G01*
X-5156200Y-7188200D03*
G36*
X-5002276Y-7288276D02*
G01*
X-5002276Y-7088123D01*
X-4802123Y-7088123D01*
X-4802123Y-7288276D01*
G37*
G36*
X-2932176Y-7288276D02*
G01*
X-2932176Y-7088123D01*
X-2732023Y-7088123D01*
X-2732023Y-7288276D01*
G37*
G01*
X-3086100Y-7188200D03*
G01*
X-3340100Y-7188200D03*
G01*
X-3594100Y-7188200D03*
G01*
X-3848100Y-7188200D03*
G01*
X-4102100Y-7188200D03*
G36*
X-8244078Y-6589013D02*
G01*
X-8244078Y-6468618D01*
X-8113521Y-6468618D01*
X-8113521Y-6589013D01*
G37*
G36*
X-8244078Y-6408928D02*
G01*
X-8244078Y-6288786D01*
X-8113521Y-6288786D01*
X-8113521Y-6408928D01*
G37*
G36*
X-10472165Y-5012181D02*
G01*
X-10472165Y-4891786D01*
X-10341863Y-4891786D01*
X-10341863Y-5012181D01*
G37*
G36*
X-10472165Y-5192013D02*
G01*
X-10472165Y-5071871D01*
X-10341863Y-5071871D01*
X-10341863Y-5192013D01*
G37*
G36*
X-10675365Y-5012181D02*
G01*
X-10675365Y-4891786D01*
X-10545063Y-4891786D01*
X-10545063Y-5012181D01*
G37*
G36*
X-10675365Y-5192013D02*
G01*
X-10675365Y-5071871D01*
X-10545063Y-5071871D01*
X-10545063Y-5192013D01*
G37*
G36*
X-7750555Y-5221478D02*
G01*
X-7750555Y-5090921D01*
X-7630160Y-5090921D01*
X-7630160Y-5221478D01*
G37*
G36*
X-7570470Y-5221478D02*
G01*
X-7570470Y-5090921D01*
X-7450073Y-5090921D01*
X-7450073Y-5221478D01*
G37*
G36*
X-8002778Y-6409181D02*
G01*
X-8002778Y-6288786D01*
X-7872221Y-6288786D01*
X-7872221Y-6409181D01*
G37*
G36*
X-8002778Y-6589013D02*
G01*
X-8002778Y-6468871D01*
X-7872221Y-6468871D01*
X-7872221Y-6589013D01*
G37*
G36*
X-5883655Y-5831078D02*
G01*
X-5883655Y-5700521D01*
X-5763260Y-5700521D01*
X-5763260Y-5831078D01*
G37*
G36*
X-5703570Y-5831078D02*
G01*
X-5703570Y-5700521D01*
X-5583173Y-5700521D01*
X-5583173Y-5831078D01*
G37*
G36*
X-6712965Y-4734813D02*
G01*
X-6712965Y-4614418D01*
X-6582663Y-4614418D01*
X-6582663Y-4734813D01*
G37*
G36*
X-6712965Y-4554728D02*
G01*
X-6712965Y-4434586D01*
X-6582663Y-4434586D01*
X-6582663Y-4554728D01*
G37*
G36*
X-8719565Y-5674613D02*
G01*
X-8719565Y-5554218D01*
X-8589263Y-5554218D01*
X-8589263Y-5674613D01*
G37*
G36*
X-8719565Y-5494528D02*
G01*
X-8719565Y-5374386D01*
X-8589263Y-5374386D01*
X-8589263Y-5494528D01*
G37*
G36*
X-8513571Y-5484621D02*
G01*
X-8513571Y-5364226D01*
X-8338058Y-5364226D01*
X-8338058Y-5484621D01*
G37*
G36*
X-8513571Y-5684773D02*
G01*
X-8513571Y-5564378D01*
X-8338058Y-5564378D01*
X-8338058Y-5684773D01*
G37*
G36*
X-10313415Y-5545581D02*
G01*
X-10313415Y-5385054D01*
X-10178034Y-5385054D01*
X-10178034Y-5545581D01*
G37*
G36*
X-10153395Y-5765545D02*
G01*
X-10153395Y-5647181D01*
X-10109454Y-5605271D01*
X-10018013Y-5605271D01*
X-10018013Y-5765545D01*
G37*
G36*
X-10313415Y-5765545D02*
G01*
X-10313415Y-5605271D01*
X-10178034Y-5605271D01*
X-10178034Y-5765545D01*
G37*
G36*
X-10153395Y-5545581D02*
G01*
X-10153395Y-5385054D01*
X-10018013Y-5385054D01*
X-10018013Y-5545581D01*
G37*
G36*
X-5880862Y-6082029D02*
G01*
X-5880862Y-5906770D01*
X-5760465Y-5906770D01*
X-5760465Y-6082029D01*
G37*
G36*
X-5680963Y-6082029D02*
G01*
X-5680963Y-5906770D01*
X-5560568Y-5906770D01*
X-5560568Y-6082029D01*
G37*
G36*
X-13099287Y-5257800D02*
G01*
X-13099287Y-5080000D01*
X-12921487Y-5080000D01*
X-12921487Y-5257800D01*
G37*
D92*
G01*
X-13010489Y-4914900D03*
G36*
X-9295637Y-6567170D02*
G01*
X-9295637Y-6386829D01*
X-9195562Y-6386829D01*
X-9195562Y-6567170D01*
G37*
G36*
X-9295637Y-7278370D02*
G01*
X-9295637Y-7098029D01*
X-9195562Y-7098029D01*
X-9195562Y-7278370D01*
G37*
G36*
X-9790937Y-6567170D02*
G01*
X-9790937Y-6386829D01*
X-9690862Y-6386829D01*
X-9690862Y-6567170D01*
G37*
G36*
X-9790937Y-7278370D02*
G01*
X-9790937Y-7098029D01*
X-9690862Y-7098029D01*
X-9690862Y-7278370D01*
G37*
G36*
X-10286237Y-6567170D02*
G01*
X-10286237Y-6386829D01*
X-10186162Y-6386829D01*
X-10186162Y-6567170D01*
G37*
G36*
X-10286237Y-7278370D02*
G01*
X-10286237Y-7098029D01*
X-10186162Y-7098029D01*
X-10186162Y-7278370D01*
G37*
G36*
X-8282939Y-5329936D02*
G01*
X-8282939Y-5249671D01*
X-8162797Y-5249671D01*
X-8162797Y-5329936D01*
G37*
G36*
X-8282939Y-5424931D02*
G01*
X-8282939Y-5344668D01*
X-8162797Y-5344668D01*
X-8162797Y-5424931D01*
G37*
G36*
X-8282939Y-5519928D02*
G01*
X-8282939Y-5439663D01*
X-8162797Y-5439663D01*
X-8162797Y-5519928D01*
G37*
G36*
X-8003031Y-5519928D02*
G01*
X-8003031Y-5439663D01*
X-7882636Y-5439663D01*
X-7882636Y-5519928D01*
G37*
G36*
X-8003031Y-5329936D02*
G01*
X-8003031Y-5249671D01*
X-7882636Y-5249671D01*
X-7882636Y-5329936D01*
G37*
G36*
X-5125465Y-6586981D02*
G01*
X-5125465Y-6466586D01*
X-4995163Y-6466586D01*
X-4995163Y-6586981D01*
G37*
G36*
X-5125465Y-6766813D02*
G01*
X-5125465Y-6646671D01*
X-4995163Y-6646671D01*
X-4995163Y-6766813D01*
G37*
G36*
X-4363465Y-5824981D02*
G01*
X-4363465Y-5704586D01*
X-4233163Y-5704586D01*
X-4233163Y-5824981D01*
G37*
G36*
X-4363465Y-6004813D02*
G01*
X-4363465Y-5884671D01*
X-4233163Y-5884671D01*
X-4233163Y-6004813D01*
G37*
G36*
X-9481565Y-4475987D02*
G01*
X-9481565Y-4355592D01*
X-9351263Y-4355592D01*
X-9351263Y-4475987D01*
G37*
D78*
G01*
X-9416389Y-4575784D03*
G36*
X-10225278Y-6114287D02*
G01*
X-10225278Y-5993892D01*
X-10094721Y-5993892D01*
X-10094721Y-6114287D01*
G37*
G36*
X-10225278Y-6274307D02*
G01*
X-10225278Y-6153912D01*
X-10094721Y-6153912D01*
X-10094721Y-6274307D01*
G37*
G36*
X-10441178Y-6114287D02*
G01*
X-10441178Y-5993892D01*
X-10310621Y-5993892D01*
X-10310621Y-6114287D01*
G37*
G36*
X-10441178Y-6274307D02*
G01*
X-10441178Y-6153912D01*
X-10310621Y-6153912D01*
X-10310621Y-6274307D01*
G37*
G36*
X-12520676Y-7062978D02*
G01*
X-12520676Y-6932421D01*
X-12400534Y-6932421D01*
X-12400534Y-7062978D01*
G37*
G36*
X-12680695Y-7062978D02*
G01*
X-12680695Y-6932421D01*
X-12560300Y-6932421D01*
X-12560300Y-7062978D01*
G37*
G36*
X-12520676Y-7266178D02*
G01*
X-12520676Y-7135621D01*
X-12400534Y-7135621D01*
X-12400534Y-7266178D01*
G37*
G36*
X-12680695Y-7266178D02*
G01*
X-12680695Y-7135621D01*
X-12560300Y-7135621D01*
X-12560300Y-7266178D01*
G37*
G36*
X-4871465Y-5994907D02*
G01*
X-4871465Y-5874512D01*
X-4741163Y-5874512D01*
X-4741163Y-5994907D01*
G37*
G36*
X-4871465Y-5834887D02*
G01*
X-4871465Y-5714492D01*
X-4741163Y-5714492D01*
X-4741163Y-5834887D01*
G37*
G36*
X-4617465Y-5834887D02*
G01*
X-4617465Y-5714492D01*
X-4487163Y-5714492D01*
X-4487163Y-5834887D01*
G37*
G36*
X-4617465Y-5994907D02*
G01*
X-4617465Y-5874512D01*
X-4487163Y-5874512D01*
X-4487163Y-5994907D01*
G37*
G36*
X-4871465Y-6756908D02*
G01*
X-4871465Y-6636512D01*
X-4741163Y-6636512D01*
X-4741163Y-6756908D01*
G37*
G36*
X-4871465Y-6596887D02*
G01*
X-4871465Y-6476492D01*
X-4741163Y-6476492D01*
X-4741163Y-6596887D01*
G37*
G36*
X-5112765Y-5994907D02*
G01*
X-5112765Y-5874512D01*
X-4982463Y-5874512D01*
X-4982463Y-5994907D01*
G37*
G36*
X-5112765Y-5834887D02*
G01*
X-5112765Y-5714492D01*
X-4982463Y-5714492D01*
X-4982463Y-5834887D01*
G37*
G36*
X-12520676Y-6859778D02*
G01*
X-12520676Y-6729221D01*
X-12400534Y-6729221D01*
X-12400534Y-6859778D01*
G37*
G36*
X-12680695Y-6859778D02*
G01*
X-12680695Y-6729221D01*
X-12560300Y-6729221D01*
X-12560300Y-6859778D01*
G37*
G36*
X-4579365Y-6228587D02*
G01*
X-4579365Y-6108192D01*
X-4449063Y-6108192D01*
X-4449063Y-6228587D01*
G37*
G01*
X-4514189Y-6328384D03*
G36*
X-12520676Y-6605778D02*
G01*
X-12520676Y-6475221D01*
X-12400534Y-6475221D01*
X-12400534Y-6605778D01*
G37*
G36*
X-12680695Y-6605778D02*
G01*
X-12680695Y-6475221D01*
X-12560300Y-6475221D01*
X-12560300Y-6605778D01*
G37*
G36*
X-8244078Y-5936487D02*
G01*
X-8244078Y-5816092D01*
X-8113521Y-5816092D01*
X-8113521Y-5936487D01*
G37*
G36*
X-8244078Y-6096507D02*
G01*
X-8244078Y-5976112D01*
X-8113521Y-5976112D01*
X-8113521Y-6096507D01*
G37*
G36*
X-8015478Y-5936487D02*
G01*
X-8015478Y-5816092D01*
X-7884921Y-5816092D01*
X-7884921Y-5936487D01*
G37*
G36*
X-8015478Y-6096507D02*
G01*
X-8015478Y-5976112D01*
X-7884921Y-5976112D01*
X-7884921Y-6096507D01*
G37*
G36*
X-8235695Y-5157978D02*
G01*
X-8235695Y-5027421D01*
X-8115554Y-5027421D01*
X-8115554Y-5157978D01*
G37*
G36*
X-8075676Y-5157978D02*
G01*
X-8075676Y-5027421D01*
X-7955534Y-5027421D01*
X-7955534Y-5157978D01*
G37*
G36*
X-3931665Y-6439407D02*
G01*
X-3931665Y-6319012D01*
X-3801363Y-6319012D01*
X-3801363Y-6439407D01*
G37*
G36*
X-3931665Y-6279387D02*
G01*
X-3931665Y-6158992D01*
X-3801363Y-6158992D01*
X-3801363Y-6279387D01*
G37*
G36*
X-3664965Y-6439407D02*
G01*
X-3664965Y-6319012D01*
X-3534663Y-6319012D01*
X-3534663Y-6439407D01*
G37*
G36*
X-3664965Y-6279387D02*
G01*
X-3664965Y-6158992D01*
X-3534663Y-6158992D01*
X-3534663Y-6279387D01*
G37*
G36*
X-3398265Y-6439407D02*
G01*
X-3398265Y-6319012D01*
X-3267963Y-6319012D01*
X-3267963Y-6439407D01*
G37*
G36*
X-3398265Y-6279387D02*
G01*
X-3398265Y-6158992D01*
X-3267963Y-6158992D01*
X-3267963Y-6279387D01*
G37*
D95*
G01*
X-2476169Y-2413000D03*
G01*
X-1726184Y-2413000D03*
G01*
X-2565069Y-5664200D03*
G01*
X-1815084Y-5664200D03*
G36*
X-6984492Y-4213352D02*
G01*
X-6984492Y-3963923D01*
X-6692137Y-3963923D01*
X-6692137Y-4213352D01*
G37*
G36*
X-6984492Y-3808476D02*
G01*
X-6984492Y-3559047D01*
X-6692137Y-3559047D01*
X-6692137Y-3808476D01*
G37*
G36*
X-3926586Y-6663181D02*
G01*
X-3926586Y-6552692D01*
X-3806444Y-6552692D01*
X-3806444Y-6663181D01*
G37*
G36*
X-3926586Y-6833108D02*
G01*
X-3926586Y-6722871D01*
X-3806444Y-6722871D01*
X-3806444Y-6833108D01*
G37*
G36*
X-3659886Y-6663181D02*
G01*
X-3659886Y-6552692D01*
X-3539744Y-6552692D01*
X-3539744Y-6663181D01*
G37*
G36*
X-3659886Y-6833108D02*
G01*
X-3659886Y-6722871D01*
X-3539744Y-6722871D01*
X-3539744Y-6833108D01*
G37*
G36*
X-3393186Y-6663181D02*
G01*
X-3393186Y-6552692D01*
X-3273044Y-6552692D01*
X-3273044Y-6663181D01*
G37*
G36*
X-3393186Y-6833108D02*
G01*
X-3393186Y-6722871D01*
X-3273044Y-6722871D01*
X-3273044Y-6833108D01*
G37*
G36*
X-5134863Y-4812029D02*
G01*
X-5134863Y-4636770D01*
X-5014468Y-4636770D01*
X-5014468Y-4812029D01*
G37*
G36*
X-5334762Y-4812029D02*
G01*
X-5334762Y-4636770D01*
X-5214365Y-4636770D01*
X-5214365Y-4812029D01*
G37*
G36*
X-12307824Y-7274052D02*
G01*
X-12307824Y-7153910D01*
X-12087605Y-7153910D01*
X-12087605Y-7274052D01*
G37*
G36*
X-12307824Y-7074154D02*
G01*
X-12307824Y-6953758D01*
X-12087605Y-6953758D01*
X-12087605Y-7074154D01*
G37*
G36*
X-12307824Y-6874002D02*
G01*
X-12307824Y-6753860D01*
X-12087605Y-6753860D01*
X-12087605Y-6874002D01*
G37*
G36*
X-12307824Y-6674104D02*
G01*
X-12307824Y-6553708D01*
X-12087352Y-6553708D01*
X-12087352Y-6674104D01*
G37*
G36*
X-12307824Y-6474205D02*
G01*
X-12307824Y-6353810D01*
X-12087605Y-6353810D01*
X-12087605Y-6474205D01*
G37*
G36*
X-12307824Y-6274054D02*
G01*
X-12307824Y-6153912D01*
X-12087605Y-6153912D01*
X-12087605Y-6274054D01*
G37*
G36*
X-12307824Y-6074155D02*
G01*
X-12307824Y-5953760D01*
X-12087352Y-5953760D01*
X-12087352Y-6074155D01*
G37*
G36*
X-12307570Y-5874004D02*
G01*
X-12307570Y-5753862D01*
X-12087352Y-5753862D01*
X-12087352Y-5874004D01*
G37*
G36*
X-11957558Y-5773928D02*
G01*
X-11957558Y-5553710D01*
X-11837162Y-5553710D01*
X-11837162Y-5773928D01*
G37*
G36*
X-11757405Y-5774181D02*
G01*
X-11757405Y-5553710D01*
X-11637010Y-5553710D01*
X-11637010Y-5774181D01*
G37*
G36*
X-11557508Y-5774181D02*
G01*
X-11557508Y-5553710D01*
X-11437112Y-5553710D01*
X-11437112Y-5774181D01*
G37*
G36*
X-11357355Y-5774181D02*
G01*
X-11357355Y-5553710D01*
X-11237213Y-5553710D01*
X-11237213Y-5774181D01*
G37*
G36*
X-11157458Y-5774181D02*
G01*
X-11157458Y-5553963D01*
X-11037315Y-5553963D01*
X-11037315Y-5774181D01*
G37*
G36*
X-10957813Y-5773928D02*
G01*
X-10957813Y-5553710D01*
X-10837418Y-5553710D01*
X-10837418Y-5773928D01*
G37*
G36*
X-10707624Y-5874004D02*
G01*
X-10707624Y-5753862D01*
X-10487405Y-5753862D01*
X-10487405Y-5874004D01*
G37*
G36*
X-10707624Y-6074155D02*
G01*
X-10707624Y-5953760D01*
X-10487405Y-5953760D01*
X-10487405Y-6074155D01*
G37*
G36*
X-10707624Y-6274054D02*
G01*
X-10707624Y-6153912D01*
X-10487405Y-6153912D01*
X-10487405Y-6274054D01*
G37*
G36*
X-10707624Y-6474205D02*
G01*
X-10707624Y-6353810D01*
X-10487405Y-6353810D01*
X-10487405Y-6474205D01*
G37*
G36*
X-10707624Y-6674104D02*
G01*
X-10707624Y-6553708D01*
X-10487405Y-6553708D01*
X-10487405Y-6674104D01*
G37*
G36*
X-10707624Y-6874002D02*
G01*
X-10707624Y-6753860D01*
X-10487405Y-6753860D01*
X-10487405Y-6874002D01*
G37*
G36*
X-10707624Y-7074154D02*
G01*
X-10707624Y-6953758D01*
X-10487405Y-6953758D01*
X-10487405Y-7074154D01*
G37*
G36*
X-10707624Y-7274052D02*
G01*
X-10707624Y-7153910D01*
X-10487405Y-7153910D01*
X-10487405Y-7274052D01*
G37*
D64*
G01*
X-272389Y-5092700D03*
G01*
X-272389Y-4076700D03*
G36*
X-5135626Y-6232397D02*
G01*
X-5135626Y-6171945D01*
X-4993131Y-6171945D01*
X-4993131Y-6232397D01*
G37*
G36*
X-5135626Y-6296405D02*
G01*
X-5135626Y-6235954D01*
X-4993131Y-6235954D01*
X-4993131Y-6296405D01*
G37*
G36*
X-5135626Y-6362445D02*
G01*
X-5135626Y-6301994D01*
X-4993131Y-6301994D01*
X-4993131Y-6362445D01*
G37*
G36*
X-5135626Y-6426454D02*
G01*
X-5135626Y-6366002D01*
X-4993131Y-6366002D01*
X-4993131Y-6426454D01*
G37*
G36*
X-4873497Y-6426454D02*
G01*
X-4873497Y-6366002D01*
X-4731257Y-6366002D01*
X-4731257Y-6426454D01*
G37*
G36*
X-4873497Y-6362445D02*
G01*
X-4873497Y-6301994D01*
X-4731257Y-6301994D01*
X-4731257Y-6362445D01*
G37*
G36*
X-4873497Y-6296405D02*
G01*
X-4873497Y-6235954D01*
X-4731257Y-6235954D01*
X-4731257Y-6296405D01*
G37*
G36*
X-4873497Y-6232397D02*
G01*
X-4873497Y-6171945D01*
X-4731257Y-6171945D01*
X-4731257Y-6232397D01*
G37*
G36*
X-5134863Y-4532629D02*
G01*
X-5134863Y-4357370D01*
X-5014468Y-4357370D01*
X-5014468Y-4532629D01*
G37*
G36*
X-5334762Y-4532629D02*
G01*
X-5334762Y-4357370D01*
X-5214365Y-4357370D01*
X-5214365Y-4532629D01*
G37*
G36*
X-5334762Y-4253229D02*
G01*
X-5334762Y-4077970D01*
X-5214365Y-4077970D01*
X-5214365Y-4253229D01*
G37*
G36*
X-5134863Y-4253229D02*
G01*
X-5134863Y-4077970D01*
X-5014468Y-4077970D01*
X-5014468Y-4253229D01*
G37*
G36*
X-11282171Y-5011673D02*
G01*
X-11282171Y-4891278D01*
X-11106658Y-4891278D01*
X-11106658Y-5011673D01*
G37*
G36*
X-11282171Y-4811521D02*
G01*
X-11282171Y-4691126D01*
X-11106658Y-4691126D01*
X-11106658Y-4811521D01*
G37*
G36*
X-2737865Y-6868413D02*
G01*
X-2737865Y-6748018D01*
X-2607563Y-6748018D01*
X-2607563Y-6868413D01*
G37*
G36*
X-2737865Y-6688328D02*
G01*
X-2737865Y-6568186D01*
X-2607563Y-6568186D01*
X-2607563Y-6688328D01*
G37*
G36*
X-8846565Y-4620513D02*
G01*
X-8846565Y-4500118D01*
X-8716263Y-4500118D01*
X-8716263Y-4620513D01*
G37*
G36*
X-8846565Y-4440428D02*
G01*
X-8846565Y-4320286D01*
X-8716263Y-4320286D01*
X-8716263Y-4440428D01*
G37*
G36*
X-9123171Y-4430521D02*
G01*
X-9123171Y-4310126D01*
X-8947658Y-4310126D01*
X-8947658Y-4430521D01*
G37*
G36*
X-9123171Y-4630673D02*
G01*
X-9123171Y-4510278D01*
X-8947658Y-4510278D01*
X-8947658Y-4630673D01*
G37*
G36*
X-2576829Y-6665721D02*
G01*
X-2576829Y-6545326D01*
X-2401570Y-6545326D01*
X-2401570Y-6665721D01*
G37*
G36*
X-2576829Y-6865873D02*
G01*
X-2576829Y-6745478D01*
X-2401570Y-6745478D01*
X-2401570Y-6865873D01*
G37*
G36*
X-5449823Y-6675373D02*
G01*
X-5449823Y-6354826D01*
X-5229605Y-6354826D01*
X-5229605Y-6675373D01*
G37*
G36*
X-5932423Y-6675373D02*
G01*
X-5932423Y-6354826D01*
X-5712205Y-6354826D01*
X-5712205Y-6675373D01*
G37*
G36*
X-2363978Y-6858508D02*
G01*
X-2363978Y-6738112D01*
X-2233421Y-6738112D01*
X-2233421Y-6858508D01*
G37*
G36*
X-2363978Y-6698487D02*
G01*
X-2363978Y-6578092D01*
X-2233421Y-6578092D01*
X-2233421Y-6698487D01*
G37*
D95*
G01*
X-2984169Y-4025900D03*
G01*
X-2234184Y-4025900D03*
M02*
