M48
METRIC,LZ,000.000
;FILE_FORMAT=3:3
;TYPE=PLATED
;Layer: Drill PTH
;EasyEDA v6.4.20.6, 2021-08-20T18:50:31+10:00
;da2b955f28294749bdafdb94d24a6b32,8629367194b24dd88a5c18b2f13758b0,10
;Gerber Generator version 0.2
;Holesize 1 = 0.305 mm
T01C0.305
;Holesize 2 = 0.600 mm
T02C0.600
;Holesize 3 = 0.701 mm
T03C0.701
;Holesize 4 = 0.889 mm
T04C0.889
;Holesize 5 = 0.901 mm
T05C0.901
;Holesize 6 = 1.200 mm
T06C1.200
;Holesize 7 = 1.400 mm
T07C1.400
;Holesize 8 = 1.501 mm
T08C1.501
;Holesize 9 = 1.701 mm
T09C1.701
;Holesize 10 = 4.000 mm
T10C4.000
%
G05
G90
T01
X-078600Y-055600
X-102900Y-058900
X-097600Y-057300
X-097600Y-058600
X-034601Y-058928
X-036887Y-058928
X-040316Y-058928
X-060636Y-066040
X-063049Y-066040
X-065843Y-066040
X-068256Y-066040
X-077800Y-065300
X-093275Y-054229
X-099244Y-060833
X-095053Y-049784
X-093910Y-051054
X-120453Y-065024
X-063176Y-038481
X-067748Y-042799
X-072320Y-042799
X-075749Y-040386
X-078924Y-040386
X-104324Y-057404
X-104324Y-056261
X-076200Y-068326
X-077851Y-068326
X-079502Y-068326
X-069145Y-052070
X-069145Y-058928
X-076600Y-060800
X-049333Y-066167
X-055429Y-064135
X-055429Y-065405
X-055429Y-067564
X-055429Y-066548
X-048317Y-060960
X-083496Y-058039
X-042475Y-055245
X-047428Y-052578
X-034601Y-061214
X-037395Y-061214
X-040062Y-061214
X-041078Y-061214
X-045523Y-060579
X-055429Y-063119
X-069145Y-055372
X-076765Y-056388
X-071431Y-063246
X-081026Y-068326
X-042094Y-061214
X-051746Y-060960
X-048698Y-051181
X-079432Y-039370
X-090043Y-063754
X-088195Y-055880
X-090735Y-058293
X-091751Y-058293
X-052127Y-049530
X-055048Y-050165
X-050673Y-042037
X-055118Y-047117
X-055175Y-052070
X-114611Y-064135
X-113595Y-064135
X-061271Y-050292
X-053594Y-044450
X-063176Y-044577
X-066097Y-036957
X-071177Y-035814
X-107499Y-050292
X-100133Y-052959
X-087941Y-051943
X-084639Y-051943
X-049333Y-064516
X-046540Y-066802
X-046793Y-056388
X-086544Y-058039
X-085782Y-063373
X-078924Y-043942
X-088900Y-046863
X-099949Y-072009
X-096323Y-051943
X-092640Y-041148
X-104959Y-053340
X-104959Y-054483
X-104959Y-055626
X-098228Y-045593
X-114357Y-067945
X-078670Y-051689
X-032400Y-069200
X-108261Y-048260
X-077019Y-050038
X-025400Y-069088
X-091253Y-049488
X-029500Y-069100
X-108642Y-062230
X-099244Y-059817
X-079700Y-053700
X-116516Y-059817
X-067945Y-067056
X-065532Y-067564
X-054413Y-052578
X-049968Y-060960
X-043745Y-061214
X-046793Y-062103
X-087560Y-058801
X-087560Y-060198
X-089465Y-060579
X-089846Y-056896
X-059871Y-042672
X-078867Y-037338
X-098679Y-059055
X-100203Y-058801
T02
X-124898Y-034290
X-123501Y-034290
X-121977Y-034290
X-120453Y-034290
X-062357Y-030480
X-062357Y-029083
X-062357Y-027559
X-062357Y-026035
X-063881Y-030480
X-063881Y-029083
X-063881Y-027559
X-063881Y-026035
X-009201Y-034163
X-007804Y-034163
X-006280Y-034163
X-004756Y-034163
X-050038Y-035941
X-048260Y-023749
X-046736Y-023749
X-048260Y-025146
X-046736Y-025146
X-011811Y-061214
X-010287Y-061214
X-008763Y-061214
X-007366Y-061214
X-005969Y-061214
X-011811Y-062738
X-010287Y-062738
X-008763Y-062738
X-007366Y-062738
X-005969Y-062738
X-063881Y-020193
X-063881Y-021717
X-063881Y-023241
X-063881Y-024638
X-062357Y-020193
X-062357Y-021717
X-062357Y-023241
X-062357Y-024638
X-043688Y-025146
X-045212Y-025146
X-043688Y-023749
X-045212Y-023749
X-092583Y-026035
X-092583Y-027559
X-092583Y-029083
X-092583Y-030480
X-091059Y-026035
X-091059Y-027559
X-091059Y-029083
X-091059Y-030480
X-092583Y-020193
X-092583Y-021717
X-092583Y-023241
X-092583Y-024638
X-091059Y-020193
X-091059Y-021717
X-091059Y-023241
X-091059Y-024638
T03
X-108388Y-051816
X-108388Y-054356
T04
X-130105Y-051689
X-130105Y-049149
T05
X-127947Y-011873G85X-127287Y-011873
X-122942Y-011873G85X-122282Y-011873
X-127947Y-018873G85X-127287Y-018873
X-117937Y-011873G85X-117277Y-011873
X-122942Y-018873G85X-122282Y-018873
X-117937Y-018873G85X-117277Y-018873
X-012438Y-030873G85X-011778Y-030873
X-007433Y-030873G85X-006773Y-030873
X-012438Y-037873G85X-011778Y-037873
X-002428Y-030873G85X-001768Y-030873
X-007433Y-037873G85X-006773Y-037873
X-002428Y-037873G85X-001768Y-037873
X-127947Y-030873G85X-127287Y-030873
X-122942Y-030873G85X-122282Y-030873
X-127947Y-037873G85X-127287Y-037873
X-117937Y-030873G85X-117277Y-030873
X-122942Y-037873G85X-122282Y-037873
X-117937Y-037873G85X-117277Y-037873
X-012438Y-011873G85X-011778Y-011873
X-007433Y-011873G85X-006773Y-011873
X-012438Y-018873G85X-011778Y-018873
X-002428Y-011873G85X-001768Y-011873
X-007433Y-018873G85X-006773Y-018873
X-002428Y-018873G85X-001768Y-018873
T06
X-106677Y-045212
X-109277Y-045212
X-111877Y-045212
X-100387Y-016891
X-100387Y-021971
X-107372Y-005207
X-107372Y-010287
X-093021Y-005207
X-093021Y-010287
X-078416Y-005207
X-078416Y-010287
X-061722Y-071882
X-059182Y-071882
X-056642Y-071882
X-054102Y-071882
X-051562Y-071882
X-049022Y-071882
X-028321Y-071882
X-030861Y-071882
X-033401Y-071882
X-035941Y-071882
X-038481Y-071882
X-041021Y-071882
X-024762Y-024130
X-017262Y-024130
X-025651Y-056642
X-018151Y-056642
X-029842Y-040259
X-022342Y-040259
T07
X-037268Y-019939
X-034728Y-019939
X-039808Y-019939
X-037268Y-029591
X-039808Y-029591
X-034728Y-029591
T08
X-002724Y-050927
X-002724Y-040767
T09
X-054794Y-019950
X-054794Y-030891G85X-054794Y-030806
X-054794Y-025400
T10
X-049803Y-016383
X-066303Y-006350
M30
