G04 Layer: TopPasteMaskLayer*
G04 EasyEDA v6.4.20.6, 2021-08-20T18:50:31+10:00*
G04 da2b955f28294749bdafdb94d24a6b32,8629367194b24dd88a5c18b2f13758b0,10*
G04 Gerber Generator version 0.2*
G04 Scale: 100 percent, Rotated: No, Reflected: No *
G04 Dimensions in millimeters *
G04 leading zeros omitted , absolute positions ,4 integer and 5 decimal *
%FSLAX45Y45*%
%MOMM*%

%ADD17C,0.7000*%
%ADD18C,0.6000*%
%ADD19C,2.0000*%
%ADD20C,0.4500*%
%ADD22R,2.5600X3.4501*%
%ADD23R,1.0000X1.1000*%
%ADD24R,1.1000X1.0000*%
%ADD25R,1.0000X0.8999*%
%ADD26R,2.7000X1.2000*%
%ADD28R,1.0000X1.5500*%
%ADD29R,1.5500X1.0000*%
%ADD30R,3.0000X1.5000*%
%ADD31R,2.2000X3.5000*%
%ADD32R,2.2000X1.1000*%
%ADD33R,1.9000X1.2000*%
%ADD34R,2.5000X2.4257*%
%ADD35R,2.0000X5.0000*%
%ADD36R,1.1500X1.4000*%
%ADD37R,0.8000X1.6000*%
%ADD38R,1.0000X0.6000*%
%ADD39R,2.7200X2.2900*%
%ADD40R,2.0000X1.0000*%
%ADD41R,1.0000X2.0000*%
%ADD43R,2.0000X3.0000*%

%LPD*%
D18*
X-7432822Y-4890515D02*
G01*
X-7552822Y-4890515D01*
X-7432822Y-4763515D02*
G01*
X-7552822Y-4763515D01*
X-7432822Y-4636515D02*
G01*
X-7552822Y-4636515D01*
X-7432822Y-4509515D02*
G01*
X-7552822Y-4509515D01*
X-8027182Y-4890515D02*
G01*
X-8147182Y-4890515D01*
X-8027182Y-4763515D02*
G01*
X-8147182Y-4763515D01*
X-8027182Y-4636515D02*
G01*
X-8147182Y-4636515D01*
X-8027182Y-4509515D02*
G01*
X-8147182Y-4509515D01*
D19*
X-5886658Y-5118100D02*
G01*
X-5966658Y-5118100D01*
D17*
X-5581601Y-5118100D02*
G01*
X-5721601Y-5118100D01*
X-5581695Y-4967986D02*
G01*
X-5701695Y-4967986D01*
X-5581695Y-5268213D02*
G01*
X-5701695Y-5268213D01*
D20*
X-9657689Y-4746950D02*
G01*
X-9657689Y-4866949D01*
X-9577679Y-4746950D02*
G01*
X-9577679Y-4866949D01*
X-9497669Y-4746950D02*
G01*
X-9497669Y-4866949D01*
X-9417659Y-4746950D02*
G01*
X-9417659Y-4866949D01*
X-9337903Y-4746950D02*
G01*
X-9337903Y-4866949D01*
X-9257893Y-4746950D02*
G01*
X-9257893Y-4866949D01*
X-9177883Y-4746950D02*
G01*
X-9177883Y-4866949D01*
X-9097873Y-4746950D02*
G01*
X-9097873Y-4866949D01*
X-9001409Y-4964429D02*
G01*
X-8881409Y-4964429D01*
X-9001409Y-5044439D02*
G01*
X-8881409Y-5044439D01*
X-9001409Y-5124450D02*
G01*
X-8881409Y-5124450D01*
X-9001409Y-5204460D02*
G01*
X-8881409Y-5204460D01*
X-9001409Y-5284215D02*
G01*
X-8881409Y-5284215D01*
X-9001409Y-5364226D02*
G01*
X-8881409Y-5364226D01*
X-9001409Y-5444236D02*
G01*
X-8881409Y-5444236D01*
X-9001409Y-5524245D02*
G01*
X-8881409Y-5524245D01*
X-9098889Y-5623250D02*
G01*
X-9098889Y-5743249D01*
X-9178899Y-5623250D02*
G01*
X-9178899Y-5743249D01*
X-9258909Y-5623250D02*
G01*
X-9258909Y-5743249D01*
X-9338919Y-5623250D02*
G01*
X-9338919Y-5743249D01*
X-9418675Y-5623250D02*
G01*
X-9418675Y-5743249D01*
X-9498685Y-5623250D02*
G01*
X-9498685Y-5743249D01*
X-9578695Y-5623250D02*
G01*
X-9578695Y-5743249D01*
X-9658705Y-5623250D02*
G01*
X-9658705Y-5743249D01*
X-9875169Y-5523229D02*
G01*
X-9755169Y-5523229D01*
X-9875169Y-5443220D02*
G01*
X-9755169Y-5443220D01*
X-9875169Y-5363210D02*
G01*
X-9755169Y-5363210D01*
X-9875169Y-5283200D02*
G01*
X-9755169Y-5283200D01*
X-9875169Y-5203444D02*
G01*
X-9755169Y-5203444D01*
X-9875169Y-5123434D02*
G01*
X-9755169Y-5123434D01*
X-9875169Y-5043423D02*
G01*
X-9755169Y-5043423D01*
X-9875169Y-4963413D02*
G01*
X-9755169Y-4963413D01*
D19*
X-5224556Y-5118100D02*
G01*
X-5374556Y-5118100D01*
D17*
X-4989527Y-5118100D02*
G01*
X-5129527Y-5118100D01*
X-4989621Y-4967986D02*
G01*
X-5109621Y-4967986D01*
X-4989621Y-5268213D02*
G01*
X-5109621Y-5268213D01*
D22*
G01*
X-7790002Y-4700015D03*
G36*
X-8217197Y-5621898D02*
G01*
X-8117197Y-5621898D01*
X-8117197Y-5731901D01*
X-8217197Y-5731901D01*
G37*
G36*
X-8037187Y-5621898D02*
G01*
X-7937187Y-5621898D01*
X-7937187Y-5731901D01*
X-8037187Y-5731901D01*
G37*
D24*
G01*
X-9568789Y-6036310D03*
G01*
X-9568789Y-5876315D03*
G01*
X-9352889Y-6036310D03*
G01*
X-9352889Y-5876315D03*
D25*
G01*
X-8877300Y-7001611D03*
G01*
X-8877300Y-7171613D03*
G01*
X-8610600Y-7001611D03*
G01*
X-8610600Y-7171613D03*
D26*
G01*
X-8463889Y-4437405D03*
G01*
X-8463889Y-4757420D03*
G36*
X-8506091Y-4032498D02*
G01*
X-8386091Y-4032498D01*
X-8386091Y-4222501D01*
X-8506091Y-4222501D01*
G37*
G36*
X-8186077Y-4032498D02*
G01*
X-8066077Y-4032498D01*
X-8066077Y-4222501D01*
X-8186077Y-4222501D01*
G37*
D28*
G01*
X-4131589Y-5346700D03*
G01*
X-3931589Y-5346700D03*
G01*
X-3687089Y-5346700D03*
G01*
X-3487089Y-5346700D03*
D29*
G01*
X-4031589Y-5776899D03*
G01*
X-4031589Y-5576900D03*
G01*
X-3688689Y-5576900D03*
G01*
X-3688689Y-5776899D03*
D24*
G01*
X-4374489Y-5332907D03*
G01*
X-4374489Y-5512917D03*
G01*
X-3434689Y-5586907D03*
G01*
X-3434689Y-5766917D03*
G01*
X-3066389Y-6379210D03*
G01*
X-3066389Y-6219215D03*
D25*
G01*
X-3066389Y-6607911D03*
G01*
X-3066389Y-6777913D03*
D28*
G01*
X-6455689Y-6172200D03*
G01*
X-6255689Y-6172200D03*
G01*
X-6900189Y-6197600D03*
G01*
X-6700189Y-6197600D03*
D29*
G01*
X-6444589Y-6415100D03*
G01*
X-6444589Y-6615099D03*
G01*
X-6952589Y-6415100D03*
G01*
X-6952589Y-6615099D03*
D24*
G01*
X-6190589Y-6412407D03*
G01*
X-6190589Y-6592417D03*
G01*
X-6698589Y-6412407D03*
G01*
X-6698589Y-6592417D03*
D28*
G01*
X-7484389Y-6172200D03*
G01*
X-7284389Y-6172200D03*
D29*
G01*
X-7612989Y-6402400D03*
G01*
X-7612989Y-6602399D03*
D24*
G01*
X-7358989Y-6412407D03*
G01*
X-7358989Y-6592417D03*
D30*
G01*
X-7549489Y-5882004D03*
G01*
X-7549489Y-5421020D03*
D24*
G01*
X-7206589Y-5919292D03*
G01*
X-7206589Y-5739282D03*
G01*
X-6317589Y-5371007D03*
G01*
X-6317589Y-5551017D03*
D31*
G01*
X-7198969Y-5448300D03*
D32*
G01*
X-6579209Y-5218303D03*
G01*
X-6579209Y-5448300D03*
G01*
X-6579209Y-5678296D03*
D24*
G01*
X-5339689Y-6049010D03*
G01*
X-5339689Y-5889015D03*
D29*
G01*
X-272389Y-5348300D03*
G01*
X-272389Y-5548299D03*
D33*
G01*
X-12616789Y-2392705D03*
G01*
X-12616789Y-2712720D03*
G01*
X-12324689Y-2392705D03*
G01*
X-12324689Y-2712720D03*
G01*
X-12032589Y-2392705D03*
G01*
X-12032589Y-2712720D03*
G01*
X-11740489Y-2392705D03*
G01*
X-11740489Y-2712720D03*
G36*
X-7290884Y-4072498D02*
G01*
X-7190884Y-4072498D01*
X-7190884Y-4182501D01*
X-7290884Y-4182501D01*
G37*
G36*
X-7450884Y-4072498D02*
G01*
X-7350884Y-4072498D01*
X-7350884Y-4182501D01*
X-7450884Y-4182501D01*
G37*
D24*
G01*
X-9670313Y-4575810D03*
G01*
X-9670313Y-4415815D03*
G01*
X-4514189Y-6549389D03*
G01*
X-4514189Y-6709384D03*
G01*
X-11194389Y-5274310D03*
G01*
X-11194389Y-5114315D03*
D23*
G01*
X-7413523Y-3644900D03*
G01*
X-7253528Y-3644900D03*
D34*
G01*
X-6317589Y-4135120D03*
G01*
X-6317589Y-4739639D03*
G36*
X-7473589Y-3831198D02*
G01*
X-7373589Y-3831198D01*
X-7373589Y-3941201D01*
X-7473589Y-3941201D01*
G37*
G36*
X-7293579Y-3831198D02*
G01*
X-7193579Y-3831198D01*
X-7193579Y-3941201D01*
X-7293579Y-3941201D01*
G37*
D24*
G01*
X-8781389Y-4080510D03*
G01*
X-8781389Y-3920515D03*
D35*
G01*
X-6901891Y-4635500D03*
G01*
X-7231887Y-4635500D03*
D24*
G01*
X-8178800Y-6528892D03*
G01*
X-8178800Y-6348882D03*
G01*
X-10406989Y-4951907D03*
G01*
X-10406989Y-5131917D03*
G01*
X-10610189Y-4951907D03*
G01*
X-10610189Y-5131917D03*
G36*
X-7740289Y-5101198D02*
G01*
X-7640289Y-5101198D01*
X-7640289Y-5211201D01*
X-7740289Y-5211201D01*
G37*
G36*
X-7560279Y-5101198D02*
G01*
X-7460279Y-5101198D01*
X-7460279Y-5211201D01*
X-7560279Y-5211201D01*
G37*
G01*
X-7937500Y-6348907D03*
G01*
X-7937500Y-6528917D03*
G36*
X-5873389Y-5710798D02*
G01*
X-5773389Y-5710798D01*
X-5773389Y-5820801D01*
X-5873389Y-5820801D01*
G37*
G36*
X-5693379Y-5710798D02*
G01*
X-5593379Y-5710798D01*
X-5593379Y-5820801D01*
X-5693379Y-5820801D01*
G37*
G01*
X-6647789Y-4674692D03*
G01*
X-6647789Y-4494682D03*
G01*
X-8654389Y-5614492D03*
G01*
X-8654389Y-5434482D03*
D29*
G01*
X-8425789Y-5424500D03*
G01*
X-8425789Y-5624499D03*
D36*
G01*
X-10245699Y-5465292D03*
G36*
X-10143190Y-5755317D02*
G01*
X-10143200Y-5651510D01*
X-10105301Y-5615310D01*
X-10028189Y-5615317D01*
X-10028189Y-5755317D01*
G37*
G01*
X-10245699Y-5685307D03*
G01*
X-10085679Y-5465292D03*
G36*
X-5870691Y-5916899D02*
G01*
X-5770692Y-5916899D01*
X-5770692Y-6071900D01*
X-5870691Y-6071900D01*
G37*
G36*
X-5670692Y-5916899D02*
G01*
X-5570692Y-5916899D01*
X-5570692Y-6071900D01*
X-5670692Y-6071900D01*
G37*
D37*
G01*
X-9245600Y-6477000D03*
G01*
X-9245600Y-7188200D03*
G01*
X-9740900Y-6477000D03*
G01*
X-9740900Y-7188200D03*
G01*
X-10236200Y-6477000D03*
G01*
X-10236200Y-7188200D03*
D38*
G01*
X-8222894Y-5289804D03*
G01*
X-8222894Y-5384800D03*
G01*
X-8222894Y-5479795D03*
G36*
X-7992892Y-5449801D02*
G01*
X-7892892Y-5449801D01*
X-7892892Y-5509801D01*
X-7992892Y-5509801D01*
G37*
G36*
X-7992892Y-5259798D02*
G01*
X-7892892Y-5259798D01*
X-7892892Y-5319798D01*
X-7992892Y-5319798D01*
G37*
D24*
G01*
X-5060289Y-6526707D03*
G01*
X-5060289Y-6706717D03*
G01*
X-4298365Y-5764707D03*
G01*
X-4298365Y-5944717D03*
G01*
X-9416389Y-4415789D03*
G01*
X-9416389Y-4575784D03*
G01*
X-10160000Y-6054089D03*
G01*
X-10160000Y-6214084D03*
G01*
X-10375900Y-6054089D03*
G01*
X-10375900Y-6214084D03*
G36*
X-12510584Y-6942698D02*
G01*
X-12410584Y-6942698D01*
X-12410584Y-7052701D01*
X-12510584Y-7052701D01*
G37*
G36*
X-12670584Y-6942698D02*
G01*
X-12570584Y-6942698D01*
X-12570584Y-7052701D01*
X-12670584Y-7052701D01*
G37*
G36*
X-12510584Y-7145898D02*
G01*
X-12410584Y-7145898D01*
X-12410584Y-7255901D01*
X-12510584Y-7255901D01*
G37*
G36*
X-12670584Y-7145898D02*
G01*
X-12570584Y-7145898D01*
X-12570584Y-7255901D01*
X-12670584Y-7255901D01*
G37*
G01*
X-4806365Y-5934710D03*
G01*
X-4806365Y-5774715D03*
G01*
X-4552365Y-5774689D03*
G01*
X-4552365Y-5934684D03*
G01*
X-4806289Y-6696710D03*
G01*
X-4806289Y-6536715D03*
G01*
X-5047665Y-5934710D03*
G01*
X-5047665Y-5774715D03*
G36*
X-12510584Y-6739498D02*
G01*
X-12410584Y-6739498D01*
X-12410584Y-6849501D01*
X-12510584Y-6849501D01*
G37*
G36*
X-12670584Y-6739498D02*
G01*
X-12570584Y-6739498D01*
X-12570584Y-6849501D01*
X-12670584Y-6849501D01*
G37*
G01*
X-4514189Y-6168389D03*
G01*
X-4514189Y-6328384D03*
G36*
X-12510584Y-6485498D02*
G01*
X-12410584Y-6485498D01*
X-12410584Y-6595501D01*
X-12510584Y-6595501D01*
G37*
G36*
X-12670584Y-6485498D02*
G01*
X-12570584Y-6485498D01*
X-12570584Y-6595501D01*
X-12670584Y-6595501D01*
G37*
G01*
X-8178800Y-5876289D03*
G01*
X-8178800Y-6036284D03*
G01*
X-7950200Y-5876289D03*
G01*
X-7950200Y-6036284D03*
D23*
G01*
X-8175599Y-5092700D03*
G01*
X-8015604Y-5092700D03*
D24*
G01*
X-3866489Y-6379210D03*
G01*
X-3866489Y-6219215D03*
G01*
X-3599789Y-6379210D03*
G01*
X-3599789Y-6219215D03*
G01*
X-3333089Y-6379210D03*
G01*
X-3333089Y-6219215D03*
D39*
G01*
X-6838289Y-4088714D03*
G01*
X-6838289Y-3683711D03*
D25*
G01*
X-3866489Y-6607911D03*
G01*
X-3866489Y-6777913D03*
G01*
X-3599789Y-6607911D03*
G01*
X-3599789Y-6777913D03*
G01*
X-3333089Y-6607911D03*
G01*
X-3333089Y-6777913D03*
G36*
X-5124592Y-4646899D02*
G01*
X-5024592Y-4646899D01*
X-5024592Y-4801900D01*
X-5124592Y-4801900D01*
G37*
G36*
X-5324591Y-4646899D02*
G01*
X-5224592Y-4646899D01*
X-5224592Y-4801900D01*
X-5324591Y-4801900D01*
G37*
G36*
X-12297666Y-7163963D02*
G01*
X-12097666Y-7163963D01*
X-12097666Y-7263963D01*
X-12297666Y-7263963D01*
G37*
G36*
X-12297641Y-6963963D02*
G01*
X-12097641Y-6963963D01*
X-12097641Y-7063963D01*
X-12297641Y-7063963D01*
G37*
G36*
X-12297666Y-6763964D02*
G01*
X-12097666Y-6763964D01*
X-12097666Y-6863963D01*
X-12297666Y-6863963D01*
G37*
G36*
X-12297590Y-6563964D02*
G01*
X-12097590Y-6563964D01*
X-12097590Y-6663964D01*
X-12297590Y-6663964D01*
G37*
G36*
X-12297666Y-6363964D02*
G01*
X-12097666Y-6363964D01*
X-12097666Y-6463964D01*
X-12297666Y-6463964D01*
G37*
G36*
X-12297742Y-6163962D02*
G01*
X-12097743Y-6163962D01*
X-12097743Y-6263962D01*
X-12297742Y-6263962D01*
G37*
G36*
X-12297615Y-5963963D02*
G01*
X-12097616Y-5963963D01*
X-12097616Y-6063962D01*
X-12297615Y-6063962D01*
G37*
G36*
X-12297463Y-5763963D02*
G01*
X-12097463Y-5763963D01*
X-12097463Y-5863963D01*
X-12297463Y-5863963D01*
G37*
D41*
G01*
X-11897283Y-5663869D03*
G01*
X-11697284Y-5663945D03*
G01*
X-11497360Y-5663945D03*
G01*
X-11297285Y-5663945D03*
G01*
X-11097412Y-5663996D03*
G01*
X-10897615Y-5663844D03*
D40*
G01*
X-10597514Y-5813958D03*
G01*
X-10597438Y-6013957D03*
G01*
X-10597438Y-6213957D03*
G01*
X-10597438Y-6413957D03*
G01*
X-10597438Y-6613956D03*
G01*
X-10597438Y-6813956D03*
G01*
X-10597438Y-7013955D03*
G01*
X-10597438Y-7213955D03*
G36*
X-5125356Y-6182197D02*
G01*
X-5003358Y-6182197D01*
X-5003358Y-6222197D01*
X-5125356Y-6222197D01*
G37*
G36*
X-5125356Y-6246205D02*
G01*
X-5003358Y-6246205D01*
X-5003358Y-6286205D01*
X-5125356Y-6286205D01*
G37*
G36*
X-5125356Y-6312194D02*
G01*
X-5003358Y-6312194D01*
X-5003358Y-6352194D01*
X-5125356Y-6352194D01*
G37*
G36*
X-5125356Y-6376202D02*
G01*
X-5003358Y-6376202D01*
X-5003358Y-6416202D01*
X-5125356Y-6416202D01*
G37*
G36*
X-4863355Y-6376202D02*
G01*
X-4741357Y-6376202D01*
X-4741357Y-6416202D01*
X-4863355Y-6416202D01*
G37*
G36*
X-4863355Y-6312194D02*
G01*
X-4741357Y-6312194D01*
X-4741357Y-6352194D01*
X-4863355Y-6352194D01*
G37*
G36*
X-4863355Y-6246205D02*
G01*
X-4741357Y-6246205D01*
X-4741357Y-6286205D01*
X-4863355Y-6286205D01*
G37*
G36*
X-4863355Y-6182197D02*
G01*
X-4741357Y-6182197D01*
X-4741357Y-6222197D01*
X-4863355Y-6222197D01*
G37*
G36*
X-5124599Y-4367499D02*
G01*
X-5024600Y-4367499D01*
X-5024600Y-4522500D01*
X-5124599Y-4522500D01*
G37*
G36*
X-5324599Y-4367499D02*
G01*
X-5224599Y-4367499D01*
X-5224599Y-4522500D01*
X-5324599Y-4522500D01*
G37*
D28*
G01*
X-5274589Y-4165600D03*
G01*
X-5074589Y-4165600D03*
D29*
G01*
X-11194389Y-4951399D03*
G01*
X-11194389Y-4751400D03*
D24*
G01*
X-2672689Y-6808292D03*
G01*
X-2672689Y-6628282D03*
G01*
X-8781389Y-4560392D03*
G01*
X-8781389Y-4380382D03*
D29*
G01*
X-9035389Y-4370400D03*
G01*
X-9035389Y-4570399D03*
G01*
X-2489200Y-6605600D03*
G01*
X-2489200Y-6805599D03*
D43*
G01*
X-5339689Y-6515100D03*
G01*
X-5822289Y-6515100D03*
D24*
G01*
X-2298700Y-6798310D03*
G01*
X-2298700Y-6638315D03*
M02*
