G04 Layer: TopSilkLayer*
G04 EasyEDA v6.3.43, 2020-05-26T13:53:52+10:00*
G04 dfe334f236054c1482959114e70a1c8d,8629367194b24dd88a5c18b2f13758b0,10*
G04 Gerber Generator version 0.2*
G04 Scale: 100 percent, Rotated: No, Reflected: No *
G04 Dimensions in millimeters *
G04 leading zeros omitted , absolute positions ,3 integer and 3 decimal *
%FSLAX33Y33*%
%MOMM*%
G90*
G71D02*

%ADD10C,0.254000*%
%ADD15C,0.299999*%
%ADD34C,0.203200*%
%ADD35C,0.202999*%
%ADD36C,0.100000*%
%ADD37C,0.399999*%
%ADD38C,0.150012*%
%ADD39C,0.152400*%

%LPD*%
G54D10*
G01X37088Y39700D02*
G01X57907Y39700D01*
G01X57907Y39700D02*
G01X57907Y37261D01*
G01X57907Y37261D02*
G01X37088Y37261D01*
G01X37088Y37261D02*
G01X37088Y39700D01*
G54D34*
G01X53340Y762D02*
G01X55245Y762D01*
G01X55245Y3302D01*
G01X40005Y3302D01*
G01X40005Y762D01*
G54D35*
G01X40005Y762D02*
G01X53340Y762D01*
G54D10*
G01X91097Y6248D02*
G01X89496Y6248D01*
G01X89502Y4398D02*
G01X89502Y3148D01*
G01X91102Y4398D02*
G01X91102Y3148D01*
G01X89496Y4998D02*
G01X89496Y6248D01*
G01X91097Y4998D02*
G01X91097Y6248D01*
G01X91102Y3148D02*
G01X89502Y3148D01*
G01X87083Y3149D02*
G01X88684Y3149D01*
G01X88678Y4999D02*
G01X88678Y6249D01*
G01X87078Y4999D02*
G01X87078Y6249D01*
G01X88684Y4399D02*
G01X88684Y3149D01*
G01X87083Y4399D02*
G01X87083Y3149D01*
G01X87078Y6249D02*
G01X88678Y6249D01*
G54D34*
G01X73279Y889D02*
G01X75184Y889D01*
G01X75184Y3429D01*
G01X59944Y3429D01*
G01X59944Y889D01*
G54D35*
G01X59944Y889D02*
G01X73279Y889D01*
G54D10*
G01X80607Y3149D02*
G01X82207Y3149D01*
G01X82202Y4999D02*
G01X82202Y6249D01*
G01X80602Y4999D02*
G01X80602Y6249D01*
G01X82207Y4399D02*
G01X82207Y3149D01*
G01X80607Y4399D02*
G01X80607Y3149D01*
G01X80602Y6249D02*
G01X82202Y6249D01*
G01X34187Y34180D02*
G01X37186Y34180D01*
G01X34187Y27540D02*
G01X37186Y27540D01*
G01X37466Y32261D02*
G01X37467Y33960D01*
G01X33907Y32261D02*
G01X33906Y33960D01*
G01X37466Y29461D02*
G01X37466Y27761D01*
G01X33907Y29461D02*
G01X33907Y27761D01*
G01X34127Y34180D02*
G01X34187Y34180D01*
G01X37246Y34180D02*
G01X37186Y34180D01*
G01X34127Y27540D02*
G01X34187Y27540D01*
G01X37246Y27540D02*
G01X37060Y27540D01*
G01X64491Y4681D02*
G01X61492Y4681D01*
G01X64491Y11321D02*
G01X61492Y11321D01*
G01X61212Y6600D02*
G01X61211Y4901D01*
G01X64771Y6600D02*
G01X64772Y4901D01*
G01X61212Y9400D02*
G01X61212Y11100D01*
G01X64771Y9400D02*
G01X64771Y11100D01*
G01X64551Y4681D02*
G01X64491Y4681D01*
G01X61432Y4681D02*
G01X61492Y4681D01*
G01X64551Y11321D02*
G01X64491Y11321D01*
G01X61432Y11321D02*
G01X61618Y11321D01*
G01X86716Y20556D02*
G01X83717Y20556D01*
G01X86716Y27196D02*
G01X83717Y27196D01*
G01X83437Y22475D02*
G01X83436Y20776D01*
G01X86996Y22475D02*
G01X86997Y20776D01*
G01X83437Y25275D02*
G01X83437Y26975D01*
G01X86996Y25275D02*
G01X86996Y26975D01*
G01X86776Y20556D02*
G01X86716Y20556D01*
G01X83657Y20556D02*
G01X83717Y20556D01*
G01X86776Y27196D02*
G01X86716Y27196D01*
G01X83657Y27196D02*
G01X83843Y27196D01*
G01X70968Y4681D02*
G01X67969Y4681D01*
G01X70968Y11321D02*
G01X67969Y11321D01*
G01X67689Y6600D02*
G01X67688Y4901D01*
G01X71248Y6600D02*
G01X71249Y4901D01*
G01X67689Y9400D02*
G01X67689Y11100D01*
G01X71248Y9400D02*
G01X71248Y11100D01*
G01X71028Y4681D02*
G01X70968Y4681D01*
G01X67909Y4681D02*
G01X67969Y4681D01*
G01X71028Y11321D02*
G01X70968Y11321D01*
G01X67909Y11321D02*
G01X68095Y11321D01*
G01X77572Y4681D02*
G01X74573Y4681D01*
G01X77572Y11321D02*
G01X74573Y11321D01*
G01X74293Y6600D02*
G01X74292Y4901D01*
G01X77852Y6600D02*
G01X77853Y4901D01*
G01X74293Y9400D02*
G01X74293Y11100D01*
G01X77852Y9400D02*
G01X77852Y11100D01*
G01X77632Y4681D02*
G01X77572Y4681D01*
G01X74513Y4681D02*
G01X74573Y4681D01*
G01X77632Y11321D02*
G01X77572Y11321D01*
G01X74513Y11321D02*
G01X74699Y11321D01*
G01X32233Y27541D02*
G01X29234Y27541D01*
G01X32233Y34181D02*
G01X29234Y34181D01*
G01X28954Y29460D02*
G01X28953Y27761D01*
G01X32513Y29460D02*
G01X32514Y27761D01*
G01X28954Y32260D02*
G01X28954Y33960D01*
G01X32513Y32260D02*
G01X32513Y33960D01*
G01X32293Y27541D02*
G01X32233Y27541D01*
G01X29174Y27541D02*
G01X29234Y27541D01*
G01X32293Y34181D02*
G01X32233Y34181D01*
G01X29174Y34181D02*
G01X29360Y34181D01*
G01X73770Y29973D02*
G01X75871Y29973D01*
G01X75871Y20572D01*
G01X69670Y20572D01*
G01X69670Y29973D01*
G01X71771Y29973D01*
G01X42078Y14576D02*
G01X42078Y20475D01*
G01X36178Y20475D01*
G01X36178Y14576D01*
G01X42078Y14576D01*
G01X50523Y4705D02*
G01X54123Y4705D01*
G01X50523Y11804D02*
G01X54123Y11804D01*
G01X50523Y11804D02*
G01X50523Y10120D01*
G01X50523Y6389D02*
G01X50523Y4705D01*
G01X54123Y11804D02*
G01X54123Y11220D01*
G01X54123Y9889D02*
G01X54123Y8920D01*
G01X54123Y7589D02*
G01X54123Y6620D01*
G01X54123Y5289D02*
G01X54123Y4705D01*
G01X6525Y1318D02*
G01X12525Y1318D01*
G01X6525Y7317D02*
G01X12524Y7317D01*
G01X12525Y1317D02*
G01X12525Y7317D01*
G01X6525Y1317D02*
G01X6525Y7317D01*
G01X17955Y1318D02*
G01X23955Y1318D01*
G01X17955Y7317D02*
G01X23954Y7317D01*
G01X23955Y1317D02*
G01X23955Y7317D01*
G01X17955Y1317D02*
G01X17955Y7317D01*
G01X29385Y1318D02*
G01X35385Y1318D01*
G01X29385Y7317D02*
G01X35384Y7317D01*
G01X35385Y1317D02*
G01X35385Y7317D01*
G01X29385Y1317D02*
G01X29385Y7317D01*
G01X34976Y26049D02*
G01X34976Y24750D01*
G01X38175Y24750D02*
G01X38175Y26049D01*
G01X37293Y24750D02*
G01X37057Y24750D01*
G01X36094Y24750D02*
G01X35858Y24750D01*
G01X37293Y26049D02*
G01X37057Y26049D01*
G01X36094Y26049D02*
G01X35858Y26049D01*
G01X83058Y11277D02*
G01X82956Y11277D01*
G01X82270Y11734D02*
G01X83845Y11734D01*
G01X82270Y7823D02*
G01X83845Y7823D01*
G54D36*
G01X90033Y8328D02*
G01X88273Y8328D01*
G01X88273Y10779D01*
G01X88722Y11229D01*
G01X90033Y11229D01*
G01X90033Y8328D01*
G54D10*
G01X43949Y28578D02*
G01X42699Y28578D01*
G01X43949Y26539D02*
G01X42699Y26539D01*
G01X44949Y28578D02*
G01X46199Y28578D01*
G01X44949Y26539D02*
G01X46199Y26539D01*
G01X42699Y28578D02*
G01X42699Y26539D01*
G01X46199Y28578D02*
G01X46199Y26539D01*
G01X50537Y26539D02*
G01X51787Y26539D01*
G01X50537Y28578D02*
G01X51787Y28578D01*
G01X49537Y26539D02*
G01X48287Y26539D01*
G01X49537Y28578D02*
G01X48287Y28578D01*
G01X51787Y26539D02*
G01X51787Y28578D01*
G01X48287Y26539D02*
G01X48287Y28578D01*
G01X46266Y32283D02*
G01X44665Y32283D01*
G01X44671Y30433D02*
G01X44671Y29183D01*
G01X46271Y30433D02*
G01X46271Y29183D01*
G01X44665Y31033D02*
G01X44665Y32283D01*
G01X46266Y31033D02*
G01X46266Y32283D01*
G01X46271Y29183D02*
G01X44671Y29183D01*
G01X49822Y32283D02*
G01X48221Y32283D01*
G01X48227Y30433D02*
G01X48227Y29183D01*
G01X49827Y30433D02*
G01X49827Y29183D01*
G01X48221Y31033D02*
G01X48221Y32283D01*
G01X49822Y31033D02*
G01X49822Y32283D01*
G01X49827Y29183D02*
G01X48227Y29183D01*
G01X91982Y6349D02*
G01X93182Y6349D01*
G01X91782Y4299D02*
G01X91782Y3299D01*
G01X93383Y4299D02*
G01X93383Y3299D01*
G01X91782Y5099D02*
G01X91782Y6098D01*
G01X93383Y5099D02*
G01X93383Y6098D01*
G01X91982Y3048D02*
G01X93182Y3048D01*
G01X91782Y3248D02*
G01X91782Y3299D01*
G01X93383Y3249D02*
G01X93383Y3299D01*
G01X91782Y6149D02*
G01X91782Y6098D01*
G01X93383Y6148D02*
G01X93383Y6098D01*
G01X85055Y3048D02*
G01X83855Y3048D01*
G01X85255Y5098D02*
G01X85255Y6098D01*
G01X83654Y5098D02*
G01X83654Y6098D01*
G01X85255Y4298D02*
G01X85255Y3299D01*
G01X83654Y4298D02*
G01X83654Y3299D01*
G01X85055Y6349D02*
G01X83855Y6349D01*
G01X85255Y6149D02*
G01X85255Y6098D01*
G01X83654Y6148D02*
G01X83654Y6098D01*
G01X85255Y3248D02*
G01X85255Y3299D01*
G01X83654Y3249D02*
G01X83654Y3299D01*
G01X87591Y13182D02*
G01X89192Y13182D01*
G01X89186Y15032D02*
G01X89186Y16282D01*
G01X87586Y15032D02*
G01X87586Y16282D01*
G01X89192Y14432D02*
G01X89192Y13182D01*
G01X87591Y14432D02*
G01X87591Y13182D01*
G01X87586Y16282D02*
G01X89186Y16282D01*
G01X92748Y16154D02*
G01X91147Y16154D01*
G01X91153Y14304D02*
G01X91153Y13054D01*
G01X92753Y14304D02*
G01X92753Y13054D01*
G01X91147Y14904D02*
G01X91147Y16154D01*
G01X92748Y14904D02*
G01X92748Y16154D01*
G01X92753Y13054D02*
G01X91153Y13054D01*
G01X59274Y4445D02*
G01X58074Y4445D01*
G01X59474Y6495D02*
G01X59474Y7495D01*
G01X57873Y6495D02*
G01X57873Y7495D01*
G01X59474Y5695D02*
G01X59474Y4696D01*
G01X57873Y5695D02*
G01X57873Y4696D01*
G01X59274Y7746D02*
G01X58074Y7746D01*
G01X59474Y7546D02*
G01X59474Y7495D01*
G01X57873Y7545D02*
G01X57873Y7495D01*
G01X59474Y4645D02*
G01X59474Y4696D01*
G01X57873Y4646D02*
G01X57873Y4696D01*
G01X39531Y27304D02*
G01X40731Y27304D01*
G01X39331Y25254D02*
G01X39331Y24254D01*
G01X40932Y25254D02*
G01X40932Y24254D01*
G01X39331Y26054D02*
G01X39331Y27053D01*
G01X40932Y26054D02*
G01X40932Y27053D01*
G01X39531Y24003D02*
G01X40731Y24003D01*
G01X39331Y24203D02*
G01X39331Y24254D01*
G01X40932Y24204D02*
G01X40932Y24254D01*
G01X39331Y27104D02*
G01X39331Y27053D01*
G01X40932Y27103D02*
G01X40932Y27053D01*
G01X27905Y31623D02*
G01X26705Y31623D01*
G01X28105Y33673D02*
G01X28105Y34673D01*
G01X26505Y33673D02*
G01X26505Y34673D01*
G01X28105Y32873D02*
G01X28105Y31874D01*
G01X26505Y32873D02*
G01X26505Y31874D01*
G01X27905Y34924D02*
G01X26705Y34924D01*
G01X28105Y34724D02*
G01X28105Y34673D01*
G01X26505Y34723D02*
G01X26505Y34673D01*
G01X28105Y31823D02*
G01X28105Y31874D01*
G01X26505Y31824D02*
G01X26505Y31874D01*
G01X80552Y24256D02*
G01X81752Y24256D01*
G01X80352Y22206D02*
G01X80352Y21206D01*
G01X81953Y22206D02*
G01X81953Y21206D01*
G01X80352Y23006D02*
G01X80352Y24005D01*
G01X81953Y23006D02*
G01X81953Y24005D01*
G01X80552Y20955D02*
G01X81752Y20955D01*
G01X80352Y21155D02*
G01X80352Y21206D01*
G01X81953Y21156D02*
G01X81953Y21206D01*
G01X80352Y24056D02*
G01X80352Y24005D01*
G01X81953Y24055D02*
G01X81953Y24005D01*
G01X46135Y9143D02*
G01X47335Y9143D01*
G01X45935Y7093D02*
G01X45935Y6093D01*
G01X47536Y7093D02*
G01X47536Y6093D01*
G01X45935Y7893D02*
G01X45935Y8892D01*
G01X47536Y7893D02*
G01X47536Y8892D01*
G01X46135Y5842D02*
G01X47335Y5842D01*
G01X45935Y6042D02*
G01X45935Y6093D01*
G01X47536Y6043D02*
G01X47536Y6093D01*
G01X45935Y8943D02*
G01X45935Y8892D01*
G01X47536Y8942D02*
G01X47536Y8892D01*
G01X47917Y17043D02*
G01X46317Y17043D01*
G01X46322Y15193D02*
G01X46322Y13943D01*
G01X47922Y15193D02*
G01X47922Y13943D01*
G01X46317Y15793D02*
G01X46317Y17043D01*
G01X47917Y15793D02*
G01X47917Y17043D01*
G01X47922Y13943D02*
G01X46322Y13943D01*
G01X11722Y11836D02*
G01X10122Y11836D01*
G01X10127Y9986D02*
G01X10127Y8736D01*
G01X11727Y9986D02*
G01X11727Y8736D01*
G01X10122Y10586D02*
G01X10122Y11836D01*
G01X11722Y10586D02*
G01X11722Y11836D01*
G01X11727Y8736D02*
G01X10127Y8736D01*
G01X15405Y11836D02*
G01X13805Y11836D01*
G01X13810Y9986D02*
G01X13810Y8736D01*
G01X15410Y9986D02*
G01X15410Y8736D01*
G01X13805Y10586D02*
G01X13805Y11836D01*
G01X15405Y10586D02*
G01X15405Y11836D01*
G01X15410Y8736D02*
G01X13810Y8736D01*
G01X17818Y34823D02*
G01X16218Y34823D01*
G01X16223Y32973D02*
G01X16223Y31723D01*
G01X17823Y32973D02*
G01X17823Y31723D01*
G01X16218Y33573D02*
G01X16218Y34823D01*
G01X17818Y33573D02*
G01X17818Y34823D01*
G01X17823Y31723D02*
G01X16223Y31723D01*
G01X14643Y34823D02*
G01X13042Y34823D01*
G01X13048Y32973D02*
G01X13048Y31723D01*
G01X14648Y32973D02*
G01X14648Y31723D01*
G01X13042Y33573D02*
G01X13042Y34823D01*
G01X14643Y33573D02*
G01X14643Y34823D01*
G01X14648Y31723D02*
G01X13048Y31723D01*
G01X47917Y21742D02*
G01X46317Y21742D01*
G01X46322Y19892D02*
G01X46322Y18642D01*
G01X47922Y19892D02*
G01X47922Y18642D01*
G01X46317Y20492D02*
G01X46317Y21742D01*
G01X47917Y20492D02*
G01X47917Y21742D01*
G01X47922Y18642D02*
G01X46322Y18642D01*
G01X20993Y34823D02*
G01X19392Y34823D01*
G01X19398Y32973D02*
G01X19398Y31723D01*
G01X20998Y32973D02*
G01X20998Y31723D01*
G01X19392Y33573D02*
G01X19392Y34823D01*
G01X20993Y33573D02*
G01X20993Y34823D01*
G01X20998Y31723D02*
G01X19398Y31723D01*
G01X63338Y16129D02*
G01X62138Y16129D01*
G01X63538Y18179D02*
G01X63538Y19179D01*
G01X61937Y18179D02*
G01X61937Y19179D01*
G01X63538Y17379D02*
G01X63538Y16380D01*
G01X61937Y17379D02*
G01X61937Y16380D01*
G01X63338Y19430D02*
G01X62138Y19430D01*
G01X63538Y19230D02*
G01X63538Y19179D01*
G01X61937Y19229D02*
G01X61937Y19179D01*
G01X63538Y16329D02*
G01X63538Y16380D01*
G01X61937Y16330D02*
G01X61937Y16380D01*
G01X55972Y16256D02*
G01X54772Y16256D01*
G01X56172Y18306D02*
G01X56172Y19306D01*
G01X54571Y18306D02*
G01X54571Y19306D01*
G01X56172Y17506D02*
G01X56172Y16507D01*
G01X54571Y17506D02*
G01X54571Y16507D01*
G01X55972Y19557D02*
G01X54772Y19557D01*
G01X56172Y19357D02*
G01X56172Y19306D01*
G01X54571Y19356D02*
G01X54571Y19306D01*
G01X56172Y16456D02*
G01X56172Y16507D01*
G01X54571Y16457D02*
G01X54571Y16507D01*
G01X57830Y16395D02*
G01X57830Y17259D01*
G01X57830Y19418D02*
G01X60830Y19418D01*
G01X60827Y16395D02*
G01X60827Y19395D01*
G01X57827Y16395D02*
G01X60827Y16395D01*
G01X57830Y18554D02*
G01X57830Y19418D01*
G01X50845Y16395D02*
G01X50845Y17259D01*
G01X50845Y19418D02*
G01X53845Y19418D01*
G01X53842Y16395D02*
G01X53842Y19395D01*
G01X50842Y16395D02*
G01X53842Y16395D01*
G01X50845Y18554D02*
G01X50845Y19418D01*
G01X11545Y15715D02*
G01X24545Y15715D01*
G01X24545Y27715D01*
G01X11545Y27715D01*
G01X11545Y15715D01*
G01X8545Y26715D02*
G01X8545Y16715D01*
G01X3545Y16715D01*
G01X3545Y17715D01*
G01X6545Y17715D01*
G01X6545Y18715D01*
G01X3545Y18715D01*
G01X3545Y19715D01*
G01X6545Y19715D01*
G01X6545Y20715D01*
G01X3545Y20715D01*
G01X3545Y21715D01*
G01X6545Y21715D01*
G01X6545Y22715D01*
G01X3545Y22715D01*
G01X3545Y28715D01*
G01X9545Y14715D02*
G01X9545Y28715D01*
G01X2545Y13715D02*
G01X2545Y29715D01*
G01X2545Y29715D02*
G01X10314Y29715D01*
G01X11776Y29715D02*
G01X12314Y29715D01*
G01X13776Y29715D02*
G01X14314Y29715D01*
G01X15776Y29715D02*
G01X16314Y29715D01*
G01X17776Y29715D02*
G01X18314Y29715D01*
G01X19776Y29715D02*
G01X20314Y29715D01*
G01X21776Y29715D02*
G01X22314Y29715D01*
G01X23776Y29715D02*
G01X24314Y29715D01*
G01X25776Y29715D02*
G01X26545Y29715D01*
G01X26545Y29715D02*
G01X26545Y27444D01*
G01X26545Y25982D02*
G01X26545Y25444D01*
G01X26545Y23982D02*
G01X26545Y23445D01*
G01X26545Y21983D02*
G01X26545Y21444D01*
G01X26545Y19982D02*
G01X26545Y19446D01*
G01X26545Y17983D02*
G01X26545Y17448D01*
G01X26545Y15985D02*
G01X26545Y13715D01*
G01X26545Y13715D02*
G01X25776Y13715D01*
G01X24314Y13715D02*
G01X23776Y13715D01*
G01X22314Y13715D02*
G01X21776Y13715D01*
G01X20314Y13715D02*
G01X19776Y13715D01*
G01X18314Y13715D02*
G01X17776Y13715D01*
G01X16314Y13715D02*
G01X15776Y13715D01*
G01X14314Y13715D02*
G01X13776Y13715D01*
G01X12314Y13715D02*
G01X11776Y13715D01*
G01X10314Y13715D02*
G01X2545Y13715D01*

%LPD*%
G36*
G01X41114Y624D02*
G01X41071Y624D01*
G01X41071Y254D01*
G01X41112Y254D01*
G01X41112Y457D01*
G01X41111Y485D01*
G01X41109Y543D01*
G01X41107Y571D01*
G01X41109Y571D01*
G01X41150Y495D01*
G01X41290Y254D01*
G01X41333Y254D01*
G01X41333Y624D01*
G01X41292Y624D01*
G01X41292Y424D01*
G01X41293Y395D01*
G01X41295Y366D01*
G01X41298Y337D01*
G01X41300Y309D01*
G01X41297Y309D01*
G01X41257Y386D01*
G01X41114Y624D01*
G37*

%LPD*%
G36*
G01X41610Y628D02*
G01X41579Y632D01*
G01X41514Y619D01*
G01X41461Y580D01*
G01X41427Y520D01*
G01X41414Y439D01*
G01X41426Y358D01*
G01X41460Y298D01*
G01X41511Y259D01*
G01X41574Y246D01*
G01X41609Y249D01*
G01X41639Y260D01*
G01X41666Y277D01*
G01X41689Y299D01*
G01X41666Y327D01*
G01X41646Y309D01*
G01X41625Y295D01*
G01X41602Y287D01*
G01X41577Y284D01*
G01X41527Y295D01*
G01X41489Y327D01*
G01X41466Y376D01*
G01X41457Y441D01*
G01X41466Y505D01*
G01X41491Y553D01*
G01X41529Y583D01*
G01X41579Y594D01*
G01X41603Y591D01*
G01X41623Y585D01*
G01X41641Y574D01*
G01X41656Y558D01*
G01X41678Y586D01*
G01X41661Y603D01*
G01X41637Y618D01*
G01X41610Y628D01*
G37*

%LPD*%

%LPD*%
G36*
G01X44152Y624D02*
G01X44061Y624D01*
G01X44061Y254D01*
G01X44155Y254D01*
G01X44229Y266D01*
G01X44283Y304D01*
G01X44316Y363D01*
G01X44328Y441D01*
G01X44316Y519D01*
G01X44283Y577D01*
G01X44228Y612D01*
G01X44152Y624D01*
G37*

%LPC*%
G36*
G01X44150Y591D02*
G01X44104Y591D01*
G01X44104Y289D01*
G01X44150Y289D01*
G01X44209Y299D01*
G01X44251Y329D01*
G01X44276Y377D01*
G01X44284Y441D01*
G01X44276Y504D01*
G01X44251Y552D01*
G01X44209Y581D01*
G01X44150Y591D01*
G37*

%LPD*%
G36*
G01X43787Y624D02*
G01X43741Y624D01*
G01X43842Y447D01*
G01X43733Y254D01*
G01X43776Y254D01*
G01X43832Y358D01*
G01X43840Y371D01*
G01X43848Y385D01*
G01X43855Y400D01*
G01X43863Y416D01*
G01X43865Y416D01*
G01X43874Y400D01*
G01X43883Y385D01*
G01X43891Y371D01*
G01X43954Y254D01*
G01X44002Y254D01*
G01X43893Y444D01*
G01X43995Y624D01*
G01X43952Y624D01*
G01X43898Y528D01*
G01X43884Y502D01*
G01X43870Y474D01*
G01X43868Y474D01*
G01X43854Y502D01*
G01X43840Y528D01*
G01X43787Y624D01*
G37*

%LPD*%
G36*
G01X43721Y624D02*
G01X43449Y624D01*
G01X43449Y589D01*
G01X43563Y589D01*
G01X43563Y254D01*
G01X43606Y254D01*
G01X43606Y589D01*
G01X43721Y589D01*
G01X43721Y624D01*
G37*

%LPD*%

%LPD*%
G36*
G01X46720Y624D02*
G01X46629Y624D01*
G01X46629Y254D01*
G01X46720Y254D01*
G01X46795Y266D01*
G01X46849Y304D01*
G01X46882Y363D01*
G01X46893Y441D01*
G01X46882Y519D01*
G01X46849Y577D01*
G01X46795Y612D01*
G01X46720Y624D01*
G37*

%LPC*%
G36*
G01X46715Y591D02*
G01X46669Y591D01*
G01X46669Y289D01*
G01X46715Y289D01*
G01X46775Y299D01*
G01X46817Y329D01*
G01X46842Y377D01*
G01X46850Y441D01*
G01X46842Y504D01*
G01X46817Y552D01*
G01X46775Y581D01*
G01X46715Y591D01*
G37*

%LPD*%
G36*
G01X46352Y624D02*
G01X46306Y624D01*
G01X46408Y447D01*
G01X46299Y254D01*
G01X46342Y254D01*
G01X46400Y358D01*
G01X46406Y371D01*
G01X46413Y385D01*
G01X46422Y400D01*
G01X46431Y416D01*
G01X46440Y400D01*
G01X46448Y385D01*
G01X46456Y371D01*
G01X46464Y358D01*
G01X46522Y254D01*
G01X46568Y254D01*
G01X46459Y444D01*
G01X46560Y624D01*
G01X46517Y624D01*
G01X46464Y528D01*
G01X46457Y515D01*
G01X46445Y489D01*
G01X46438Y474D01*
G01X46436Y474D01*
G01X46427Y489D01*
G01X46420Y502D01*
G01X46412Y515D01*
G01X46405Y528D01*
G01X46352Y624D01*
G37*

%LPD*%
G36*
G01X46139Y624D02*
G01X46024Y624D01*
G01X46024Y254D01*
G01X46067Y254D01*
G01X46067Y414D01*
G01X46136Y414D01*
G01X46230Y254D01*
G01X46278Y254D01*
G01X46182Y419D01*
G01X46217Y431D01*
G01X46244Y453D01*
G01X46262Y483D01*
G01X46268Y523D01*
G01X46258Y571D01*
G01X46232Y602D01*
G01X46191Y619D01*
G01X46139Y624D01*
G37*

%LPC*%
G36*
G01X46134Y591D02*
G01X46067Y591D01*
G01X46067Y449D01*
G01X46134Y449D01*
G01X46173Y454D01*
G01X46201Y467D01*
G01X46219Y490D01*
G01X46225Y523D01*
G01X46219Y555D01*
G01X46201Y576D01*
G01X46173Y588D01*
G01X46134Y591D01*
G37*

%LPD*%

%LPD*%
G36*
G01X48607Y624D02*
G01X48564Y624D01*
G01X48564Y254D01*
G01X48605Y254D01*
G01X48605Y457D01*
G01X48604Y485D01*
G01X48602Y543D01*
G01X48600Y571D01*
G01X48602Y571D01*
G01X48643Y495D01*
G01X48783Y254D01*
G01X48826Y254D01*
G01X48826Y624D01*
G01X48785Y624D01*
G01X48785Y424D01*
G01X48786Y395D01*
G01X48788Y366D01*
G01X48791Y337D01*
G01X48793Y309D01*
G01X48790Y309D01*
G01X48750Y386D01*
G01X48607Y624D01*
G37*

%LPD*%
G36*
G01X49103Y628D02*
G01X49072Y632D01*
G01X49007Y619D01*
G01X48954Y580D01*
G01X48920Y520D01*
G01X48907Y439D01*
G01X48919Y358D01*
G01X48953Y298D01*
G01X49004Y259D01*
G01X49067Y246D01*
G01X49102Y249D01*
G01X49132Y260D01*
G01X49159Y277D01*
G01X49182Y299D01*
G01X49159Y327D01*
G01X49139Y309D01*
G01X49118Y295D01*
G01X49095Y287D01*
G01X49070Y284D01*
G01X49020Y295D01*
G01X48982Y327D01*
G01X48959Y376D01*
G01X48950Y441D01*
G01X48959Y505D01*
G01X48984Y553D01*
G01X49022Y583D01*
G01X49072Y594D01*
G01X49096Y591D01*
G01X49116Y585D01*
G01X49134Y574D01*
G01X49149Y558D01*
G01X49171Y586D01*
G01X49154Y603D01*
G01X49130Y618D01*
G01X49103Y628D01*
G37*

%LPD*%

%LPD*%
G36*
G01X51147Y624D02*
G01X51104Y624D01*
G01X51104Y254D01*
G01X51145Y254D01*
G01X51145Y457D01*
G01X51144Y485D01*
G01X51142Y543D01*
G01X51140Y571D01*
G01X51142Y571D01*
G01X51183Y495D01*
G01X51323Y254D01*
G01X51366Y254D01*
G01X51366Y624D01*
G01X51325Y624D01*
G01X51325Y424D01*
G01X51326Y395D01*
G01X51328Y366D01*
G01X51331Y337D01*
G01X51333Y309D01*
G01X51330Y309D01*
G01X51290Y386D01*
G01X51147Y624D01*
G37*

%LPD*%
G36*
G01X51643Y628D02*
G01X51612Y632D01*
G01X51547Y619D01*
G01X51494Y580D01*
G01X51460Y520D01*
G01X51447Y439D01*
G01X51459Y358D01*
G01X51493Y298D01*
G01X51544Y259D01*
G01X51607Y246D01*
G01X51642Y249D01*
G01X51672Y260D01*
G01X51699Y277D01*
G01X51722Y299D01*
G01X51699Y327D01*
G01X51679Y309D01*
G01X51658Y295D01*
G01X51635Y287D01*
G01X51610Y284D01*
G01X51560Y295D01*
G01X51522Y327D01*
G01X51499Y376D01*
G01X51490Y441D01*
G01X51499Y505D01*
G01X51524Y553D01*
G01X51562Y583D01*
G01X51612Y594D01*
G01X51636Y591D01*
G01X51656Y585D01*
G01X51674Y574D01*
G01X51689Y558D01*
G01X51711Y586D01*
G01X51694Y603D01*
G01X51670Y618D01*
G01X51643Y628D01*
G37*

%LPD*%

%LPD*%
G36*
G01X54322Y624D02*
G01X54231Y624D01*
G01X54231Y254D01*
G01X54322Y254D01*
G01X54398Y266D01*
G01X54452Y304D01*
G01X54485Y363D01*
G01X54495Y441D01*
G01X54485Y519D01*
G01X54452Y577D01*
G01X54398Y612D01*
G01X54322Y624D01*
G37*

%LPC*%
G36*
G01X54317Y591D02*
G01X54272Y591D01*
G01X54272Y289D01*
G01X54317Y289D01*
G01X54377Y299D01*
G01X54419Y329D01*
G01X54444Y377D01*
G01X54452Y441D01*
G01X54444Y504D01*
G01X54419Y552D01*
G01X54377Y581D01*
G01X54317Y591D01*
G37*

%LPD*%
G36*
G01X53908Y624D02*
G01X53865Y624D01*
G01X53865Y254D01*
G01X53906Y254D01*
G01X53906Y457D01*
G01X53905Y485D01*
G01X53903Y543D01*
G01X53901Y571D01*
G01X53903Y571D01*
G01X53944Y495D01*
G01X54084Y254D01*
G01X54127Y254D01*
G01X54127Y624D01*
G01X54086Y624D01*
G01X54086Y424D01*
G01X54089Y337D01*
G01X54091Y309D01*
G01X54089Y309D01*
G01X54051Y386D01*
G01X53908Y624D01*
G37*

%LPD*%
G36*
G01X53700Y628D02*
G01X53665Y632D01*
G01X53598Y619D01*
G01X53545Y580D01*
G01X53510Y520D01*
G01X53497Y439D01*
G01X53509Y358D01*
G01X53543Y298D01*
G01X53596Y259D01*
G01X53662Y246D01*
G01X53698Y249D01*
G01X53729Y258D01*
G01X53755Y272D01*
G01X53776Y289D01*
G01X53776Y444D01*
G01X53657Y444D01*
G01X53657Y408D01*
G01X53736Y408D01*
G01X53736Y307D01*
G01X53723Y297D01*
G01X53706Y290D01*
G01X53687Y286D01*
G01X53667Y284D01*
G01X53613Y295D01*
G01X53573Y327D01*
G01X53549Y376D01*
G01X53540Y441D01*
G01X53549Y505D01*
G01X53574Y553D01*
G01X53614Y583D01*
G01X53667Y594D01*
G01X53693Y591D01*
G01X53714Y584D01*
G01X53733Y573D01*
G01X53748Y558D01*
G01X53771Y586D01*
G01X53753Y603D01*
G01X53730Y618D01*
G01X53700Y628D01*
G37*

%LPD*%

%LPD*%
G36*
G01X71958Y16560D02*
G01X71912Y16560D01*
G01X71888Y16548D01*
G01X71862Y16537D01*
G01X71832Y16529D01*
G01X71798Y16522D01*
G01X71798Y16482D01*
G01X71897Y16482D01*
G01X71897Y16052D01*
G01X71772Y16052D01*
G01X71772Y16002D01*
G01X72072Y16002D01*
G01X72072Y16052D01*
G01X71958Y16052D01*
G01X71958Y16560D01*
G37*

%LPD*%
G36*
G01X71335Y16560D02*
G01X71287Y16560D01*
G01X71264Y16548D01*
G01X71238Y16537D01*
G01X71208Y16529D01*
G01X71175Y16522D01*
G01X71175Y16482D01*
G01X71272Y16482D01*
G01X71272Y16052D01*
G01X71147Y16052D01*
G01X71147Y16002D01*
G01X71447Y16002D01*
G01X71447Y16052D01*
G01X71335Y16052D01*
G01X71335Y16560D01*
G37*

%LPD*%
G36*
G01X70716Y16560D02*
G01X70650Y16560D01*
G01X70827Y16002D01*
G01X70901Y16002D01*
G01X71079Y16560D01*
G01X71015Y16560D01*
G01X70924Y16250D01*
G01X70908Y16203D01*
G01X70882Y16115D01*
G01X70868Y16068D01*
G01X70863Y16068D01*
G01X70849Y16115D01*
G01X70837Y16159D01*
G01X70824Y16203D01*
G01X70810Y16250D01*
G01X70716Y16560D01*
G37*

%LPD*%
G36*
G01X70210Y16560D02*
G01X70147Y16560D01*
G01X70147Y16002D01*
G01X70457Y16002D01*
G01X70457Y16055D01*
G01X70210Y16055D01*
G01X70210Y16560D01*
G37*

%LPD*%
G36*
G01X69801Y16560D02*
G01X69738Y16560D01*
G01X69738Y16002D01*
G01X70048Y16002D01*
G01X70048Y16055D01*
G01X69801Y16055D01*
G01X69801Y16560D01*
G37*

%LPD*%
G36*
G01X69466Y16560D02*
G01X69397Y16560D01*
G01X69207Y16002D01*
G01X69270Y16002D01*
G01X69326Y16177D01*
G01X69535Y16177D01*
G01X69590Y16002D01*
G01X69659Y16002D01*
G01X69466Y16560D01*
G37*

%LPC*%
G36*
G01X69433Y16507D02*
G01X69430Y16507D01*
G01X69416Y16458D01*
G01X69401Y16411D01*
G01X69372Y16316D01*
G01X69344Y16228D01*
G01X69519Y16228D01*
G01X69491Y16316D01*
G01X69475Y16364D01*
G01X69460Y16411D01*
G01X69446Y16458D01*
G01X69433Y16507D01*
G37*

%LPD*%
G36*
G01X68623Y16560D02*
G01X68559Y16560D01*
G01X68679Y16002D01*
G01X68752Y16002D01*
G01X68841Y16349D01*
G01X68847Y16381D01*
G01X68861Y16444D01*
G01X68869Y16476D01*
G01X68872Y16476D01*
G01X68879Y16444D01*
G01X68886Y16413D01*
G01X68892Y16381D01*
G01X68900Y16349D01*
G01X68988Y16002D01*
G01X69065Y16002D01*
G01X69181Y16560D01*
G01X69121Y16560D01*
G01X69060Y16248D01*
G01X69050Y16204D01*
G01X69034Y16113D01*
G01X69027Y16068D01*
G01X69021Y16068D01*
G01X69012Y16113D01*
G01X69002Y16158D01*
G01X68992Y16204D01*
G01X68981Y16248D01*
G01X68902Y16560D01*
G01X68844Y16560D01*
G01X68762Y16248D01*
G01X68753Y16204D01*
G01X68743Y16158D01*
G01X68733Y16113D01*
G01X68722Y16068D01*
G01X68719Y16068D01*
G01X68703Y16158D01*
G01X68694Y16204D01*
G01X68686Y16248D01*
G01X68623Y16560D01*
G37*

%LPD*%
G36*
G01X68303Y16560D02*
G01X68132Y16560D01*
G01X68132Y16002D01*
G01X68196Y16002D01*
G01X68196Y16243D01*
G01X68300Y16243D01*
G01X68440Y16002D01*
G01X68511Y16002D01*
G01X68366Y16248D01*
G01X68419Y16268D01*
G01X68461Y16300D01*
G01X68487Y16346D01*
G01X68496Y16405D01*
G01X68481Y16478D01*
G01X68442Y16526D01*
G01X68381Y16552D01*
G01X68303Y16560D01*
G37*

%LPC*%
G36*
G01X68292Y16507D02*
G01X68196Y16507D01*
G01X68196Y16294D01*
G01X68292Y16294D01*
G01X68353Y16300D01*
G01X68397Y16321D01*
G01X68423Y16356D01*
G01X68432Y16405D01*
G01X68423Y16454D01*
G01X68397Y16485D01*
G01X68353Y16502D01*
G01X68292Y16507D01*
G37*

%LPD*%
G36*
G01X68005Y16560D02*
G01X67688Y16560D01*
G01X67688Y16002D01*
G01X68013Y16002D01*
G01X68013Y16055D01*
G01X67751Y16055D01*
G01X67751Y16268D01*
G01X67965Y16268D01*
G01X67965Y16322D01*
G01X67751Y16322D01*
G01X67751Y16507D01*
G01X68005Y16507D01*
G01X68005Y16560D01*
G37*

%LPD*%
G36*
G01X67030Y16560D02*
G01X66967Y16560D01*
G01X67086Y16002D01*
G01X67160Y16002D01*
G01X67246Y16349D01*
G01X67254Y16381D01*
G01X67269Y16444D01*
G01X67276Y16476D01*
G01X67279Y16476D01*
G01X67285Y16444D01*
G01X67299Y16381D01*
G01X67307Y16349D01*
G01X67396Y16002D01*
G01X67470Y16002D01*
G01X67586Y16560D01*
G01X67528Y16560D01*
G01X67464Y16248D01*
G01X67457Y16204D01*
G01X67441Y16113D01*
G01X67431Y16068D01*
G01X67429Y16068D01*
G01X67419Y16113D01*
G01X67398Y16204D01*
G01X67388Y16248D01*
G01X67307Y16560D01*
G01X67249Y16560D01*
G01X67170Y16248D01*
G01X67160Y16204D01*
G01X67139Y16113D01*
G01X67129Y16068D01*
G01X67127Y16068D01*
G01X67117Y16113D01*
G01X67100Y16204D01*
G01X67091Y16248D01*
G01X67030Y16560D01*
G37*

%LPD*%
G36*
G01X66144Y16560D02*
G01X65991Y16560D01*
G01X65991Y16002D01*
G01X66055Y16002D01*
G01X66055Y16228D01*
G01X66149Y16228D01*
G01X66232Y16238D01*
G01X66296Y16269D01*
G01X66337Y16322D01*
G01X66352Y16398D01*
G01X66337Y16473D01*
G01X66296Y16524D01*
G01X66230Y16552D01*
G01X66144Y16560D01*
G37*

%LPC*%
G36*
G01X66136Y16507D02*
G01X66055Y16507D01*
G01X66055Y16278D01*
G01X66139Y16278D01*
G01X66205Y16285D01*
G01X66252Y16307D01*
G01X66279Y16344D01*
G01X66288Y16398D01*
G01X66279Y16450D01*
G01X66250Y16484D01*
G01X66203Y16502D01*
G01X66136Y16507D01*
G37*

%LPD*%
G36*
G01X71618Y16087D02*
G01X71600Y16090D01*
G01X71582Y16087D01*
G01X71567Y16076D01*
G01X71557Y16060D01*
G01X71554Y16040D01*
G01X71557Y16020D01*
G01X71567Y16005D01*
G01X71582Y15995D01*
G01X71600Y15991D01*
G01X71618Y15995D01*
G01X71633Y16005D01*
G01X71644Y16020D01*
G01X71648Y16040D01*
G01X71644Y16060D01*
G01X71633Y16076D01*
G01X71618Y16087D01*
G37*

%LPD*%
G36*
G01X66720Y16565D02*
G01X66669Y16570D01*
G01X66620Y16565D01*
G01X66574Y16551D01*
G01X66534Y16527D01*
G01X66500Y16494D01*
G01X66472Y16453D01*
G01X66451Y16403D01*
G01X66438Y16347D01*
G01X66433Y16283D01*
G01X66438Y16220D01*
G01X66451Y16163D01*
G01X66472Y16113D01*
G01X66500Y16071D01*
G01X66534Y16037D01*
G01X66574Y16012D01*
G01X66620Y15996D01*
G01X66669Y15991D01*
G01X66720Y15996D01*
G01X66765Y16012D01*
G01X66806Y16037D01*
G01X66840Y16071D01*
G01X66868Y16113D01*
G01X66888Y16163D01*
G01X66901Y16220D01*
G01X66906Y16283D01*
G01X66901Y16347D01*
G01X66888Y16403D01*
G01X66868Y16453D01*
G01X66840Y16494D01*
G01X66806Y16527D01*
G01X66765Y16551D01*
G01X66720Y16565D01*
G37*

%LPC*%
G36*
G01X66741Y16498D02*
G01X66669Y16515D01*
G01X66600Y16498D01*
G01X66546Y16452D01*
G01X66511Y16379D01*
G01X66499Y16283D01*
G01X66511Y16185D01*
G01X66546Y16111D01*
G01X66600Y16064D01*
G01X66669Y16047D01*
G01X66741Y16064D01*
G01X66795Y16111D01*
G01X66830Y16185D01*
G01X66842Y16283D01*
G01X66830Y16379D01*
G01X66795Y16452D01*
G01X66741Y16498D01*
G37*

%LPD*%

%LPD*%
G36*
G01X75562Y15544D02*
G01X75493Y15544D01*
G01X75303Y14986D01*
G01X75366Y14986D01*
G01X75422Y15161D01*
G01X75631Y15161D01*
G01X75686Y14986D01*
G01X75752Y14986D01*
G01X75562Y15544D01*
G37*

%LPC*%
G36*
G01X75526Y15491D02*
G01X75524Y15491D01*
G01X75511Y15442D01*
G01X75483Y15348D01*
G01X75468Y15300D01*
G01X75438Y15212D01*
G01X75615Y15212D01*
G01X75585Y15300D01*
G01X75570Y15348D01*
G01X75556Y15395D01*
G01X75541Y15442D01*
G01X75526Y15491D01*
G37*

%LPD*%
G36*
G01X75072Y15544D02*
G01X74902Y15544D01*
G01X74902Y14986D01*
G01X74965Y14986D01*
G01X74965Y15227D01*
G01X75069Y15227D01*
G01X75209Y14986D01*
G01X75280Y14986D01*
G01X75135Y15232D01*
G01X75189Y15252D01*
G01X75230Y15284D01*
G01X75256Y15330D01*
G01X75265Y15389D01*
G01X75251Y15462D01*
G01X75211Y15510D01*
G01X75150Y15536D01*
G01X75072Y15544D01*
G37*

%LPC*%
G36*
G01X75062Y15491D02*
G01X74965Y15491D01*
G01X74965Y15278D01*
G01X75062Y15278D01*
G01X75122Y15284D01*
G01X75166Y15305D01*
G01X75192Y15340D01*
G01X75201Y15389D01*
G01X75192Y15438D01*
G01X75166Y15469D01*
G01X75122Y15486D01*
G01X75062Y15491D01*
G37*

%LPD*%
G36*
G01X74775Y15544D02*
G01X74457Y15544D01*
G01X74457Y14986D01*
G01X74782Y14986D01*
G01X74782Y15039D01*
G01X74521Y15039D01*
G01X74521Y15252D01*
G01X74734Y15252D01*
G01X74734Y15306D01*
G01X74521Y15306D01*
G01X74521Y15491D01*
G01X74775Y15491D01*
G01X74775Y15544D01*
G37*

%LPD*%
G36*
G01X74330Y15544D02*
G01X74010Y15544D01*
G01X74010Y14986D01*
G01X74338Y14986D01*
G01X74338Y15039D01*
G01X74074Y15039D01*
G01X74074Y15252D01*
G01X74289Y15252D01*
G01X74289Y15306D01*
G01X74074Y15306D01*
G01X74074Y15491D01*
G01X74330Y15491D01*
G01X74330Y15544D01*
G37*

%LPD*%
G36*
G01X73525Y15544D02*
G01X73461Y15544D01*
G01X73461Y14986D01*
G01X73525Y14986D01*
G01X73525Y15252D01*
G01X73794Y15252D01*
G01X73794Y14986D01*
G01X73858Y14986D01*
G01X73858Y15544D01*
G01X73794Y15544D01*
G01X73794Y15308D01*
G01X73525Y15308D01*
G01X73525Y15544D01*
G37*

%LPD*%
G36*
G01X73078Y15544D02*
G01X72941Y15544D01*
G01X72941Y14986D01*
G01X73080Y14986D01*
G01X73140Y14991D01*
G01X73192Y15005D01*
G01X73236Y15029D01*
G01X73273Y15061D01*
G01X73302Y15101D01*
G01X73323Y15150D01*
G01X73335Y15205D01*
G01X73339Y15267D01*
G01X73335Y15329D01*
G01X73323Y15385D01*
G01X73301Y15432D01*
G01X73272Y15472D01*
G01X73235Y15503D01*
G01X73191Y15526D01*
G01X73138Y15540D01*
G01X73078Y15544D01*
G37*

%LPC*%
G36*
G01X73073Y15491D02*
G01X73004Y15491D01*
G01X73004Y15036D01*
G01X73073Y15036D01*
G01X73120Y15040D01*
G01X73161Y15053D01*
G01X73195Y15072D01*
G01X73224Y15098D01*
G01X73245Y15132D01*
G01X73261Y15171D01*
G01X73270Y15217D01*
G01X73273Y15267D01*
G01X73270Y15318D01*
G01X73261Y15362D01*
G01X73245Y15401D01*
G01X73224Y15433D01*
G01X73195Y15458D01*
G01X73161Y15476D01*
G01X73120Y15487D01*
G01X73073Y15491D01*
G37*

%LPD*%
G36*
G01X72669Y15544D02*
G01X72600Y15544D01*
G01X72410Y14986D01*
G01X72471Y14986D01*
G01X72529Y15161D01*
G01X72737Y15161D01*
G01X72793Y14986D01*
G01X72859Y14986D01*
G01X72669Y15544D01*
G37*

%LPC*%
G36*
G01X72633Y15491D02*
G01X72631Y15491D01*
G01X72618Y15442D01*
G01X72590Y15348D01*
G01X72575Y15300D01*
G01X72544Y15212D01*
G01X72722Y15212D01*
G01X72692Y15300D01*
G01X72677Y15348D01*
G01X72663Y15395D01*
G01X72648Y15442D01*
G01X72633Y15491D01*
G37*

%LPD*%
G36*
G01X72001Y15544D02*
G01X71935Y15544D01*
G01X71935Y14986D01*
G01X71996Y14986D01*
G01X71996Y15290D01*
G01X71995Y15333D01*
G01X71993Y15376D01*
G01X71990Y15418D01*
G01X71988Y15460D01*
G01X71991Y15460D01*
G01X72052Y15346D01*
G01X72263Y14986D01*
G01X72326Y14986D01*
G01X72326Y15544D01*
G01X72268Y15544D01*
G01X72268Y15242D01*
G01X72269Y15198D01*
G01X72271Y15154D01*
G01X72273Y15109D01*
G01X72275Y15067D01*
G01X72273Y15067D01*
G01X72212Y15181D01*
G01X72001Y15544D01*
G37*

%LPD*%
G36*
G01X71084Y15544D02*
G01X70911Y15544D01*
G01X70911Y14986D01*
G01X70975Y14986D01*
G01X70975Y15227D01*
G01X71079Y15227D01*
G01X71219Y14986D01*
G01X71290Y14986D01*
G01X71145Y15232D01*
G01X71198Y15252D01*
G01X71239Y15284D01*
G01X71265Y15330D01*
G01X71274Y15389D01*
G01X71260Y15462D01*
G01X71221Y15510D01*
G01X71161Y15536D01*
G01X71084Y15544D01*
G37*

%LPC*%
G36*
G01X71074Y15491D02*
G01X70975Y15491D01*
G01X70975Y15278D01*
G01X71074Y15278D01*
G01X71133Y15284D01*
G01X71177Y15305D01*
G01X71204Y15340D01*
G01X71213Y15389D01*
G01X71204Y15438D01*
G01X71177Y15469D01*
G01X71133Y15486D01*
G01X71074Y15491D01*
G37*

%LPD*%
G36*
G01X70639Y15544D02*
G01X70571Y15544D01*
G01X70380Y14986D01*
G01X70444Y14986D01*
G01X70500Y15161D01*
G01X70708Y15161D01*
G01X70764Y14986D01*
G01X70832Y14986D01*
G01X70639Y15544D01*
G37*

%LPC*%
G36*
G01X70606Y15491D02*
G01X70604Y15491D01*
G01X70589Y15442D01*
G01X70575Y15395D01*
G01X70545Y15300D01*
G01X70518Y15212D01*
G01X70693Y15212D01*
G01X70665Y15300D01*
G01X70649Y15348D01*
G01X70634Y15395D01*
G01X70620Y15442D01*
G01X70606Y15491D01*
G37*

%LPD*%
G36*
G01X70040Y15544D02*
G01X69977Y15544D01*
G01X69977Y14986D01*
G01X70040Y14986D01*
G01X70040Y15166D01*
G01X70139Y15283D01*
G01X70309Y14986D01*
G01X70380Y14986D01*
G01X70180Y15331D01*
G01X70355Y15544D01*
G01X70281Y15544D01*
G01X70040Y15257D01*
G01X70040Y15544D01*
G37*

%LPD*%
G36*
G01X69319Y15544D02*
G01X69255Y15544D01*
G01X69255Y14986D01*
G01X69319Y14986D01*
G01X69319Y15252D01*
G01X69588Y15252D01*
G01X69588Y14986D01*
G01X69651Y14986D01*
G01X69651Y15544D01*
G01X69588Y15544D01*
G01X69588Y15308D01*
G01X69319Y15308D01*
G01X69319Y15544D01*
G37*

%LPD*%
G36*
G01X69154Y15544D02*
G01X68750Y15544D01*
G01X68750Y15491D01*
G01X68920Y15491D01*
G01X68920Y14986D01*
G01X68983Y14986D01*
G01X68983Y15491D01*
G01X69154Y15491D01*
G01X69154Y15544D01*
G37*

%LPD*%
G36*
G01X68676Y15544D02*
G01X68359Y15544D01*
G01X68359Y14986D01*
G01X68684Y14986D01*
G01X68684Y15039D01*
G01X68422Y15039D01*
G01X68422Y15252D01*
G01X68635Y15252D01*
G01X68635Y15306D01*
G01X68422Y15306D01*
G01X68422Y15491D01*
G01X68676Y15491D01*
G01X68676Y15544D01*
G37*

%LPD*%
G36*
G01X68232Y15544D02*
G01X67911Y15544D01*
G01X67911Y14986D01*
G01X68239Y14986D01*
G01X68239Y15039D01*
G01X67975Y15039D01*
G01X67975Y15252D01*
G01X68191Y15252D01*
G01X68191Y15306D01*
G01X67975Y15306D01*
G01X67975Y15491D01*
G01X68232Y15491D01*
G01X68232Y15544D01*
G37*

%LPD*%
G36*
G01X67127Y15544D02*
G01X67058Y15544D01*
G01X66868Y14986D01*
G01X66931Y14986D01*
G01X66989Y15161D01*
G01X67198Y15161D01*
G01X67251Y14986D01*
G01X67320Y14986D01*
G01X67127Y15544D01*
G37*

%LPC*%
G36*
G01X67094Y15491D02*
G01X67091Y15491D01*
G01X67077Y15442D01*
G01X67048Y15348D01*
G01X67033Y15300D01*
G01X67005Y15212D01*
G01X67180Y15212D01*
G01X67152Y15300D01*
G01X67136Y15348D01*
G01X67108Y15442D01*
G01X67094Y15491D01*
G37*

%LPD*%
G36*
G01X66639Y15544D02*
G01X66466Y15544D01*
G01X66466Y14986D01*
G01X66530Y14986D01*
G01X66530Y15227D01*
G01X66634Y15227D01*
G01X66774Y14986D01*
G01X66845Y14986D01*
G01X66700Y15232D01*
G01X66753Y15252D01*
G01X66794Y15284D01*
G01X66820Y15330D01*
G01X66829Y15389D01*
G01X66815Y15462D01*
G01X66776Y15510D01*
G01X66716Y15536D01*
G01X66639Y15544D01*
G37*

%LPC*%
G36*
G01X66629Y15491D02*
G01X66530Y15491D01*
G01X66530Y15278D01*
G01X66629Y15278D01*
G01X66688Y15284D01*
G01X66732Y15305D01*
G01X66759Y15340D01*
G01X66768Y15389D01*
G01X66759Y15438D01*
G01X66732Y15469D01*
G01X66688Y15486D01*
G01X66629Y15491D01*
G37*

%LPD*%
G36*
G01X66144Y15544D02*
G01X65991Y15544D01*
G01X65991Y14986D01*
G01X66055Y14986D01*
G01X66055Y15212D01*
G01X66149Y15212D01*
G01X66232Y15222D01*
G01X66296Y15253D01*
G01X66337Y15306D01*
G01X66352Y15382D01*
G01X66337Y15457D01*
G01X66296Y15508D01*
G01X66230Y15536D01*
G01X66144Y15544D01*
G37*

%LPC*%
G36*
G01X66136Y15491D02*
G01X66055Y15491D01*
G01X66055Y15262D01*
G01X66139Y15262D01*
G01X66205Y15269D01*
G01X66252Y15291D01*
G01X66279Y15328D01*
G01X66288Y15382D01*
G01X66279Y15434D01*
G01X66250Y15468D01*
G01X66203Y15486D01*
G01X66136Y15491D01*
G37*

%LPD*%
G36*
G01X71450Y15544D02*
G01X71389Y15544D01*
G01X71389Y15212D01*
G01X71393Y15151D01*
G01X71404Y15100D01*
G01X71422Y15059D01*
G01X71446Y15027D01*
G01X71475Y15003D01*
G01X71508Y14987D01*
G01X71545Y14978D01*
G01X71584Y14975D01*
G01X71624Y14978D01*
G01X71662Y14987D01*
G01X71695Y15003D01*
G01X71725Y15027D01*
G01X71748Y15059D01*
G01X71767Y15100D01*
G01X71778Y15151D01*
G01X71782Y15212D01*
G01X71782Y15544D01*
G01X71721Y15544D01*
G01X71721Y15212D01*
G01X71711Y15126D01*
G01X71681Y15070D01*
G01X71638Y15040D01*
G01X71584Y15031D01*
G01X71532Y15040D01*
G01X71489Y15070D01*
G01X71460Y15126D01*
G01X71450Y15212D01*
G01X71450Y15544D01*
G37*

%LPD*%
G36*
G01X67664Y15548D02*
G01X67612Y15554D01*
G01X67558Y15549D01*
G01X67510Y15534D01*
G01X67466Y15510D01*
G01X67429Y15476D01*
G01X67399Y15435D01*
G01X67377Y15385D01*
G01X67363Y15328D01*
G01X67358Y15265D01*
G01X67362Y15201D01*
G01X67376Y15143D01*
G01X67398Y15094D01*
G01X67428Y15053D01*
G01X67464Y15020D01*
G01X67507Y14995D01*
G01X67554Y14980D01*
G01X67607Y14975D01*
G01X67661Y14980D01*
G01X67707Y14994D01*
G01X67746Y15014D01*
G01X67777Y15039D01*
G01X67777Y15270D01*
G01X67599Y15270D01*
G01X67599Y15219D01*
G01X67718Y15219D01*
G01X67718Y15067D01*
G01X67698Y15052D01*
G01X67673Y15040D01*
G01X67644Y15034D01*
G01X67614Y15031D01*
G01X67533Y15048D01*
G01X67473Y15095D01*
G01X67437Y15168D01*
G01X67424Y15265D01*
G01X67437Y15362D01*
G01X67475Y15436D01*
G01X67535Y15482D01*
G01X67614Y15499D01*
G01X67653Y15494D01*
G01X67686Y15482D01*
G01X67713Y15466D01*
G01X67736Y15445D01*
G01X67772Y15486D01*
G01X67743Y15511D01*
G01X67708Y15533D01*
G01X67664Y15548D01*
G37*

%LPD*%

%LPD*%
G36*
G01X82611Y35963D02*
G01X82555Y35966D01*
G01X82498Y35963D01*
G01X82446Y35956D01*
G01X82399Y35944D01*
G01X82355Y35927D01*
G01X82317Y35905D01*
G01X82283Y35879D01*
G01X82254Y35848D01*
G01X82230Y35811D01*
G01X82211Y35771D01*
G01X82197Y35726D01*
G01X82189Y35675D01*
G01X82186Y35620D01*
G01X82186Y35438D01*
G01X82931Y35438D01*
G01X82931Y35623D01*
G01X82927Y35677D01*
G01X82919Y35727D01*
G01X82905Y35772D01*
G01X82885Y35812D01*
G01X82860Y35848D01*
G01X82830Y35879D01*
G01X82795Y35905D01*
G01X82756Y35927D01*
G01X82712Y35944D01*
G01X82664Y35956D01*
G01X82611Y35963D01*
G37*

%LPC*%
G36*
G01X82623Y35875D02*
G01X82555Y35880D01*
G01X82488Y35875D01*
G01X82429Y35863D01*
G01X82377Y35842D01*
G01X82334Y35814D01*
G01X82300Y35776D01*
G01X82275Y35731D01*
G01X82260Y35676D01*
G01X82255Y35613D01*
G01X82255Y35521D01*
G01X82862Y35521D01*
G01X82862Y35613D01*
G01X82856Y35676D01*
G01X82841Y35731D01*
G01X82815Y35776D01*
G01X82780Y35814D01*
G01X82735Y35842D01*
G01X82683Y35863D01*
G01X82623Y35875D01*
G37*

%LPD*%
G36*
G01X82931Y35229D02*
G01X82186Y35229D01*
G01X82186Y35148D01*
G01X82590Y35148D01*
G01X82648Y35149D01*
G01X82706Y35153D01*
G01X82765Y35157D01*
G01X82821Y35161D01*
G01X82821Y35156D01*
G01X82669Y35074D01*
G01X82186Y34792D01*
G01X82186Y34706D01*
G01X82931Y34706D01*
G01X82931Y34787D01*
G01X82524Y34787D01*
G01X82466Y34786D01*
G01X82352Y34780D01*
G01X82296Y34777D01*
G01X82296Y34782D01*
G01X82448Y34864D01*
G01X82931Y35143D01*
G01X82931Y35229D01*
G37*

%LPD*%
G36*
G01X82859Y34528D02*
G01X82550Y34528D01*
G01X82550Y34287D01*
G01X82621Y34287D01*
G01X82621Y34450D01*
G01X82824Y34450D01*
G01X82843Y34422D01*
G01X82857Y34388D01*
G01X82866Y34349D01*
G01X82870Y34307D01*
G01X82864Y34250D01*
G01X82848Y34201D01*
G01X82821Y34157D01*
G01X82785Y34121D01*
G01X82739Y34093D01*
G01X82686Y34073D01*
G01X82625Y34060D01*
G01X82557Y34056D01*
G01X82489Y34060D01*
G01X82428Y34073D01*
G01X82375Y34094D01*
G01X82331Y34123D01*
G01X82295Y34159D01*
G01X82269Y34203D01*
G01X82253Y34252D01*
G01X82247Y34307D01*
G01X82253Y34361D01*
G01X82269Y34405D01*
G01X82291Y34441D01*
G01X82318Y34472D01*
G01X82265Y34518D01*
G01X82231Y34481D01*
G01X82202Y34434D01*
G01X82181Y34376D01*
G01X82174Y34305D01*
G01X82177Y34257D01*
G01X82186Y34212D01*
G01X82201Y34170D01*
G01X82221Y34131D01*
G01X82246Y34095D01*
G01X82277Y34064D01*
G01X82313Y34036D01*
G01X82353Y34013D01*
G01X82399Y33994D01*
G01X82448Y33981D01*
G01X82502Y33973D01*
G01X82560Y33969D01*
G01X82644Y33976D01*
G01X82720Y33994D01*
G01X82786Y34023D01*
G01X82841Y34062D01*
G01X82885Y34110D01*
G01X82917Y34167D01*
G01X82937Y34230D01*
G01X82943Y34300D01*
G01X82937Y34370D01*
G01X82919Y34433D01*
G01X82893Y34486D01*
G01X82859Y34528D01*
G37*

%LPD*%

%LPD*%
G36*
G01X38862Y36870D02*
G01X38790Y36870D01*
G01X38790Y36657D01*
G01X38791Y36628D01*
G01X38792Y36598D01*
G01X38793Y36566D01*
G01X38795Y36535D01*
G01X38732Y36600D01*
G01X38671Y36659D01*
G01X38611Y36710D01*
G01X38552Y36753D01*
G01X38494Y36788D01*
G01X38436Y36813D01*
G01X38379Y36829D01*
G01X38323Y36835D01*
G01X38276Y36831D01*
G01X38233Y36820D01*
G01X38196Y36802D01*
G01X38165Y36777D01*
G01X38139Y36747D01*
G01X38120Y36710D01*
G01X38109Y36668D01*
G01X38105Y36621D01*
G01X38112Y36558D01*
G01X38135Y36502D01*
G01X38169Y36452D01*
G01X38214Y36405D01*
G01X38260Y36454D01*
G01X38225Y36488D01*
G01X38197Y36526D01*
G01X38178Y36568D01*
G01X38171Y36614D01*
G01X38182Y36676D01*
G01X38215Y36720D01*
G01X38264Y36745D01*
G01X38326Y36753D01*
G01X38375Y36748D01*
G01X38427Y36733D01*
G01X38482Y36708D01*
G01X38539Y36672D01*
G01X38601Y36624D01*
G01X38666Y36565D01*
G01X38736Y36494D01*
G01X38811Y36410D01*
G01X38862Y36410D01*
G01X38862Y36870D01*
G37*

%LPD*%
G36*
G01X38813Y36281D02*
G01X38768Y36327D01*
G01X38714Y36281D01*
G01X38751Y36243D01*
G01X38778Y36202D01*
G01X38795Y36156D01*
G01X38801Y36106D01*
G01X38795Y36053D01*
G01X38779Y36006D01*
G01X38752Y35965D01*
G01X38716Y35931D01*
G01X38670Y35903D01*
G01X38617Y35884D01*
G01X38556Y35871D01*
G01X38488Y35867D01*
G01X38420Y35871D01*
G01X38359Y35884D01*
G01X38306Y35905D01*
G01X38262Y35933D01*
G01X38226Y35968D01*
G01X38200Y36010D01*
G01X38184Y36056D01*
G01X38178Y36108D01*
G01X38183Y36155D01*
G01X38198Y36196D01*
G01X38220Y36232D01*
G01X38249Y36263D01*
G01X38196Y36309D01*
G01X38161Y36272D01*
G01X38132Y36225D01*
G01X38112Y36171D01*
G01X38105Y36108D01*
G01X38111Y36040D01*
G01X38132Y35978D01*
G01X38164Y35922D01*
G01X38208Y35874D01*
G01X38264Y35835D01*
G01X38330Y35805D01*
G01X38405Y35787D01*
G01X38491Y35780D01*
G01X38575Y35787D01*
G01X38651Y35805D01*
G01X38717Y35833D01*
G01X38772Y35872D01*
G01X38816Y35919D01*
G01X38848Y35974D01*
G01X38868Y36034D01*
G01X38874Y36101D01*
G01X38867Y36169D01*
G01X38847Y36229D01*
G01X38813Y36281D01*
G37*

%LPD*%
G36*
G01X38542Y35659D02*
G01X38486Y35661D01*
G01X38429Y35659D01*
G01X38377Y35651D01*
G01X38330Y35639D01*
G01X38286Y35621D01*
G01X38248Y35600D01*
G01X38214Y35573D01*
G01X38185Y35541D01*
G01X38161Y35505D01*
G01X38142Y35464D01*
G01X38128Y35418D01*
G01X38120Y35368D01*
G01X38117Y35313D01*
G01X38117Y35130D01*
G01X38862Y35130D01*
G01X38862Y35316D01*
G01X38858Y35370D01*
G01X38850Y35420D01*
G01X38836Y35465D01*
G01X38816Y35506D01*
G01X38791Y35542D01*
G01X38761Y35573D01*
G01X38726Y35600D01*
G01X38687Y35622D01*
G01X38643Y35639D01*
G01X38595Y35651D01*
G01X38542Y35659D01*
G37*

%LPC*%
G36*
G01X38554Y35571D02*
G01X38486Y35575D01*
G01X38419Y35571D01*
G01X38360Y35558D01*
G01X38308Y35538D01*
G01X38265Y35509D01*
G01X38231Y35471D01*
G01X38206Y35425D01*
G01X38191Y35370D01*
G01X38186Y35306D01*
G01X38186Y35214D01*
G01X38793Y35214D01*
G01X38793Y35306D01*
G01X38787Y35370D01*
G01X38772Y35425D01*
G01X38746Y35471D01*
G01X38711Y35509D01*
G01X38666Y35538D01*
G01X38614Y35558D01*
G01X38554Y35571D01*
G37*

%LPD*%
G36*
G01X38862Y34935D02*
G01X38862Y35024D01*
G01X38117Y34767D01*
G01X38117Y34676D01*
G01X38862Y34422D01*
G01X38862Y34505D01*
G01X38628Y34582D01*
G01X38628Y34858D01*
G01X38862Y34935D01*
G37*

%LPC*%
G36*
G01X38562Y34604D02*
G01X38562Y34838D01*
G01X38440Y34800D01*
G01X38377Y34780D01*
G01X38315Y34760D01*
G01X38252Y34741D01*
G01X38188Y34721D01*
G01X38188Y34719D01*
G01X38253Y34700D01*
G01X38316Y34682D01*
G01X38378Y34663D01*
G01X38440Y34643D01*
G01X38562Y34604D01*
G37*

%LPD*%

%LPD*%
G36*
G01X41377Y36860D02*
G01X41330Y36865D01*
G01X41261Y36852D01*
G01X41205Y36819D01*
G01X41164Y36769D01*
G01X41140Y36708D01*
G01X41137Y36708D01*
G01X41109Y36761D01*
G01X41070Y36803D01*
G01X41018Y36830D01*
G01X40954Y36840D01*
G01X40877Y36824D01*
G01X40819Y36780D01*
G01X40784Y36713D01*
G01X40772Y36629D01*
G01X40778Y36568D01*
G01X40796Y36515D01*
G01X40824Y36467D01*
G01X40858Y36423D01*
G01X40914Y36469D01*
G01X40884Y36502D01*
G01X40860Y36540D01*
G01X40845Y36582D01*
G01X40838Y36626D01*
G01X40848Y36680D01*
G01X40873Y36721D01*
G01X40912Y36747D01*
G01X40962Y36756D01*
G01X41021Y36745D01*
G01X41067Y36710D01*
G01X41098Y36645D01*
G01X41109Y36545D01*
G01X41173Y36545D01*
G01X41184Y36655D01*
G01X41216Y36728D01*
G01X41265Y36769D01*
G01X41328Y36781D01*
G01X41388Y36770D01*
G01X41434Y36738D01*
G01X41462Y36689D01*
G01X41473Y36626D01*
G01X41466Y36565D01*
G01X41447Y36515D01*
G01X41419Y36473D01*
G01X41386Y36438D01*
G01X41440Y36395D01*
G01X41478Y36436D01*
G01X41510Y36488D01*
G01X41533Y36552D01*
G01X41541Y36631D01*
G01X41538Y36679D01*
G01X41527Y36722D01*
G01X41509Y36762D01*
G01X41485Y36797D01*
G01X41455Y36825D01*
G01X41419Y36847D01*
G01X41377Y36860D01*
G37*

%LPD*%
G36*
G01X41480Y36281D02*
G01X41435Y36327D01*
G01X41381Y36281D01*
G01X41418Y36243D01*
G01X41445Y36202D01*
G01X41462Y36156D01*
G01X41468Y36106D01*
G01X41462Y36053D01*
G01X41446Y36006D01*
G01X41419Y35965D01*
G01X41383Y35931D01*
G01X41337Y35903D01*
G01X41284Y35884D01*
G01X41223Y35871D01*
G01X41155Y35867D01*
G01X41087Y35871D01*
G01X41026Y35884D01*
G01X40973Y35905D01*
G01X40929Y35933D01*
G01X40893Y35968D01*
G01X40867Y36010D01*
G01X40851Y36056D01*
G01X40845Y36108D01*
G01X40850Y36155D01*
G01X40865Y36196D01*
G01X40887Y36232D01*
G01X40916Y36263D01*
G01X40863Y36309D01*
G01X40828Y36272D01*
G01X40799Y36225D01*
G01X40779Y36171D01*
G01X40772Y36108D01*
G01X40778Y36040D01*
G01X40799Y35978D01*
G01X40831Y35922D01*
G01X40875Y35874D01*
G01X40931Y35835D01*
G01X40997Y35805D01*
G01X41072Y35787D01*
G01X41158Y35780D01*
G01X41242Y35787D01*
G01X41318Y35805D01*
G01X41384Y35833D01*
G01X41439Y35872D01*
G01X41483Y35919D01*
G01X41515Y35974D01*
G01X41535Y36034D01*
G01X41541Y36101D01*
G01X41534Y36169D01*
G01X41514Y36229D01*
G01X41480Y36281D01*
G37*

%LPD*%
G36*
G01X41209Y35659D02*
G01X41153Y35661D01*
G01X41096Y35659D01*
G01X41044Y35651D01*
G01X40997Y35639D01*
G01X40953Y35621D01*
G01X40915Y35600D01*
G01X40881Y35573D01*
G01X40852Y35541D01*
G01X40828Y35505D01*
G01X40809Y35464D01*
G01X40795Y35418D01*
G01X40787Y35368D01*
G01X40784Y35313D01*
G01X40784Y35130D01*
G01X41529Y35130D01*
G01X41529Y35316D01*
G01X41525Y35370D01*
G01X41517Y35420D01*
G01X41503Y35465D01*
G01X41483Y35506D01*
G01X41458Y35542D01*
G01X41428Y35573D01*
G01X41393Y35600D01*
G01X41354Y35622D01*
G01X41310Y35639D01*
G01X41262Y35651D01*
G01X41209Y35659D01*
G37*

%LPC*%
G36*
G01X41221Y35571D02*
G01X41153Y35575D01*
G01X41086Y35571D01*
G01X41027Y35558D01*
G01X40975Y35538D01*
G01X40932Y35509D01*
G01X40898Y35471D01*
G01X40873Y35425D01*
G01X40858Y35370D01*
G01X40853Y35306D01*
G01X40853Y35214D01*
G01X41460Y35214D01*
G01X41460Y35306D01*
G01X41454Y35370D01*
G01X41439Y35425D01*
G01X41413Y35471D01*
G01X41378Y35509D01*
G01X41333Y35538D01*
G01X41281Y35558D01*
G01X41221Y35571D01*
G37*

%LPD*%
G36*
G01X41529Y34935D02*
G01X41529Y35024D01*
G01X40784Y34767D01*
G01X40784Y34676D01*
G01X41529Y34422D01*
G01X41529Y34505D01*
G01X41295Y34582D01*
G01X41295Y34858D01*
G01X41529Y34935D01*
G37*

%LPC*%
G36*
G01X41229Y34604D02*
G01X41229Y34838D01*
G01X41107Y34800D01*
G01X41044Y34780D01*
G01X40982Y34760D01*
G01X40919Y34741D01*
G01X40855Y34721D01*
G01X40855Y34719D01*
G01X40920Y34700D01*
G01X40983Y34682D01*
G01X41045Y34663D01*
G01X41107Y34643D01*
G01X41229Y34604D01*
G37*

%LPD*%

%LPD*%
G36*
G01X25097Y35706D02*
G01X25052Y35753D01*
G01X24998Y35707D01*
G01X25035Y35668D01*
G01X25062Y35627D01*
G01X25079Y35581D01*
G01X25085Y35529D01*
G01X25079Y35477D01*
G01X25063Y35431D01*
G01X25036Y35391D01*
G01X25000Y35357D01*
G01X24954Y35329D01*
G01X24901Y35310D01*
G01X24840Y35297D01*
G01X24772Y35293D01*
G01X24704Y35297D01*
G01X24643Y35310D01*
G01X24590Y35330D01*
G01X24546Y35358D01*
G01X24510Y35393D01*
G01X24484Y35434D01*
G01X24468Y35481D01*
G01X24462Y35534D01*
G01X24467Y35579D01*
G01X24482Y35620D01*
G01X24504Y35656D01*
G01X24533Y35687D01*
G01X24480Y35735D01*
G01X24445Y35698D01*
G01X24416Y35651D01*
G01X24396Y35596D01*
G01X24389Y35532D01*
G01X24395Y35463D01*
G01X24416Y35402D01*
G01X24448Y35346D01*
G01X24492Y35298D01*
G01X24548Y35260D01*
G01X24614Y35231D01*
G01X24689Y35213D01*
G01X24775Y35206D01*
G01X24859Y35213D01*
G01X24935Y35230D01*
G01X25001Y35259D01*
G01X25056Y35297D01*
G01X25100Y35344D01*
G01X25132Y35398D01*
G01X25152Y35459D01*
G01X25158Y35526D01*
G01X25151Y35595D01*
G01X25131Y35654D01*
G01X25097Y35706D01*
G37*

%LPD*%
G36*
G01X25146Y35041D02*
G01X24401Y35041D01*
G01X24401Y34963D01*
G01X24805Y34963D01*
G01X24863Y34964D01*
G01X24921Y34966D01*
G01X24980Y34969D01*
G01X25036Y34973D01*
G01X25036Y34968D01*
G01X24884Y34889D01*
G01X24401Y34607D01*
G01X24401Y34521D01*
G01X25146Y34521D01*
G01X25146Y34599D01*
G01X24739Y34599D01*
G01X24681Y34598D01*
G01X24624Y34596D01*
G01X24567Y34593D01*
G01X24511Y34589D01*
G01X24511Y34594D01*
G01X24663Y34676D01*
G01X25146Y34955D01*
G01X25146Y35041D01*
G37*

%LPD*%

%LPD*%
G36*
G01X43902Y36349D02*
G01X43850Y36355D01*
G01X43782Y36343D01*
G01X43730Y36311D01*
G01X43693Y36263D01*
G01X43672Y36200D01*
G01X43667Y36200D01*
G01X43643Y36247D01*
G01X43606Y36282D01*
G01X43560Y36304D01*
G01X43507Y36311D01*
G01X43462Y36307D01*
G01X43424Y36293D01*
G01X43392Y36271D01*
G01X43367Y36241D01*
G01X43348Y36204D01*
G01X43334Y36160D01*
G01X43327Y36111D01*
G01X43324Y36057D01*
G01X43324Y35841D01*
G01X44069Y35841D01*
G01X44069Y36073D01*
G01X44065Y36133D01*
G01X44055Y36187D01*
G01X44038Y36236D01*
G01X44015Y36276D01*
G01X43984Y36309D01*
G01X43947Y36334D01*
G01X43902Y36349D01*
G37*

%LPC*%
G36*
G01X43570Y36217D02*
G01X43517Y36228D01*
G01X43459Y36216D01*
G01X43421Y36181D01*
G01X43399Y36123D01*
G01X43393Y36045D01*
G01X43393Y35925D01*
G01X43644Y35925D01*
G01X43644Y36040D01*
G01X43636Y36126D01*
G01X43610Y36184D01*
G01X43570Y36217D01*
G37*
G36*
G01X43917Y36256D02*
G01X43848Y36271D01*
G01X43786Y36256D01*
G01X43742Y36216D01*
G01X43716Y36150D01*
G01X43708Y36060D01*
G01X43708Y35925D01*
G01X44002Y35925D01*
G01X44002Y36060D01*
G01X43993Y36149D01*
G01X43965Y36215D01*
G01X43917Y36256D01*
G37*

%LPD*%
G36*
G01X44069Y35671D02*
G01X44000Y35671D01*
G01X44000Y35519D01*
G01X43324Y35519D01*
G01X43324Y35455D01*
G01X43341Y35425D01*
G01X43354Y35390D01*
G01X43366Y35350D01*
G01X43375Y35306D01*
G01X43428Y35306D01*
G01X43428Y35438D01*
G01X44000Y35438D01*
G01X44000Y35270D01*
G01X44069Y35270D01*
G01X44069Y35671D01*
G37*

%LPD*%
G36*
G01X43595Y35125D02*
G01X43540Y35130D01*
G01X43485Y35125D01*
G01X43439Y35110D01*
G01X43401Y35087D01*
G01X43372Y35055D01*
G01X43350Y35014D01*
G01X43335Y34967D01*
G01X43327Y34913D01*
G01X43324Y34853D01*
G01X43324Y34648D01*
G01X44069Y34648D01*
G01X44069Y34731D01*
G01X43769Y34731D01*
G01X43769Y34858D01*
G01X43765Y34917D01*
G01X43755Y34970D01*
G01X43737Y35016D01*
G01X43712Y35055D01*
G01X43680Y35087D01*
G01X43641Y35110D01*
G01X43595Y35125D01*
G37*

%LPC*%
G36*
G01X43612Y35034D02*
G01X43540Y35046D01*
G01X43470Y35034D01*
G01X43425Y34995D01*
G01X43400Y34931D01*
G01X43393Y34841D01*
G01X43393Y34731D01*
G01X43698Y34731D01*
G01X43698Y34846D01*
G01X43689Y34934D01*
G01X43661Y34997D01*
G01X43612Y35034D01*
G37*

%LPD*%

%LPD*%
G36*
G01X46609Y36438D02*
G01X45864Y36593D01*
G01X45864Y36515D01*
G01X46278Y36431D01*
G01X46398Y36409D01*
G01X46459Y36399D01*
G01X46520Y36388D01*
G01X46520Y36382D01*
G01X46398Y36356D01*
G01X46338Y36341D01*
G01X46278Y36327D01*
G01X45864Y36220D01*
G01X45864Y36144D01*
G01X46278Y36037D01*
G01X46338Y36024D01*
G01X46398Y36010D01*
G01X46520Y35984D01*
G01X46520Y35979D01*
G01X46459Y35967D01*
G01X46338Y35945D01*
G01X46278Y35933D01*
G01X45864Y35852D01*
G01X45864Y35765D01*
G01X46609Y35925D01*
G01X46609Y36024D01*
G01X46146Y36139D01*
G01X46103Y36149D01*
G01X46019Y36169D01*
G01X45976Y36179D01*
G01X45976Y36182D01*
G01X46019Y36191D01*
G01X46061Y36201D01*
G01X46103Y36210D01*
G01X46146Y36220D01*
G01X46609Y36337D01*
G01X46609Y36438D01*
G37*

%LPD*%
G36*
G01X46609Y35671D02*
G01X46540Y35671D01*
G01X46540Y35519D01*
G01X45864Y35519D01*
G01X45864Y35455D01*
G01X45881Y35425D01*
G01X45894Y35390D01*
G01X45906Y35350D01*
G01X45915Y35306D01*
G01X45968Y35306D01*
G01X45968Y35438D01*
G01X46540Y35438D01*
G01X46540Y35270D01*
G01X46609Y35270D01*
G01X46609Y35671D01*
G37*

%LPD*%
G36*
G01X46135Y35125D02*
G01X46080Y35130D01*
G01X46025Y35125D01*
G01X45979Y35110D01*
G01X45941Y35087D01*
G01X45912Y35055D01*
G01X45890Y35014D01*
G01X45875Y34967D01*
G01X45867Y34913D01*
G01X45864Y34853D01*
G01X45864Y34648D01*
G01X46609Y34648D01*
G01X46609Y34731D01*
G01X46309Y34731D01*
G01X46309Y34858D01*
G01X46305Y34917D01*
G01X46295Y34970D01*
G01X46277Y35016D01*
G01X46252Y35055D01*
G01X46220Y35087D01*
G01X46181Y35110D01*
G01X46135Y35125D01*
G37*

%LPC*%
G36*
G01X46152Y35034D02*
G01X46080Y35046D01*
G01X46010Y35034D01*
G01X45965Y34995D01*
G01X45940Y34931D01*
G01X45933Y34841D01*
G01X45933Y34731D01*
G01X46238Y34731D01*
G01X46238Y34846D01*
G01X46229Y34934D01*
G01X46201Y34997D01*
G01X46152Y35034D01*
G37*

%LPD*%

%LPD*%
G36*
G01X49149Y36255D02*
G01X49149Y36344D01*
G01X48404Y36088D01*
G01X48404Y35996D01*
G01X49149Y35742D01*
G01X49149Y35826D01*
G01X48915Y35902D01*
G01X48915Y36179D01*
G01X49149Y36255D01*
G37*

%LPC*%
G36*
G01X48849Y35925D02*
G01X48849Y36159D01*
G01X48727Y36121D01*
G01X48664Y36101D01*
G01X48602Y36081D01*
G01X48539Y36061D01*
G01X48475Y36042D01*
G01X48475Y36040D01*
G01X48540Y36021D01*
G01X48603Y36002D01*
G01X48665Y35984D01*
G01X48727Y35963D01*
G01X48849Y35925D01*
G37*

%LPD*%
G36*
G01X49149Y35671D02*
G01X49080Y35671D01*
G01X49080Y35519D01*
G01X48404Y35519D01*
G01X48404Y35455D01*
G01X48421Y35425D01*
G01X48434Y35390D01*
G01X48446Y35350D01*
G01X48455Y35306D01*
G01X48508Y35306D01*
G01X48508Y35438D01*
G01X49080Y35438D01*
G01X49080Y35270D01*
G01X49149Y35270D01*
G01X49149Y35671D01*
G37*

%LPD*%
G36*
G01X48675Y35125D02*
G01X48620Y35130D01*
G01X48565Y35125D01*
G01X48519Y35110D01*
G01X48481Y35087D01*
G01X48452Y35055D01*
G01X48430Y35014D01*
G01X48415Y34967D01*
G01X48407Y34913D01*
G01X48404Y34853D01*
G01X48404Y34648D01*
G01X49149Y34648D01*
G01X49149Y34731D01*
G01X48849Y34731D01*
G01X48849Y34858D01*
G01X48845Y34917D01*
G01X48835Y34970D01*
G01X48817Y35016D01*
G01X48792Y35055D01*
G01X48760Y35087D01*
G01X48721Y35110D01*
G01X48675Y35125D01*
G37*

%LPC*%
G36*
G01X48692Y35034D02*
G01X48620Y35046D01*
G01X48550Y35034D01*
G01X48505Y34995D01*
G01X48480Y34931D01*
G01X48473Y34841D01*
G01X48473Y34731D01*
G01X48778Y34731D01*
G01X48778Y34846D01*
G01X48769Y34934D01*
G01X48741Y34997D01*
G01X48692Y35034D01*
G37*

%LPD*%

%LPD*%
G36*
G01X51649Y36349D02*
G01X51597Y36355D01*
G01X51529Y36343D01*
G01X51477Y36311D01*
G01X51440Y36263D01*
G01X51419Y36200D01*
G01X51414Y36200D01*
G01X51390Y36247D01*
G01X51353Y36282D01*
G01X51307Y36304D01*
G01X51254Y36311D01*
G01X51209Y36307D01*
G01X51171Y36293D01*
G01X51139Y36271D01*
G01X51114Y36241D01*
G01X51095Y36204D01*
G01X51081Y36160D01*
G01X51074Y36111D01*
G01X51071Y36057D01*
G01X51071Y35841D01*
G01X51816Y35841D01*
G01X51816Y36073D01*
G01X51812Y36133D01*
G01X51802Y36187D01*
G01X51785Y36236D01*
G01X51762Y36276D01*
G01X51731Y36309D01*
G01X51694Y36334D01*
G01X51649Y36349D01*
G37*

%LPC*%
G36*
G01X51317Y36217D02*
G01X51264Y36228D01*
G01X51206Y36216D01*
G01X51168Y36181D01*
G01X51146Y36123D01*
G01X51140Y36045D01*
G01X51140Y35925D01*
G01X51391Y35925D01*
G01X51391Y36040D01*
G01X51383Y36126D01*
G01X51357Y36184D01*
G01X51317Y36217D01*
G37*
G36*
G01X51664Y36256D02*
G01X51595Y36271D01*
G01X51533Y36256D01*
G01X51489Y36216D01*
G01X51463Y36150D01*
G01X51455Y36060D01*
G01X51455Y35925D01*
G01X51749Y35925D01*
G01X51749Y36060D01*
G01X51740Y36149D01*
G01X51712Y36215D01*
G01X51664Y36256D01*
G37*

%LPD*%
G36*
G01X51532Y35682D02*
G01X51440Y35687D01*
G01X51350Y35682D01*
G01X51272Y35670D01*
G01X51206Y35651D01*
G01X51153Y35625D01*
G01X51111Y35592D01*
G01X51082Y35552D01*
G01X51065Y35508D01*
G01X51059Y35458D01*
G01X51065Y35408D01*
G01X51082Y35363D01*
G01X51111Y35324D01*
G01X51153Y35291D01*
G01X51206Y35265D01*
G01X51272Y35246D01*
G01X51350Y35233D01*
G01X51440Y35229D01*
G01X51532Y35233D01*
G01X51611Y35246D01*
G01X51677Y35265D01*
G01X51732Y35291D01*
G01X51774Y35324D01*
G01X51804Y35363D01*
G01X51822Y35408D01*
G01X51828Y35458D01*
G01X51822Y35508D01*
G01X51804Y35552D01*
G01X51774Y35592D01*
G01X51732Y35625D01*
G01X51677Y35651D01*
G01X51611Y35670D01*
G01X51532Y35682D01*
G37*

%LPC*%
G36*
G01X51518Y35603D02*
G01X51440Y35605D01*
G01X51364Y35603D01*
G01X51299Y35595D01*
G01X51245Y35582D01*
G01X51201Y35565D01*
G01X51167Y35544D01*
G01X51143Y35518D01*
G01X51129Y35490D01*
G01X51125Y35458D01*
G01X51129Y35427D01*
G01X51143Y35398D01*
G01X51167Y35374D01*
G01X51201Y35352D01*
G01X51245Y35334D01*
G01X51299Y35321D01*
G01X51364Y35313D01*
G01X51440Y35311D01*
G01X51518Y35313D01*
G01X51584Y35321D01*
G01X51640Y35334D01*
G01X51685Y35352D01*
G01X51719Y35374D01*
G01X51743Y35398D01*
G01X51758Y35427D01*
G01X51762Y35458D01*
G01X51758Y35490D01*
G01X51743Y35518D01*
G01X51719Y35544D01*
G01X51685Y35565D01*
G01X51640Y35582D01*
G01X51584Y35595D01*
G01X51518Y35603D01*
G37*

%LPD*%
G36*
G01X51342Y35125D02*
G01X51287Y35130D01*
G01X51232Y35125D01*
G01X51186Y35110D01*
G01X51148Y35087D01*
G01X51119Y35055D01*
G01X51097Y35014D01*
G01X51082Y34967D01*
G01X51074Y34913D01*
G01X51071Y34853D01*
G01X51071Y34648D01*
G01X51816Y34648D01*
G01X51816Y34731D01*
G01X51516Y34731D01*
G01X51516Y34858D01*
G01X51512Y34917D01*
G01X51502Y34970D01*
G01X51484Y35016D01*
G01X51459Y35055D01*
G01X51427Y35087D01*
G01X51388Y35110D01*
G01X51342Y35125D01*
G37*

%LPC*%
G36*
G01X51359Y35034D02*
G01X51287Y35046D01*
G01X51217Y35034D01*
G01X51172Y34995D01*
G01X51147Y34931D01*
G01X51140Y34841D01*
G01X51140Y34731D01*
G01X51445Y34731D01*
G01X51445Y34846D01*
G01X51436Y34934D01*
G01X51408Y34997D01*
G01X51359Y35034D01*
G37*

%LPD*%

%LPD*%
G36*
G01X54229Y36438D02*
G01X53484Y36593D01*
G01X53484Y36515D01*
G01X53898Y36431D01*
G01X54018Y36409D01*
G01X54079Y36399D01*
G01X54140Y36388D01*
G01X54140Y36382D01*
G01X54018Y36356D01*
G01X53958Y36341D01*
G01X53898Y36327D01*
G01X53484Y36220D01*
G01X53484Y36144D01*
G01X53898Y36037D01*
G01X53958Y36024D01*
G01X54018Y36010D01*
G01X54140Y35984D01*
G01X54140Y35979D01*
G01X54079Y35967D01*
G01X53958Y35945D01*
G01X53898Y35933D01*
G01X53484Y35852D01*
G01X53484Y35765D01*
G01X54229Y35925D01*
G01X54229Y36024D01*
G01X53766Y36139D01*
G01X53723Y36149D01*
G01X53639Y36169D01*
G01X53596Y36179D01*
G01X53596Y36182D01*
G01X53639Y36191D01*
G01X53681Y36201D01*
G01X53723Y36210D01*
G01X53766Y36220D01*
G01X54229Y36337D01*
G01X54229Y36438D01*
G37*

%LPD*%
G36*
G01X53945Y35682D02*
G01X53853Y35687D01*
G01X53763Y35682D01*
G01X53685Y35670D01*
G01X53619Y35651D01*
G01X53566Y35625D01*
G01X53524Y35592D01*
G01X53495Y35552D01*
G01X53478Y35508D01*
G01X53472Y35458D01*
G01X53478Y35408D01*
G01X53495Y35363D01*
G01X53524Y35324D01*
G01X53566Y35291D01*
G01X53619Y35265D01*
G01X53685Y35246D01*
G01X53763Y35233D01*
G01X53853Y35229D01*
G01X53945Y35233D01*
G01X54024Y35246D01*
G01X54090Y35265D01*
G01X54145Y35291D01*
G01X54187Y35324D01*
G01X54217Y35363D01*
G01X54235Y35408D01*
G01X54241Y35458D01*
G01X54235Y35508D01*
G01X54217Y35552D01*
G01X54187Y35592D01*
G01X54145Y35625D01*
G01X54090Y35651D01*
G01X54024Y35670D01*
G01X53945Y35682D01*
G37*

%LPC*%
G36*
G01X53931Y35603D02*
G01X53853Y35605D01*
G01X53777Y35603D01*
G01X53712Y35595D01*
G01X53658Y35582D01*
G01X53614Y35565D01*
G01X53580Y35544D01*
G01X53556Y35518D01*
G01X53542Y35490D01*
G01X53538Y35458D01*
G01X53542Y35427D01*
G01X53556Y35398D01*
G01X53580Y35374D01*
G01X53614Y35352D01*
G01X53658Y35334D01*
G01X53712Y35321D01*
G01X53777Y35313D01*
G01X53853Y35311D01*
G01X53931Y35313D01*
G01X53997Y35321D01*
G01X54053Y35334D01*
G01X54098Y35352D01*
G01X54132Y35374D01*
G01X54156Y35398D01*
G01X54171Y35427D01*
G01X54175Y35458D01*
G01X54171Y35490D01*
G01X54156Y35518D01*
G01X54132Y35544D01*
G01X54098Y35565D01*
G01X54053Y35582D01*
G01X53997Y35595D01*
G01X53931Y35603D01*
G37*

%LPD*%
G36*
G01X53755Y35125D02*
G01X53700Y35130D01*
G01X53645Y35125D01*
G01X53599Y35110D01*
G01X53561Y35087D01*
G01X53532Y35055D01*
G01X53510Y35014D01*
G01X53495Y34967D01*
G01X53487Y34913D01*
G01X53484Y34853D01*
G01X53484Y34648D01*
G01X54229Y34648D01*
G01X54229Y34731D01*
G01X53929Y34731D01*
G01X53929Y34858D01*
G01X53925Y34917D01*
G01X53915Y34970D01*
G01X53897Y35016D01*
G01X53872Y35055D01*
G01X53840Y35087D01*
G01X53801Y35110D01*
G01X53755Y35125D01*
G37*

%LPC*%
G36*
G01X53772Y35034D02*
G01X53700Y35046D01*
G01X53630Y35034D01*
G01X53585Y34995D01*
G01X53560Y34931D01*
G01X53553Y34841D01*
G01X53553Y34731D01*
G01X53858Y34731D01*
G01X53858Y34846D01*
G01X53849Y34934D01*
G01X53821Y34997D01*
G01X53772Y35034D01*
G37*

%LPD*%

%LPD*%
G36*
G01X56642Y36255D02*
G01X56642Y36344D01*
G01X55897Y36088D01*
G01X55897Y35996D01*
G01X56642Y35742D01*
G01X56642Y35826D01*
G01X56408Y35902D01*
G01X56408Y36179D01*
G01X56642Y36255D01*
G37*

%LPC*%
G36*
G01X56342Y35925D02*
G01X56342Y36159D01*
G01X56220Y36121D01*
G01X56157Y36101D01*
G01X56095Y36081D01*
G01X56032Y36061D01*
G01X55968Y36042D01*
G01X55968Y36040D01*
G01X56033Y36021D01*
G01X56096Y36002D01*
G01X56158Y35984D01*
G01X56220Y35963D01*
G01X56342Y35925D01*
G37*

%LPD*%
G36*
G01X56358Y35682D02*
G01X56266Y35687D01*
G01X56176Y35682D01*
G01X56098Y35670D01*
G01X56032Y35651D01*
G01X55979Y35625D01*
G01X55937Y35592D01*
G01X55908Y35552D01*
G01X55891Y35508D01*
G01X55885Y35458D01*
G01X55891Y35408D01*
G01X55908Y35363D01*
G01X55937Y35324D01*
G01X55979Y35291D01*
G01X56032Y35265D01*
G01X56098Y35246D01*
G01X56176Y35233D01*
G01X56266Y35229D01*
G01X56358Y35233D01*
G01X56437Y35246D01*
G01X56503Y35265D01*
G01X56558Y35291D01*
G01X56600Y35324D01*
G01X56630Y35363D01*
G01X56648Y35408D01*
G01X56654Y35458D01*
G01X56648Y35508D01*
G01X56630Y35552D01*
G01X56600Y35592D01*
G01X56558Y35625D01*
G01X56503Y35651D01*
G01X56437Y35670D01*
G01X56358Y35682D01*
G37*

%LPC*%
G36*
G01X56344Y35603D02*
G01X56266Y35605D01*
G01X56190Y35603D01*
G01X56125Y35595D01*
G01X56071Y35582D01*
G01X56027Y35565D01*
G01X55993Y35544D01*
G01X55969Y35518D01*
G01X55955Y35490D01*
G01X55951Y35458D01*
G01X55955Y35427D01*
G01X55969Y35398D01*
G01X55993Y35374D01*
G01X56027Y35352D01*
G01X56071Y35334D01*
G01X56125Y35321D01*
G01X56190Y35313D01*
G01X56266Y35311D01*
G01X56344Y35313D01*
G01X56410Y35321D01*
G01X56466Y35334D01*
G01X56511Y35352D01*
G01X56545Y35374D01*
G01X56569Y35398D01*
G01X56584Y35427D01*
G01X56588Y35458D01*
G01X56584Y35490D01*
G01X56569Y35518D01*
G01X56545Y35544D01*
G01X56511Y35565D01*
G01X56466Y35582D01*
G01X56410Y35595D01*
G01X56344Y35603D01*
G37*

%LPD*%
G36*
G01X56168Y35125D02*
G01X56113Y35130D01*
G01X56058Y35125D01*
G01X56012Y35110D01*
G01X55974Y35087D01*
G01X55945Y35055D01*
G01X55923Y35014D01*
G01X55908Y34967D01*
G01X55900Y34913D01*
G01X55897Y34853D01*
G01X55897Y34648D01*
G01X56642Y34648D01*
G01X56642Y34731D01*
G01X56342Y34731D01*
G01X56342Y34858D01*
G01X56338Y34917D01*
G01X56328Y34970D01*
G01X56310Y35016D01*
G01X56285Y35055D01*
G01X56253Y35087D01*
G01X56214Y35110D01*
G01X56168Y35125D01*
G37*

%LPC*%
G36*
G01X56185Y35034D02*
G01X56113Y35046D01*
G01X56043Y35034D01*
G01X55998Y34995D01*
G01X55973Y34931D01*
G01X55966Y34841D01*
G01X55966Y34731D01*
G01X56271Y34731D01*
G01X56271Y34846D01*
G01X56262Y34934D01*
G01X56234Y34997D01*
G01X56185Y35034D01*
G37*

%LPD*%

%LPD*%
G36*
G01X65229Y35648D02*
G01X65184Y35694D01*
G01X65130Y35646D01*
G01X65167Y35608D01*
G01X65194Y35568D01*
G01X65211Y35522D01*
G01X65217Y35471D01*
G01X65211Y35419D01*
G01X65195Y35373D01*
G01X65168Y35332D01*
G01X65132Y35298D01*
G01X65086Y35271D01*
G01X65033Y35251D01*
G01X64972Y35238D01*
G01X64904Y35234D01*
G01X64836Y35239D01*
G01X64775Y35251D01*
G01X64722Y35272D01*
G01X64678Y35299D01*
G01X64642Y35334D01*
G01X64616Y35375D01*
G01X64600Y35421D01*
G01X64594Y35473D01*
G01X64599Y35520D01*
G01X64614Y35561D01*
G01X64636Y35597D01*
G01X64665Y35628D01*
G01X64612Y35676D01*
G01X64577Y35639D01*
G01X64548Y35593D01*
G01X64528Y35537D01*
G01X64521Y35473D01*
G01X64527Y35405D01*
G01X64548Y35343D01*
G01X64580Y35288D01*
G01X64624Y35240D01*
G01X64680Y35201D01*
G01X64746Y35172D01*
G01X64821Y35154D01*
G01X64907Y35148D01*
G01X64991Y35154D01*
G01X65067Y35172D01*
G01X65133Y35200D01*
G01X65188Y35238D01*
G01X65232Y35285D01*
G01X65264Y35340D01*
G01X65284Y35401D01*
G01X65290Y35468D01*
G01X65283Y35536D01*
G01X65263Y35596D01*
G01X65229Y35648D01*
G37*

%LPD*%
G36*
G01X65229Y35033D02*
G01X65184Y35079D01*
G01X65130Y35034D01*
G01X65167Y34996D01*
G01X65194Y34954D01*
G01X65211Y34909D01*
G01X65217Y34858D01*
G01X65211Y34806D01*
G01X65195Y34759D01*
G01X65168Y34718D01*
G01X65132Y34684D01*
G01X65086Y34656D01*
G01X65033Y34636D01*
G01X64972Y34624D01*
G01X64904Y34620D01*
G01X64836Y34624D01*
G01X64775Y34637D01*
G01X64722Y34658D01*
G01X64678Y34686D01*
G01X64642Y34721D01*
G01X64616Y34762D01*
G01X64600Y34809D01*
G01X64594Y34861D01*
G01X64599Y34906D01*
G01X64614Y34947D01*
G01X64636Y34983D01*
G01X64665Y35016D01*
G01X64612Y35062D01*
G01X64577Y35025D01*
G01X64548Y34978D01*
G01X64528Y34922D01*
G01X64521Y34858D01*
G01X64527Y34790D01*
G01X64548Y34728D01*
G01X64580Y34673D01*
G01X64624Y34625D01*
G01X64680Y34587D01*
G01X64746Y34558D01*
G01X64821Y34539D01*
G01X64907Y34533D01*
G01X64991Y34539D01*
G01X65067Y34558D01*
G01X65133Y34586D01*
G01X65188Y34625D01*
G01X65232Y34672D01*
G01X65264Y34726D01*
G01X65284Y34787D01*
G01X65290Y34853D01*
G01X65283Y34921D01*
G01X65263Y34981D01*
G01X65229Y35033D01*
G37*

%LPD*%
G36*
G01X65278Y34246D02*
G01X64533Y34483D01*
G01X64533Y34399D01*
G01X64945Y34274D01*
G01X65008Y34256D01*
G01X65128Y34220D01*
G01X65191Y34201D01*
G01X65191Y34198D01*
G01X65128Y34177D01*
G01X65068Y34159D01*
G01X65008Y34142D01*
G01X64945Y34124D01*
G01X64533Y34000D01*
G01X64533Y33911D01*
G01X65278Y34150D01*
G01X65278Y34246D01*
G37*

%LPD*%

%LPD*%
G36*
G01X67818Y36144D02*
G01X67073Y36144D01*
G01X67073Y36040D01*
G01X67480Y35895D01*
G01X67560Y35869D01*
G01X67600Y35857D01*
G01X67640Y35844D01*
G01X67640Y35839D01*
G01X67480Y35783D01*
G01X67073Y35638D01*
G01X67073Y35534D01*
G01X67818Y35534D01*
G01X67818Y35610D01*
G01X67388Y35610D01*
G01X67337Y35609D01*
G01X67281Y35607D01*
G01X67225Y35604D01*
G01X67172Y35600D01*
G01X67172Y35605D01*
G01X67340Y35664D01*
G01X67741Y35808D01*
G01X67741Y35867D01*
G01X67340Y36012D01*
G01X67172Y36073D01*
G01X67172Y36075D01*
G01X67225Y36073D01*
G01X67281Y36069D01*
G01X67337Y36066D01*
G01X67388Y36065D01*
G01X67818Y36065D01*
G01X67818Y36144D01*
G37*

%LPD*%
G36*
G01X67818Y35245D02*
G01X67073Y35402D01*
G01X67073Y35321D01*
G01X67487Y35239D01*
G01X67607Y35217D01*
G01X67668Y35205D01*
G01X67729Y35194D01*
G01X67729Y35189D01*
G01X67668Y35175D01*
G01X67607Y35162D01*
G01X67547Y35149D01*
G01X67487Y35135D01*
G01X67073Y35029D01*
G01X67073Y34950D01*
G01X67487Y34843D01*
G01X67547Y34830D01*
G01X67607Y34816D01*
G01X67729Y34790D01*
G01X67729Y34787D01*
G01X67668Y34776D01*
G01X67547Y34753D01*
G01X67487Y34742D01*
G01X67073Y34658D01*
G01X67073Y34571D01*
G01X67818Y34731D01*
G01X67818Y34831D01*
G01X67355Y34947D01*
G01X67312Y34957D01*
G01X67270Y34966D01*
G01X67228Y34976D01*
G01X67185Y34985D01*
G01X67185Y34991D01*
G01X67228Y34999D01*
G01X67270Y35007D01*
G01X67312Y35016D01*
G01X67355Y35026D01*
G01X67818Y35145D01*
G01X67818Y35245D01*
G37*

%LPD*%
G36*
G01X67344Y34490D02*
G01X67289Y34495D01*
G01X67234Y34490D01*
G01X67188Y34475D01*
G01X67150Y34452D01*
G01X67121Y34420D01*
G01X67099Y34379D01*
G01X67084Y34332D01*
G01X67076Y34278D01*
G01X67073Y34218D01*
G01X67073Y34013D01*
G01X67818Y34013D01*
G01X67818Y34096D01*
G01X67518Y34096D01*
G01X67518Y34223D01*
G01X67514Y34282D01*
G01X67504Y34335D01*
G01X67486Y34381D01*
G01X67461Y34420D01*
G01X67429Y34452D01*
G01X67390Y34475D01*
G01X67344Y34490D01*
G37*

%LPC*%
G36*
G01X67361Y34399D02*
G01X67289Y34411D01*
G01X67219Y34399D01*
G01X67174Y34360D01*
G01X67149Y34296D01*
G01X67142Y34206D01*
G01X67142Y34096D01*
G01X67447Y34096D01*
G01X67447Y34211D01*
G01X67438Y34299D01*
G01X67410Y34362D01*
G01X67361Y34399D01*
G37*

%LPD*%

%LPD*%
G36*
G01X74388Y624D02*
G01X74297Y624D01*
G01X74297Y254D01*
G01X74388Y254D01*
G01X74464Y266D01*
G01X74518Y304D01*
G01X74551Y363D01*
G01X74561Y441D01*
G01X74551Y519D01*
G01X74518Y577D01*
G01X74464Y612D01*
G01X74388Y624D01*
G37*

%LPC*%
G36*
G01X74383Y591D02*
G01X74338Y591D01*
G01X74338Y289D01*
G01X74383Y289D01*
G01X74443Y299D01*
G01X74485Y329D01*
G01X74510Y377D01*
G01X74518Y441D01*
G01X74510Y504D01*
G01X74485Y552D01*
G01X74443Y581D01*
G01X74383Y591D01*
G37*

%LPD*%
G36*
G01X73974Y624D02*
G01X73931Y624D01*
G01X73931Y254D01*
G01X73972Y254D01*
G01X73972Y457D01*
G01X73971Y485D01*
G01X73969Y543D01*
G01X73967Y571D01*
G01X73969Y571D01*
G01X74010Y495D01*
G01X74150Y254D01*
G01X74193Y254D01*
G01X74193Y624D01*
G01X74152Y624D01*
G01X74152Y424D01*
G01X74155Y337D01*
G01X74157Y309D01*
G01X74155Y309D01*
G01X74117Y386D01*
G01X73974Y624D01*
G37*

%LPD*%
G36*
G01X73766Y628D02*
G01X73731Y632D01*
G01X73664Y619D01*
G01X73611Y580D01*
G01X73576Y520D01*
G01X73563Y439D01*
G01X73575Y358D01*
G01X73609Y298D01*
G01X73662Y259D01*
G01X73728Y246D01*
G01X73764Y249D01*
G01X73795Y258D01*
G01X73821Y272D01*
G01X73842Y289D01*
G01X73842Y444D01*
G01X73723Y444D01*
G01X73723Y408D01*
G01X73802Y408D01*
G01X73802Y307D01*
G01X73789Y297D01*
G01X73772Y290D01*
G01X73753Y286D01*
G01X73733Y284D01*
G01X73679Y295D01*
G01X73639Y327D01*
G01X73615Y376D01*
G01X73606Y441D01*
G01X73615Y505D01*
G01X73640Y553D01*
G01X73680Y583D01*
G01X73733Y594D01*
G01X73759Y591D01*
G01X73780Y584D01*
G01X73799Y573D01*
G01X73814Y558D01*
G01X73837Y586D01*
G01X73819Y603D01*
G01X73796Y618D01*
G01X73766Y628D01*
G37*

%LPD*%

%LPD*%
G36*
G01X70896Y568D02*
G01X70860Y568D01*
G01X70860Y457D01*
G01X70759Y457D01*
G01X70759Y424D01*
G01X70860Y424D01*
G01X70860Y312D01*
G01X70896Y312D01*
G01X70896Y424D01*
G01X70998Y424D01*
G01X70998Y457D01*
G01X70896Y457D01*
G01X70896Y568D01*
G37*

%LPD*%
G36*
G01X71757Y624D02*
G01X71714Y624D01*
G01X71833Y254D01*
G01X71882Y254D01*
G01X72001Y624D01*
G01X71958Y624D01*
G01X71897Y421D01*
G01X71887Y389D01*
G01X71878Y358D01*
G01X71869Y328D01*
G01X71859Y297D01*
G01X71856Y297D01*
G01X71847Y328D01*
G01X71830Y389D01*
G01X71821Y421D01*
G01X71757Y624D01*
G37*

%LPD*%
G36*
G01X71606Y626D02*
G01X71564Y632D01*
G01X71535Y629D01*
G01X71509Y620D01*
G01X71484Y606D01*
G01X71462Y589D01*
G01X71485Y561D01*
G01X71502Y577D01*
G01X71521Y588D01*
G01X71542Y596D01*
G01X71564Y599D01*
G01X71591Y594D01*
G01X71611Y582D01*
G01X71623Y562D01*
G01X71628Y538D01*
G01X71622Y508D01*
G01X71605Y485D01*
G01X71573Y470D01*
G01X71523Y464D01*
G01X71523Y431D01*
G01X71578Y426D01*
G01X71615Y410D01*
G01X71636Y386D01*
G01X71643Y355D01*
G01X71637Y324D01*
G01X71620Y301D01*
G01X71595Y287D01*
G01X71564Y281D01*
G01X71535Y285D01*
G01X71510Y295D01*
G01X71488Y308D01*
G01X71470Y325D01*
G01X71450Y297D01*
G01X71470Y278D01*
G01X71495Y262D01*
G01X71527Y250D01*
G01X71567Y246D01*
G01X71613Y254D01*
G01X71650Y274D01*
G01X71674Y308D01*
G01X71683Y353D01*
G01X71677Y387D01*
G01X71660Y415D01*
G01X71635Y435D01*
G01X71605Y447D01*
G01X71605Y449D01*
G01X71631Y463D01*
G01X71652Y483D01*
G01X71666Y509D01*
G01X71671Y541D01*
G01X71663Y580D01*
G01X71640Y608D01*
G01X71606Y626D01*
G37*

%LPD*%
G36*
G01X71376Y309D02*
G01X71363Y312D01*
G01X71352Y309D01*
G01X71343Y303D01*
G01X71335Y293D01*
G01X71333Y279D01*
G01X71335Y266D01*
G01X71343Y256D01*
G01X71352Y248D01*
G01X71363Y246D01*
G01X71376Y248D01*
G01X71387Y256D01*
G01X71394Y266D01*
G01X71396Y279D01*
G01X71394Y293D01*
G01X71387Y303D01*
G01X71376Y309D01*
G37*

%LPD*%
G36*
G01X71192Y626D02*
G01X71150Y632D01*
G01X71120Y629D01*
G01X71092Y620D01*
G01X71068Y606D01*
G01X71046Y589D01*
G01X71069Y561D01*
G01X71085Y577D01*
G01X71104Y588D01*
G01X71125Y596D01*
G01X71147Y599D01*
G01X71175Y594D01*
G01X71196Y582D01*
G01X71209Y562D01*
G01X71213Y538D01*
G01X71208Y508D01*
G01X71190Y485D01*
G01X71157Y470D01*
G01X71107Y464D01*
G01X71107Y431D01*
G01X71162Y426D01*
G01X71199Y410D01*
G01X71220Y386D01*
G01X71226Y355D01*
G01X71220Y324D01*
G01X71204Y301D01*
G01X71179Y287D01*
G01X71147Y281D01*
G01X71118Y285D01*
G01X71093Y295D01*
G01X71072Y308D01*
G01X71053Y325D01*
G01X71033Y297D01*
G01X71053Y278D01*
G01X71078Y262D01*
G01X71110Y250D01*
G01X71150Y246D01*
G01X71196Y254D01*
G01X71233Y274D01*
G01X71258Y308D01*
G01X71267Y353D01*
G01X71261Y387D01*
G01X71243Y415D01*
G01X71219Y435D01*
G01X71188Y447D01*
G01X71188Y449D01*
G01X71216Y463D01*
G01X71236Y483D01*
G01X71250Y509D01*
G01X71254Y541D01*
G01X71247Y580D01*
G01X71225Y608D01*
G01X71192Y626D01*
G37*

%LPD*%

%LPD*%
G36*
G01X69466Y624D02*
G01X69197Y624D01*
G01X69197Y589D01*
G01X69308Y589D01*
G01X69308Y254D01*
G01X69352Y254D01*
G01X69352Y589D01*
G01X69466Y589D01*
G01X69466Y624D01*
G37*

%LPD*%
G36*
G01X68745Y624D02*
G01X68630Y624D01*
G01X68630Y254D01*
G01X68673Y254D01*
G01X68673Y414D01*
G01X68742Y414D01*
G01X68836Y254D01*
G01X68884Y254D01*
G01X68788Y419D01*
G01X68823Y431D01*
G01X68850Y453D01*
G01X68868Y483D01*
G01X68874Y523D01*
G01X68864Y571D01*
G01X68838Y602D01*
G01X68797Y619D01*
G01X68745Y624D01*
G37*

%LPC*%
G36*
G01X68740Y591D02*
G01X68673Y591D01*
G01X68673Y449D01*
G01X68740Y449D01*
G01X68779Y454D01*
G01X68807Y467D01*
G01X68825Y490D01*
G01X68831Y523D01*
G01X68825Y555D01*
G01X68807Y576D01*
G01X68779Y588D01*
G01X68740Y591D01*
G37*

%LPD*%
G36*
G01X69080Y629D02*
G01X69047Y632D01*
G01X69001Y625D01*
G01X68965Y605D01*
G01X68941Y574D01*
G01X68933Y535D01*
G01X68940Y499D01*
G01X68957Y472D01*
G01X68982Y454D01*
G01X69009Y441D01*
G01X69062Y416D01*
G01X69087Y404D01*
G01X69107Y391D01*
G01X69121Y373D01*
G01X69126Y347D01*
G01X69120Y322D01*
G01X69104Y301D01*
G01X69078Y289D01*
G01X69044Y284D01*
G01X69015Y287D01*
G01X68987Y297D01*
G01X68963Y312D01*
G01X68940Y332D01*
G01X68915Y302D01*
G01X68942Y279D01*
G01X68972Y262D01*
G01X69006Y250D01*
G01X69044Y246D01*
G01X69096Y254D01*
G01X69135Y276D01*
G01X69160Y309D01*
G01X69169Y350D01*
G01X69163Y387D01*
G01X69146Y414D01*
G01X69122Y435D01*
G01X69093Y452D01*
G01X69037Y474D01*
G01X69015Y483D01*
G01X68996Y496D01*
G01X68981Y514D01*
G01X68976Y538D01*
G01X68981Y562D01*
G01X68995Y579D01*
G01X69017Y590D01*
G01X69047Y594D01*
G01X69072Y591D01*
G01X69095Y585D01*
G01X69115Y574D01*
G01X69133Y558D01*
G01X69156Y586D01*
G01X69135Y605D01*
G01X69109Y620D01*
G01X69080Y629D01*
G37*

%LPD*%

%LPD*%
G36*
G01X66502Y624D02*
G01X66461Y624D01*
G01X66461Y254D01*
G01X66502Y254D01*
G01X66502Y373D01*
G01X66568Y452D01*
G01X66682Y254D01*
G01X66730Y254D01*
G01X66596Y485D01*
G01X66713Y624D01*
G01X66664Y624D01*
G01X66504Y434D01*
G01X66502Y434D01*
G01X66502Y624D01*
G37*

%LPD*%
G36*
G01X66311Y628D02*
G01X66278Y632D01*
G01X66213Y619D01*
G01X66162Y580D01*
G01X66128Y520D01*
G01X66116Y439D01*
G01X66128Y358D01*
G01X66161Y298D01*
G01X66212Y259D01*
G01X66276Y246D01*
G01X66310Y249D01*
G01X66340Y260D01*
G01X66366Y277D01*
G01X66390Y299D01*
G01X66367Y327D01*
G01X66347Y309D01*
G01X66327Y295D01*
G01X66304Y287D01*
G01X66278Y284D01*
G01X66228Y295D01*
G01X66191Y327D01*
G01X66167Y376D01*
G01X66159Y441D01*
G01X66168Y505D01*
G01X66192Y553D01*
G01X66231Y583D01*
G01X66281Y594D01*
G01X66303Y591D01*
G01X66323Y585D01*
G01X66341Y574D01*
G01X66357Y558D01*
G01X66380Y586D01*
G01X66362Y603D01*
G01X66339Y618D01*
G01X66311Y628D01*
G37*

%LPD*%
G36*
G01X65976Y629D02*
G01X65943Y632D01*
G01X65897Y625D01*
G01X65861Y605D01*
G01X65837Y574D01*
G01X65829Y535D01*
G01X65836Y499D01*
G01X65854Y472D01*
G01X65878Y454D01*
G01X65905Y441D01*
G01X65958Y416D01*
G01X65983Y404D01*
G01X66003Y391D01*
G01X66017Y373D01*
G01X66022Y347D01*
G01X66016Y322D01*
G01X66000Y301D01*
G01X65974Y289D01*
G01X65940Y284D01*
G01X65910Y287D01*
G01X65883Y297D01*
G01X65858Y312D01*
G01X65836Y332D01*
G01X65811Y302D01*
G01X65836Y279D01*
G01X65867Y262D01*
G01X65901Y250D01*
G01X65938Y246D01*
G01X65991Y254D01*
G01X66031Y276D01*
G01X66056Y309D01*
G01X66065Y350D01*
G01X66059Y387D01*
G01X66042Y414D01*
G01X66017Y435D01*
G01X65986Y452D01*
G01X65933Y474D01*
G01X65911Y483D01*
G01X65892Y496D01*
G01X65877Y514D01*
G01X65872Y538D01*
G01X65877Y562D01*
G01X65891Y579D01*
G01X65914Y590D01*
G01X65943Y594D01*
G01X65968Y591D01*
G01X65991Y585D01*
G01X66011Y574D01*
G01X66029Y558D01*
G01X66052Y586D01*
G01X66031Y605D01*
G01X66005Y620D01*
G01X65976Y629D01*
G37*

%LPD*%

%LPD*%
G36*
G01X63748Y624D02*
G01X63705Y624D01*
G01X63705Y254D01*
G01X63748Y254D01*
G01X63748Y624D01*
G37*

%LPD*%
G36*
G01X63350Y624D02*
G01X63296Y624D01*
G01X63296Y254D01*
G01X63334Y254D01*
G01X63334Y494D01*
G01X63333Y522D01*
G01X63331Y550D01*
G01X63329Y576D01*
G01X63332Y576D01*
G01X63362Y492D01*
G01X63436Y292D01*
G01X63464Y292D01*
G01X63538Y492D01*
G01X63566Y576D01*
G01X63568Y576D01*
G01X63566Y550D01*
G01X63564Y494D01*
G01X63563Y469D01*
G01X63563Y254D01*
G01X63601Y254D01*
G01X63601Y624D01*
G01X63550Y624D01*
G01X63477Y421D01*
G01X63465Y383D01*
G01X63458Y363D01*
G01X63451Y342D01*
G01X63449Y342D01*
G01X63443Y363D01*
G01X63436Y383D01*
G01X63429Y402D01*
G01X63423Y421D01*
G01X63350Y624D01*
G37*

%LPD*%
G36*
G01X64351Y619D02*
G01X64287Y632D01*
G01X64224Y619D01*
G01X64174Y581D01*
G01X64141Y521D01*
G01X64129Y441D01*
G01X64141Y361D01*
G01X64174Y299D01*
G01X64224Y260D01*
G01X64287Y246D01*
G01X64351Y260D01*
G01X64401Y299D01*
G01X64433Y361D01*
G01X64444Y441D01*
G01X64433Y521D01*
G01X64401Y581D01*
G01X64351Y619D01*
G37*

%LPC*%
G36*
G01X64334Y583D02*
G01X64287Y594D01*
G01X64240Y583D01*
G01X64204Y553D01*
G01X64181Y505D01*
G01X64173Y441D01*
G01X64181Y376D01*
G01X64204Y327D01*
G01X64240Y295D01*
G01X64287Y284D01*
G01X64334Y295D01*
G01X64370Y327D01*
G01X64393Y376D01*
G01X64401Y441D01*
G01X64393Y505D01*
G01X64370Y553D01*
G01X64334Y583D01*
G37*

%LPD*%
G36*
G01X63990Y629D02*
G01X63957Y632D01*
G01X63911Y625D01*
G01X63875Y605D01*
G01X63851Y574D01*
G01X63842Y535D01*
G01X63850Y499D01*
G01X63867Y472D01*
G01X63892Y454D01*
G01X63919Y441D01*
G01X63972Y416D01*
G01X63997Y404D01*
G01X64017Y391D01*
G01X64030Y373D01*
G01X64035Y347D01*
G01X64030Y322D01*
G01X64014Y301D01*
G01X63988Y289D01*
G01X63954Y284D01*
G01X63924Y287D01*
G01X63896Y297D01*
G01X63871Y312D01*
G01X63850Y332D01*
G01X63825Y302D01*
G01X63850Y279D01*
G01X63881Y262D01*
G01X63916Y250D01*
G01X63954Y246D01*
G01X64006Y254D01*
G01X64045Y276D01*
G01X64070Y309D01*
G01X64079Y350D01*
G01X64073Y387D01*
G01X64055Y414D01*
G01X64030Y435D01*
G01X64000Y452D01*
G01X63947Y474D01*
G01X63925Y483D01*
G01X63905Y496D01*
G01X63891Y514D01*
G01X63886Y538D01*
G01X63891Y562D01*
G01X63905Y579D01*
G01X63927Y590D01*
G01X63957Y594D01*
G01X63982Y591D01*
G01X64004Y585D01*
G01X64025Y574D01*
G01X64043Y558D01*
G01X64066Y586D01*
G01X64045Y605D01*
G01X64019Y620D01*
G01X63990Y629D01*
G37*

%LPD*%

%LPD*%
G36*
G01X61884Y624D02*
G01X61841Y624D01*
G01X61841Y254D01*
G01X61884Y254D01*
G01X61884Y624D01*
G37*

%LPD*%
G36*
G01X60810Y624D02*
G01X60756Y624D01*
G01X60756Y254D01*
G01X60794Y254D01*
G01X60794Y494D01*
G01X60793Y522D01*
G01X60791Y550D01*
G01X60789Y576D01*
G01X60792Y576D01*
G01X60822Y492D01*
G01X60896Y292D01*
G01X60924Y292D01*
G01X60998Y492D01*
G01X61026Y576D01*
G01X61028Y576D01*
G01X61026Y550D01*
G01X61024Y494D01*
G01X61023Y469D01*
G01X61023Y254D01*
G01X61061Y254D01*
G01X61061Y624D01*
G01X61010Y624D01*
G01X60937Y421D01*
G01X60925Y383D01*
G01X60918Y363D01*
G01X60911Y342D01*
G01X60909Y342D01*
G01X60903Y363D01*
G01X60896Y383D01*
G01X60889Y402D01*
G01X60883Y421D01*
G01X60810Y624D01*
G37*

%LPD*%
G36*
G01X61678Y629D02*
G01X61645Y632D01*
G01X61600Y625D01*
G01X61564Y605D01*
G01X61540Y574D01*
G01X61531Y535D01*
G01X61538Y499D01*
G01X61556Y472D01*
G01X61580Y454D01*
G01X61607Y441D01*
G01X61661Y416D01*
G01X61685Y404D01*
G01X61706Y391D01*
G01X61719Y373D01*
G01X61724Y347D01*
G01X61718Y322D01*
G01X61703Y301D01*
G01X61677Y289D01*
G01X61643Y284D01*
G01X61613Y287D01*
G01X61585Y297D01*
G01X61560Y312D01*
G01X61539Y332D01*
G01X61513Y302D01*
G01X61539Y279D01*
G01X61570Y262D01*
G01X61604Y250D01*
G01X61643Y246D01*
G01X61695Y254D01*
G01X61734Y276D01*
G01X61759Y309D01*
G01X61767Y350D01*
G01X61761Y387D01*
G01X61744Y414D01*
G01X61719Y435D01*
G01X61688Y452D01*
G01X61635Y474D01*
G01X61614Y483D01*
G01X61594Y496D01*
G01X61580Y514D01*
G01X61574Y538D01*
G01X61579Y562D01*
G01X61593Y579D01*
G01X61616Y590D01*
G01X61645Y594D01*
G01X61671Y591D01*
G01X61693Y585D01*
G01X61713Y574D01*
G01X61732Y558D01*
G01X61755Y586D01*
G01X61733Y605D01*
G01X61708Y620D01*
G01X61678Y629D01*
G37*

%LPD*%
G36*
G01X61364Y619D02*
G01X61300Y632D01*
G01X61237Y619D01*
G01X61188Y581D01*
G01X61156Y521D01*
G01X61145Y441D01*
G01X61156Y361D01*
G01X61188Y299D01*
G01X61237Y260D01*
G01X61300Y246D01*
G01X61364Y260D01*
G01X61414Y299D01*
G01X61446Y361D01*
G01X61457Y441D01*
G01X61446Y521D01*
G01X61414Y581D01*
G01X61364Y619D01*
G37*

%LPC*%
G36*
G01X61348Y583D02*
G01X61300Y594D01*
G01X61254Y583D01*
G01X61218Y553D01*
G01X61196Y505D01*
G01X61188Y441D01*
G01X61196Y376D01*
G01X61218Y327D01*
G01X61254Y295D01*
G01X61300Y284D01*
G01X61348Y295D01*
G01X61384Y327D01*
G01X61407Y376D01*
G01X61414Y441D01*
G01X61407Y505D01*
G01X61384Y553D01*
G01X61348Y583D01*
G37*

%LPD*%

%LPD*%
G36*
G01X32397Y1005D02*
G01X32128Y1005D01*
G01X32128Y970D01*
G01X32240Y970D01*
G01X32240Y635D01*
G01X32283Y635D01*
G01X32283Y970D01*
G01X32397Y970D01*
G01X32397Y1005D01*
G37*

%LPD*%
G36*
G01X31676Y1005D02*
G01X31562Y1005D01*
G01X31562Y635D01*
G01X31605Y635D01*
G01X31605Y795D01*
G01X31673Y795D01*
G01X31767Y635D01*
G01X31813Y635D01*
G01X31719Y800D01*
G01X31754Y812D01*
G01X31782Y834D01*
G01X31799Y864D01*
G01X31805Y904D01*
G01X31796Y952D01*
G01X31769Y983D01*
G01X31728Y1000D01*
G01X31676Y1005D01*
G37*

%LPC*%
G36*
G01X31668Y972D02*
G01X31605Y972D01*
G01X31605Y830D01*
G01X31668Y830D01*
G01X31709Y835D01*
G01X31738Y848D01*
G01X31756Y871D01*
G01X31762Y904D01*
G01X31756Y936D01*
G01X31738Y957D01*
G01X31709Y969D01*
G01X31668Y972D01*
G37*

%LPD*%
G36*
G01X31267Y1005D02*
G01X31221Y1005D01*
G01X31094Y635D01*
G01X31137Y635D01*
G01X31175Y751D01*
G01X31313Y751D01*
G01X31351Y635D01*
G01X31394Y635D01*
G01X31267Y1005D01*
G37*

%LPC*%
G36*
G01X31244Y972D02*
G01X31242Y972D01*
G01X31233Y939D01*
G01X31215Y877D01*
G01X31203Y845D01*
G01X31186Y784D01*
G01X31302Y784D01*
G01X31282Y845D01*
G01X31272Y877D01*
G01X31254Y939D01*
G01X31244Y972D01*
G37*

%LPD*%
G36*
G01X30713Y1005D02*
G01X30502Y1005D01*
G01X30502Y635D01*
G01X30718Y635D01*
G01X30718Y670D01*
G01X30543Y670D01*
G01X30543Y812D01*
G01X30685Y812D01*
G01X30685Y848D01*
G01X30543Y848D01*
G01X30543Y970D01*
G01X30713Y970D01*
G01X30713Y1005D01*
G37*

%LPD*%
G36*
G01X30144Y1005D02*
G01X30093Y1005D01*
G01X30093Y635D01*
G01X30132Y635D01*
G01X30132Y850D01*
G01X30131Y875D01*
G01X30130Y903D01*
G01X30128Y931D01*
G01X30126Y957D01*
G01X30129Y957D01*
G01X30157Y873D01*
G01X30231Y673D01*
G01X30259Y673D01*
G01X30332Y873D01*
G01X30363Y957D01*
G01X30362Y931D01*
G01X30360Y903D01*
G01X30359Y875D01*
G01X30358Y850D01*
G01X30358Y635D01*
G01X30398Y635D01*
G01X30398Y1005D01*
G01X30345Y1005D01*
G01X30274Y802D01*
G01X30260Y764D01*
G01X30254Y744D01*
G01X30248Y723D01*
G01X30246Y723D01*
G01X30239Y744D01*
G01X30232Y764D01*
G01X30218Y802D01*
G01X30144Y1005D01*
G37*

%LPD*%
G36*
G01X30025Y1005D02*
G01X29756Y1005D01*
G01X29756Y970D01*
G01X29870Y970D01*
G01X29870Y635D01*
G01X29911Y635D01*
G01X29911Y970D01*
G01X30025Y970D01*
G01X30025Y1005D01*
G37*

%LPD*%
G36*
G01X29639Y1005D02*
G01X29593Y1005D01*
G01X29466Y635D01*
G01X29509Y635D01*
G01X29547Y751D01*
G01X29684Y751D01*
G01X29723Y635D01*
G01X29766Y635D01*
G01X29639Y1005D01*
G37*

%LPC*%
G36*
G01X29616Y972D02*
G01X29613Y972D01*
G01X29605Y939D01*
G01X29596Y908D01*
G01X29586Y877D01*
G01X29575Y845D01*
G01X29557Y784D01*
G01X29674Y784D01*
G01X29654Y845D01*
G01X29644Y877D01*
G01X29626Y939D01*
G01X29616Y972D01*
G37*

%LPD*%
G36*
G01X32011Y1010D02*
G01X31978Y1013D01*
G01X31932Y1006D01*
G01X31896Y986D01*
G01X31872Y955D01*
G01X31864Y916D01*
G01X31871Y880D01*
G01X31889Y853D01*
G01X31913Y835D01*
G01X31940Y822D01*
G01X31993Y797D01*
G01X32018Y785D01*
G01X32039Y772D01*
G01X32052Y754D01*
G01X32057Y728D01*
G01X32051Y703D01*
G01X32036Y682D01*
G01X32010Y670D01*
G01X31976Y665D01*
G01X31946Y668D01*
G01X31918Y678D01*
G01X31893Y693D01*
G01X31871Y713D01*
G01X31846Y683D01*
G01X31871Y660D01*
G01X31902Y643D01*
G01X31937Y631D01*
G01X31976Y627D01*
G01X32027Y635D01*
G01X32066Y657D01*
G01X32091Y690D01*
G01X32100Y731D01*
G01X32094Y768D01*
G01X32077Y795D01*
G01X32052Y816D01*
G01X32021Y833D01*
G01X31968Y855D01*
G01X31947Y864D01*
G01X31927Y877D01*
G01X31913Y895D01*
G01X31907Y919D01*
G01X31912Y943D01*
G01X31926Y960D01*
G01X31949Y971D01*
G01X31978Y975D01*
G01X32004Y972D01*
G01X32026Y966D01*
G01X32046Y955D01*
G01X32064Y939D01*
G01X32087Y967D01*
G01X32066Y986D01*
G01X32040Y1001D01*
G01X32011Y1010D01*
G37*

%LPD*%
G36*
G01X30979Y1009D02*
G01X30944Y1013D01*
G01X30877Y1000D01*
G01X30824Y961D01*
G01X30789Y901D01*
G01X30777Y820D01*
G01X30789Y739D01*
G01X30823Y679D01*
G01X30875Y640D01*
G01X30942Y627D01*
G01X30977Y630D01*
G01X31008Y639D01*
G01X31035Y653D01*
G01X31056Y670D01*
G01X31056Y825D01*
G01X30937Y825D01*
G01X30937Y789D01*
G01X31015Y789D01*
G01X31015Y688D01*
G01X31002Y678D01*
G01X30986Y671D01*
G01X30967Y667D01*
G01X30947Y665D01*
G01X30893Y676D01*
G01X30853Y708D01*
G01X30828Y757D01*
G01X30820Y822D01*
G01X30828Y886D01*
G01X30854Y934D01*
G01X30894Y964D01*
G01X30947Y975D01*
G01X30973Y972D01*
G01X30994Y965D01*
G01X31012Y954D01*
G01X31028Y939D01*
G01X31051Y967D01*
G01X31033Y984D01*
G01X31009Y999D01*
G01X30979Y1009D01*
G37*

%LPD*%

%LPD*%
G36*
G01X19662Y1005D02*
G01X19616Y1005D01*
G01X19489Y635D01*
G01X19532Y635D01*
G01X19570Y751D01*
G01X19707Y751D01*
G01X19745Y635D01*
G01X19791Y635D01*
G01X19662Y1005D01*
G37*

%LPC*%
G36*
G01X19648Y939D02*
G01X19639Y972D01*
G01X19629Y939D01*
G01X19620Y908D01*
G01X19610Y877D01*
G01X19601Y845D01*
G01X19580Y784D01*
G01X19697Y784D01*
G01X19679Y845D01*
G01X19668Y877D01*
G01X19648Y939D01*
G37*

%LPD*%
G36*
G01X19306Y1005D02*
G01X19265Y1005D01*
G01X19265Y635D01*
G01X19471Y635D01*
G01X19471Y670D01*
G01X19306Y670D01*
G01X19306Y1005D01*
G37*

%LPD*%
G36*
G01X19199Y1005D02*
G01X18986Y1005D01*
G01X18986Y635D01*
G01X19029Y635D01*
G01X19029Y805D01*
G01X19171Y805D01*
G01X19171Y840D01*
G01X19029Y840D01*
G01X19029Y970D01*
G01X19199Y970D01*
G01X19199Y1005D01*
G37*

%LPD*%
G36*
G01X18658Y1005D02*
G01X18557Y1005D01*
G01X18557Y635D01*
G01X18597Y635D01*
G01X18597Y784D01*
G01X18661Y784D01*
G01X18717Y791D01*
G01X18760Y813D01*
G01X18788Y849D01*
G01X18798Y899D01*
G01X18788Y948D01*
G01X18759Y981D01*
G01X18716Y1000D01*
G01X18658Y1005D01*
G37*

%LPC*%
G36*
G01X18653Y972D02*
G01X18597Y972D01*
G01X18597Y820D01*
G01X18656Y820D01*
G01X18699Y824D01*
G01X18730Y838D01*
G01X18749Y863D01*
G01X18755Y899D01*
G01X18749Y934D01*
G01X18730Y957D01*
G01X18698Y969D01*
G01X18653Y972D01*
G37*

%LPD*%
G36*
G01X18171Y1005D02*
G01X17957Y1005D01*
G01X17957Y635D01*
G01X18176Y635D01*
G01X18176Y670D01*
G01X18000Y670D01*
G01X18000Y812D01*
G01X18143Y812D01*
G01X18143Y848D01*
G01X18000Y848D01*
G01X18000Y970D01*
G01X18171Y970D01*
G01X18171Y1005D01*
G37*

%LPD*%
G36*
G01X18393Y1010D02*
G01X18361Y1013D01*
G01X18315Y1006D01*
G01X18279Y986D01*
G01X18255Y955D01*
G01X18247Y916D01*
G01X18254Y880D01*
G01X18271Y853D01*
G01X18295Y835D01*
G01X18321Y822D01*
G01X18376Y797D01*
G01X18401Y785D01*
G01X18422Y772D01*
G01X18435Y754D01*
G01X18440Y728D01*
G01X18434Y703D01*
G01X18417Y682D01*
G01X18391Y670D01*
G01X18356Y665D01*
G01X18328Y668D01*
G01X18300Y678D01*
G01X18275Y693D01*
G01X18252Y713D01*
G01X18227Y683D01*
G01X18253Y660D01*
G01X18284Y643D01*
G01X18318Y631D01*
G01X18356Y627D01*
G01X18408Y635D01*
G01X18447Y657D01*
G01X18472Y690D01*
G01X18481Y731D01*
G01X18475Y768D01*
G01X18459Y795D01*
G01X18434Y816D01*
G01X18404Y833D01*
G01X18351Y855D01*
G01X18329Y864D01*
G01X18309Y877D01*
G01X18294Y895D01*
G01X18288Y919D01*
G01X18293Y943D01*
G01X18308Y960D01*
G01X18331Y971D01*
G01X18361Y975D01*
G01X18387Y972D01*
G01X18409Y966D01*
G01X18429Y955D01*
G01X18448Y939D01*
G01X18468Y967D01*
G01X18447Y986D01*
G01X18421Y1001D01*
G01X18393Y1010D01*
G37*

%LPD*%

%LPD*%
G36*
G01X8392Y1005D02*
G01X8122Y1005D01*
G01X8122Y970D01*
G01X8234Y970D01*
G01X8234Y635D01*
G01X8277Y635D01*
G01X8277Y970D01*
G01X8392Y970D01*
G01X8392Y1005D01*
G37*

%LPD*%
G36*
G01X7670Y1005D02*
G01X7556Y1005D01*
G01X7556Y635D01*
G01X7599Y635D01*
G01X7599Y795D01*
G01X7668Y795D01*
G01X7762Y635D01*
G01X7810Y635D01*
G01X7713Y800D01*
G01X7749Y812D01*
G01X7776Y834D01*
G01X7794Y864D01*
G01X7800Y904D01*
G01X7790Y952D01*
G01X7764Y983D01*
G01X7723Y1000D01*
G01X7670Y1005D01*
G37*

%LPC*%
G36*
G01X7665Y972D02*
G01X7599Y972D01*
G01X7599Y830D01*
G01X7665Y830D01*
G01X7704Y835D01*
G01X7733Y848D01*
G01X7751Y871D01*
G01X7757Y904D01*
G01X7751Y936D01*
G01X7733Y957D01*
G01X7704Y969D01*
G01X7665Y972D01*
G37*

%LPD*%
G36*
G01X7228Y1005D02*
G01X7127Y1005D01*
G01X7127Y635D01*
G01X7167Y635D01*
G01X7167Y784D01*
G01X7231Y784D01*
G01X7287Y791D01*
G01X7330Y813D01*
G01X7358Y849D01*
G01X7368Y899D01*
G01X7358Y948D01*
G01X7329Y981D01*
G01X7286Y1000D01*
G01X7228Y1005D01*
G37*

%LPC*%
G36*
G01X7223Y972D02*
G01X7167Y972D01*
G01X7167Y820D01*
G01X7226Y820D01*
G01X7269Y824D01*
G01X7300Y838D01*
G01X7319Y863D01*
G01X7325Y899D01*
G01X7319Y934D01*
G01X7300Y957D01*
G01X7268Y969D01*
G01X7223Y972D01*
G37*

%LPD*%
G36*
G01X6741Y1005D02*
G01X6527Y1005D01*
G01X6527Y635D01*
G01X6746Y635D01*
G01X6746Y670D01*
G01X6570Y670D01*
G01X6570Y812D01*
G01X6713Y812D01*
G01X6713Y848D01*
G01X6570Y848D01*
G01X6570Y970D01*
G01X6741Y970D01*
G01X6741Y1005D01*
G37*

%LPD*%
G36*
G01X8006Y1010D02*
G01X7973Y1013D01*
G01X7927Y1006D01*
G01X7891Y986D01*
G01X7867Y955D01*
G01X7858Y916D01*
G01X7865Y880D01*
G01X7883Y853D01*
G01X7908Y835D01*
G01X7934Y822D01*
G01X7988Y797D01*
G01X8013Y785D01*
G01X8033Y772D01*
G01X8046Y754D01*
G01X8051Y728D01*
G01X8046Y703D01*
G01X8030Y682D01*
G01X8004Y670D01*
G01X7970Y665D01*
G01X7941Y668D01*
G01X7913Y678D01*
G01X7888Y693D01*
G01X7866Y713D01*
G01X7840Y683D01*
G01X7867Y660D01*
G01X7898Y643D01*
G01X7932Y631D01*
G01X7970Y627D01*
G01X8022Y635D01*
G01X8061Y657D01*
G01X8086Y690D01*
G01X8094Y731D01*
G01X8088Y768D01*
G01X8072Y795D01*
G01X8047Y816D01*
G01X8018Y833D01*
G01X7962Y855D01*
G01X7941Y864D01*
G01X7921Y877D01*
G01X7907Y895D01*
G01X7901Y919D01*
G01X7907Y943D01*
G01X7921Y960D01*
G01X7943Y971D01*
G01X7973Y975D01*
G01X7998Y972D01*
G01X8020Y966D01*
G01X8041Y955D01*
G01X8059Y939D01*
G01X8082Y967D01*
G01X8060Y986D01*
G01X8035Y1001D01*
G01X8006Y1010D01*
G37*

%LPD*%
G36*
G01X6963Y1010D02*
G01X6931Y1013D01*
G01X6885Y1006D01*
G01X6849Y986D01*
G01X6825Y955D01*
G01X6817Y916D01*
G01X6824Y880D01*
G01X6841Y853D01*
G01X6865Y835D01*
G01X6891Y822D01*
G01X6946Y797D01*
G01X6971Y785D01*
G01X6992Y772D01*
G01X7005Y754D01*
G01X7010Y728D01*
G01X7004Y703D01*
G01X6987Y682D01*
G01X6961Y670D01*
G01X6926Y665D01*
G01X6898Y668D01*
G01X6870Y678D01*
G01X6845Y693D01*
G01X6822Y713D01*
G01X6797Y683D01*
G01X6823Y660D01*
G01X6854Y643D01*
G01X6888Y631D01*
G01X6926Y627D01*
G01X6978Y635D01*
G01X7017Y657D01*
G01X7042Y690D01*
G01X7051Y731D01*
G01X7045Y768D01*
G01X7029Y795D01*
G01X7004Y816D01*
G01X6974Y833D01*
G01X6921Y855D01*
G01X6899Y864D01*
G01X6879Y877D01*
G01X6864Y895D01*
G01X6858Y919D01*
G01X6863Y943D01*
G01X6878Y960D01*
G01X6901Y971D01*
G01X6931Y975D01*
G01X6957Y972D01*
G01X6979Y966D01*
G01X6999Y955D01*
G01X7018Y939D01*
G01X7038Y967D01*
G01X7017Y986D01*
G01X6991Y1001D01*
G01X6963Y1010D01*
G37*

%LPD*%

%LPD*%
G36*
G01X68356Y13959D02*
G01X68310Y13959D01*
G01X68183Y13589D01*
G01X68226Y13589D01*
G01X68265Y13705D01*
G01X68402Y13705D01*
G01X68440Y13589D01*
G01X68483Y13589D01*
G01X68356Y13959D01*
G37*

%LPC*%
G36*
G01X68333Y13926D02*
G01X68331Y13926D01*
G01X68322Y13893D01*
G01X68304Y13831D01*
G01X68292Y13799D01*
G01X68275Y13738D01*
G01X68392Y13738D01*
G01X68371Y13799D01*
G01X68362Y13831D01*
G01X68352Y13862D01*
G01X68343Y13893D01*
G01X68333Y13926D01*
G37*

%LPD*%
G36*
G01X67896Y13959D02*
G01X67787Y13959D01*
G01X67787Y13589D01*
G01X67904Y13589D01*
G01X67961Y13595D01*
G01X68005Y13615D01*
G01X68033Y13649D01*
G01X68044Y13698D01*
G01X68038Y13732D01*
G01X68023Y13758D01*
G01X67998Y13776D01*
G01X67967Y13787D01*
G01X67967Y13789D01*
G01X67991Y13801D01*
G01X68009Y13819D01*
G01X68020Y13843D01*
G01X68023Y13870D01*
G01X68014Y13911D01*
G01X67988Y13939D01*
G01X67948Y13954D01*
G01X67896Y13959D01*
G37*

%LPC*%
G36*
G01X67896Y13769D02*
G01X67830Y13769D01*
G01X67830Y13622D01*
G01X67896Y13622D01*
G01X67941Y13626D01*
G01X67974Y13641D01*
G01X67995Y13664D01*
G01X68003Y13698D01*
G01X67996Y13729D01*
G01X67975Y13752D01*
G01X67942Y13764D01*
G01X67896Y13769D01*
G37*
G36*
G01X67889Y13926D02*
G01X67830Y13926D01*
G01X67830Y13802D01*
G01X67886Y13802D01*
G01X67930Y13806D01*
G01X67959Y13818D01*
G01X67975Y13838D01*
G01X67980Y13865D01*
G01X67974Y13894D01*
G01X67957Y13913D01*
G01X67929Y13923D01*
G01X67889Y13926D01*
G37*

%LPD*%
G36*
G01X67251Y13959D02*
G01X67147Y13959D01*
G01X67147Y13589D01*
G01X67190Y13589D01*
G01X67190Y13738D01*
G01X67254Y13738D01*
G01X67309Y13745D01*
G01X67352Y13767D01*
G01X67379Y13803D01*
G01X67388Y13853D01*
G01X67379Y13902D01*
G01X67351Y13935D01*
G01X67308Y13954D01*
G01X67251Y13959D01*
G37*

%LPC*%
G36*
G01X67246Y13926D02*
G01X67190Y13926D01*
G01X67190Y13774D01*
G01X67246Y13774D01*
G01X67291Y13778D01*
G01X67323Y13792D01*
G01X67342Y13817D01*
G01X67348Y13853D01*
G01X67341Y13888D01*
G01X67322Y13911D01*
G01X67290Y13923D01*
G01X67246Y13926D01*
G37*

%LPD*%
G36*
G01X66944Y13959D02*
G01X66829Y13959D01*
G01X66829Y13589D01*
G01X66873Y13589D01*
G01X66873Y13749D01*
G01X66941Y13749D01*
G01X67035Y13589D01*
G01X67081Y13589D01*
G01X66984Y13754D01*
G01X67020Y13766D01*
G01X67047Y13788D01*
G01X67065Y13818D01*
G01X67071Y13858D01*
G01X67062Y13906D01*
G01X67036Y13937D01*
G01X66996Y13954D01*
G01X66944Y13959D01*
G37*

%LPC*%
G36*
G01X66936Y13926D02*
G01X66873Y13926D01*
G01X66873Y13784D01*
G01X66936Y13784D01*
G01X66977Y13789D01*
G01X67006Y13802D01*
G01X67024Y13825D01*
G01X67030Y13858D01*
G01X67024Y13890D01*
G01X67006Y13911D01*
G01X66977Y13923D01*
G01X66936Y13926D01*
G37*

%LPD*%
G36*
G01X68569Y13959D02*
G01X68526Y13959D01*
G01X68526Y13738D01*
G01X68536Y13665D01*
G01X68565Y13616D01*
G01X68606Y13589D01*
G01X68658Y13581D01*
G01X68710Y13589D01*
G01X68752Y13616D01*
G01X68780Y13665D01*
G01X68790Y13738D01*
G01X68790Y13959D01*
G01X68750Y13959D01*
G01X68750Y13738D01*
G01X68743Y13681D01*
G01X68723Y13644D01*
G01X68694Y13625D01*
G01X68658Y13619D01*
G01X68624Y13625D01*
G01X68596Y13644D01*
G01X68576Y13681D01*
G01X68569Y13738D01*
G01X68569Y13959D01*
G37*

%LPD*%
G36*
G01X67639Y13963D02*
G01X67607Y13967D01*
G01X67542Y13954D01*
G01X67490Y13915D01*
G01X67456Y13855D01*
G01X67444Y13774D01*
G01X67456Y13693D01*
G01X67490Y13633D01*
G01X67541Y13594D01*
G01X67604Y13581D01*
G01X67638Y13584D01*
G01X67668Y13595D01*
G01X67695Y13612D01*
G01X67718Y13634D01*
G01X67693Y13662D01*
G01X67675Y13644D01*
G01X67654Y13630D01*
G01X67632Y13622D01*
G01X67607Y13619D01*
G01X67557Y13630D01*
G01X67519Y13662D01*
G01X67495Y13711D01*
G01X67487Y13776D01*
G01X67496Y13840D01*
G01X67520Y13888D01*
G01X67558Y13918D01*
G01X67607Y13929D01*
G01X67630Y13926D01*
G01X67651Y13920D01*
G01X67669Y13909D01*
G01X67685Y13893D01*
G01X67708Y13921D01*
G01X67691Y13938D01*
G01X67667Y13953D01*
G01X67639Y13963D01*
G37*

%LPD*%
G36*
G01X66507Y13959D02*
G01X66464Y13959D01*
G01X66464Y13738D01*
G01X66474Y13665D01*
G01X66502Y13616D01*
G01X66544Y13589D01*
G01X66596Y13581D01*
G01X66648Y13589D01*
G01X66689Y13616D01*
G01X66718Y13665D01*
G01X66728Y13738D01*
G01X66728Y13959D01*
G01X66687Y13959D01*
G01X66687Y13738D01*
G01X66680Y13681D01*
G01X66661Y13644D01*
G01X66631Y13625D01*
G01X66596Y13619D01*
G01X66562Y13625D01*
G01X66533Y13644D01*
G01X66514Y13681D01*
G01X66507Y13738D01*
G01X66507Y13959D01*
G37*

%LPD*%
G36*
G01X66290Y13954D02*
G01X66227Y13967D01*
G01X66163Y13954D01*
G01X66114Y13916D01*
G01X66081Y13856D01*
G01X66070Y13776D01*
G01X66081Y13696D01*
G01X66114Y13634D01*
G01X66163Y13595D01*
G01X66227Y13581D01*
G01X66290Y13595D01*
G01X66340Y13634D01*
G01X66373Y13696D01*
G01X66385Y13776D01*
G01X66373Y13856D01*
G01X66340Y13916D01*
G01X66290Y13954D01*
G37*

%LPC*%
G36*
G01X66274Y13918D02*
G01X66227Y13929D01*
G01X66181Y13918D01*
G01X66145Y13888D01*
G01X66121Y13840D01*
G01X66113Y13776D01*
G01X66121Y13711D01*
G01X66145Y13662D01*
G01X66181Y13630D01*
G01X66227Y13619D01*
G01X66274Y13630D01*
G01X66310Y13662D01*
G01X66334Y13711D01*
G01X66342Y13776D01*
G01X66334Y13840D01*
G01X66310Y13888D01*
G01X66274Y13918D01*
G37*

%LPD*%
G54D39*
G01X32349Y38844D02*
G01X32245Y38948D01*
G01X32090Y38999D01*
G01X31882Y38999D01*
G01X31727Y38948D01*
G01X31623Y38844D01*
G01X31623Y38740D01*
G01X31673Y38635D01*
G01X31727Y38582D01*
G01X31831Y38531D01*
G01X32143Y38427D01*
G01X32245Y38376D01*
G01X32298Y38323D01*
G01X32349Y38219D01*
G01X32349Y38064D01*
G01X32245Y37960D01*
G01X32090Y37909D01*
G01X31882Y37909D01*
G01X31727Y37960D01*
G01X31623Y38064D01*
G01X32692Y38999D02*
G01X32692Y37909D01*
G01X32692Y38999D02*
G01X33367Y38999D01*
G01X32692Y38481D02*
G01X33108Y38481D01*
G01X32692Y37909D02*
G01X33367Y37909D01*
G01X33710Y38999D02*
G01X33710Y37909D01*
G01X33710Y38999D02*
G01X34439Y37909D01*
G01X34439Y38999D02*
G01X34439Y37909D01*
G01X35509Y38844D02*
G01X35405Y38948D01*
G01X35250Y38999D01*
G01X35041Y38999D01*
G01X34886Y38948D01*
G01X34782Y38844D01*
G01X34782Y38740D01*
G01X34833Y38635D01*
G01X34886Y38582D01*
G01X34988Y38531D01*
G01X35300Y38427D01*
G01X35405Y38376D01*
G01X35458Y38323D01*
G01X35509Y38219D01*
G01X35509Y38064D01*
G01X35405Y37960D01*
G01X35250Y37909D01*
G01X35041Y37909D01*
G01X34886Y37960D01*
G01X34782Y38064D01*
G01X35852Y38999D02*
G01X35852Y37909D01*
G01X35852Y38999D02*
G01X36527Y38999D01*
G01X35852Y38481D02*
G01X36268Y38481D01*
G01X35852Y37909D02*
G01X36527Y37909D01*
G01X40005Y4691D02*
G01X40005Y3736D01*
G01X40005Y4691D02*
G01X40596Y4691D01*
G01X40005Y4236D02*
G01X40368Y4236D01*
G01X40005Y3736D02*
G01X40596Y3736D01*
G01X41531Y4556D02*
G01X41440Y4645D01*
G01X41305Y4691D01*
G01X41122Y4691D01*
G01X40987Y4645D01*
G01X40896Y4556D01*
G01X40896Y4465D01*
G01X40942Y4373D01*
G01X40987Y4328D01*
G01X41076Y4282D01*
G01X41351Y4191D01*
G01X41440Y4147D01*
G01X41485Y4102D01*
G01X41531Y4010D01*
G01X41531Y3873D01*
G01X41440Y3782D01*
G01X41305Y3736D01*
G01X41122Y3736D01*
G01X40987Y3782D01*
G01X40896Y3873D01*
G01X41831Y4691D02*
G01X41831Y3736D01*
G01X41831Y4691D02*
G01X42240Y4691D01*
G01X42377Y4645D01*
G01X42423Y4599D01*
G01X42468Y4511D01*
G01X42468Y4373D01*
G01X42423Y4282D01*
G01X42377Y4236D01*
G01X42240Y4191D01*
G01X41831Y4191D01*
G01X42768Y4147D02*
G01X43586Y4147D01*
G01X43886Y4691D02*
G01X43886Y4010D01*
G01X43931Y3873D01*
G01X44023Y3782D01*
G01X44160Y3736D01*
G01X44249Y3736D01*
G01X44386Y3782D01*
G01X44477Y3873D01*
G01X44523Y4010D01*
G01X44523Y4691D01*
G01X45186Y4691D02*
G01X44823Y3736D01*
G01X45186Y4691D02*
G01X45549Y3736D01*
G01X44960Y4056D02*
G01X45415Y4056D01*
G01X45849Y4691D02*
G01X45849Y3736D01*
G01X45849Y4691D02*
G01X46258Y4691D01*
G01X46395Y4645D01*
G01X46441Y4599D01*
G01X46487Y4511D01*
G01X46487Y4419D01*
G01X46441Y4328D01*
G01X46395Y4282D01*
G01X46258Y4236D01*
G01X45849Y4236D01*
G01X46169Y4236D02*
G01X46487Y3736D01*
G01X47104Y4691D02*
G01X47104Y3736D01*
G01X46786Y4691D02*
G01X47424Y4691D01*
G01X89154Y2550D02*
G01X89154Y1460D01*
G01X89154Y2550D02*
G01X89621Y2550D01*
G01X89776Y2499D01*
G01X89829Y2446D01*
G01X89880Y2341D01*
G01X89880Y2237D01*
G01X89829Y2133D01*
G01X89776Y2082D01*
G01X89621Y2032D01*
G01X89154Y2032D01*
G01X89517Y2032D02*
G01X89880Y1460D01*
G01X90484Y2550D02*
G01X90327Y2499D01*
G01X90276Y2395D01*
G01X90276Y2291D01*
G01X90327Y2186D01*
G01X90431Y2133D01*
G01X90639Y2082D01*
G01X90794Y2032D01*
G01X90898Y1927D01*
G01X90952Y1823D01*
G01X90952Y1666D01*
G01X90898Y1562D01*
G01X90848Y1511D01*
G01X90690Y1460D01*
G01X90484Y1460D01*
G01X90327Y1511D01*
G01X90276Y1562D01*
G01X90223Y1666D01*
G01X90223Y1823D01*
G01X90276Y1927D01*
G01X90380Y2032D01*
G01X90535Y2082D01*
G01X90744Y2133D01*
G01X90848Y2186D01*
G01X90898Y2291D01*
G01X90898Y2395D01*
G01X90848Y2499D01*
G01X90690Y2550D01*
G01X90484Y2550D01*
G01X86995Y2677D02*
G01X86995Y1587D01*
G01X86995Y2677D02*
G01X87462Y2677D01*
G01X87617Y2626D01*
G01X87670Y2573D01*
G01X87721Y2468D01*
G01X87721Y2364D01*
G01X87670Y2260D01*
G01X87617Y2209D01*
G01X87462Y2159D01*
G01X86995Y2159D01*
G01X87358Y2159D02*
G01X87721Y1587D01*
G01X88793Y2677D02*
G01X88272Y1587D01*
G01X88064Y2677D02*
G01X88793Y2677D01*
G01X55862Y2405D02*
G01X55499Y1450D01*
G01X55862Y2405D02*
G01X56225Y1450D01*
G01X55636Y1770D02*
G01X56090Y1770D01*
G01X56525Y1861D02*
G01X57345Y1861D01*
G01X58280Y2270D02*
G01X58188Y2359D01*
G01X58054Y2405D01*
G01X57871Y2405D01*
G01X57734Y2359D01*
G01X57645Y2270D01*
G01X57645Y2179D01*
G01X57691Y2087D01*
G01X57734Y2042D01*
G01X57825Y1996D01*
G01X58099Y1905D01*
G01X58188Y1861D01*
G01X58234Y1816D01*
G01X58280Y1724D01*
G01X58280Y1587D01*
G01X58188Y1496D01*
G01X58054Y1450D01*
G01X57871Y1450D01*
G01X57734Y1496D01*
G01X57645Y1587D01*
G01X58580Y2405D02*
G01X58580Y1450D01*
G01X58580Y2405D02*
G01X58988Y2405D01*
G01X59126Y2359D01*
G01X59171Y2313D01*
G01X59217Y2225D01*
G01X59217Y2087D01*
G01X59171Y1996D01*
G01X59126Y1950D01*
G01X58988Y1905D01*
G01X58580Y1905D01*
G01X59517Y2405D02*
G01X59517Y1450D01*
G01X80264Y2677D02*
G01X80264Y1587D01*
G01X80264Y2677D02*
G01X80731Y2677D01*
G01X80886Y2626D01*
G01X80939Y2573D01*
G01X80990Y2468D01*
G01X80990Y2364D01*
G01X80939Y2260D01*
G01X80886Y2209D01*
G01X80731Y2159D01*
G01X80264Y2159D01*
G01X80627Y2159D02*
G01X80990Y1587D01*
G01X81333Y2468D02*
G01X81437Y2522D01*
G01X81594Y2677D01*
G01X81594Y1587D01*
G01X82247Y2677D02*
G01X82092Y2626D01*
G01X81988Y2468D01*
G01X81937Y2209D01*
G01X81937Y2054D01*
G01X81988Y1793D01*
G01X82092Y1638D01*
G01X82247Y1587D01*
G01X82351Y1587D01*
G01X82509Y1638D01*
G01X82613Y1793D01*
G01X82664Y2054D01*
G01X82664Y2209D01*
G01X82613Y2468D01*
G01X82509Y2626D01*
G01X82351Y2677D01*
G01X82247Y2677D01*
G01X30624Y31374D02*
G01X30571Y31478D01*
G01X30467Y31582D01*
G01X30365Y31633D01*
G01X30157Y31633D01*
G01X30053Y31582D01*
G01X29949Y31478D01*
G01X29895Y31374D01*
G01X29845Y31216D01*
G01X29845Y30957D01*
G01X29895Y30802D01*
G01X29949Y30698D01*
G01X30053Y30594D01*
G01X30157Y30543D01*
G01X30365Y30543D01*
G01X30467Y30594D01*
G01X30571Y30698D01*
G01X30624Y30802D01*
G01X31485Y31633D02*
G01X30967Y30906D01*
G01X31747Y30906D01*
G01X31485Y31633D02*
G01X31485Y30543D01*
G01X62628Y3942D02*
G01X62575Y4046D01*
G01X62471Y4150D01*
G01X62369Y4201D01*
G01X62161Y4201D01*
G01X62057Y4150D01*
G01X61953Y4046D01*
G01X61899Y3942D01*
G01X61849Y3784D01*
G01X61849Y3525D01*
G01X61899Y3370D01*
G01X61953Y3266D01*
G01X62057Y3162D01*
G01X62161Y3111D01*
G01X62369Y3111D01*
G01X62471Y3162D01*
G01X62575Y3266D01*
G01X62628Y3370D01*
G01X62971Y3992D02*
G01X63075Y4046D01*
G01X63230Y4201D01*
G01X63230Y3111D01*
G01X63886Y4201D02*
G01X63728Y4150D01*
G01X63627Y3992D01*
G01X63573Y3733D01*
G01X63573Y3578D01*
G01X63627Y3317D01*
G01X63728Y3162D01*
G01X63886Y3111D01*
G01X63990Y3111D01*
G01X64145Y3162D01*
G01X64249Y3317D01*
G01X64300Y3578D01*
G01X64300Y3733D01*
G01X64249Y3992D01*
G01X64145Y4150D01*
G01X63990Y4201D01*
G01X63886Y4201D01*
G01X84853Y24135D02*
G01X84800Y24239D01*
G01X84696Y24343D01*
G01X84594Y24394D01*
G01X84386Y24394D01*
G01X84282Y24343D01*
G01X84178Y24239D01*
G01X84124Y24135D01*
G01X84074Y23977D01*
G01X84074Y23718D01*
G01X84124Y23563D01*
G01X84178Y23459D01*
G01X84282Y23355D01*
G01X84386Y23304D01*
G01X84594Y23304D01*
G01X84696Y23355D01*
G01X84800Y23459D01*
G01X84853Y23563D01*
G01X85196Y24185D02*
G01X85300Y24239D01*
G01X85455Y24394D01*
G01X85455Y23304D01*
G01X85852Y24135D02*
G01X85852Y24185D01*
G01X85902Y24290D01*
G01X85953Y24343D01*
G01X86057Y24394D01*
G01X86266Y24394D01*
G01X86370Y24343D01*
G01X86423Y24290D01*
G01X86474Y24185D01*
G01X86474Y24081D01*
G01X86423Y23977D01*
G01X86319Y23822D01*
G01X85798Y23304D01*
G01X86525Y23304D01*
G01X69232Y3815D02*
G01X69179Y3919D01*
G01X69075Y4023D01*
G01X68973Y4074D01*
G01X68765Y4074D01*
G01X68661Y4023D01*
G01X68557Y3919D01*
G01X68503Y3815D01*
G01X68453Y3657D01*
G01X68453Y3398D01*
G01X68503Y3243D01*
G01X68557Y3139D01*
G01X68661Y3035D01*
G01X68765Y2984D01*
G01X68973Y2984D01*
G01X69075Y3035D01*
G01X69179Y3139D01*
G01X69232Y3243D01*
G01X70302Y4074D02*
G01X69783Y2984D01*
G01X69575Y4074D02*
G01X70302Y4074D01*
G01X75709Y3942D02*
G01X75656Y4046D01*
G01X75552Y4150D01*
G01X75450Y4201D01*
G01X75242Y4201D01*
G01X75138Y4150D01*
G01X75034Y4046D01*
G01X74980Y3942D01*
G01X74930Y3784D01*
G01X74930Y3525D01*
G01X74980Y3370D01*
G01X75034Y3266D01*
G01X75138Y3162D01*
G01X75242Y3111D01*
G01X75450Y3111D01*
G01X75552Y3162D01*
G01X75656Y3266D01*
G01X75709Y3370D01*
G01X76156Y4201D02*
G01X76728Y4201D01*
G01X76415Y3784D01*
G01X76570Y3784D01*
G01X76674Y3733D01*
G01X76728Y3683D01*
G01X76779Y3525D01*
G01X76779Y3421D01*
G01X76728Y3266D01*
G01X76624Y3162D01*
G01X76466Y3111D01*
G01X76311Y3111D01*
G01X76156Y3162D01*
G01X76103Y3213D01*
G01X76052Y3317D01*
G01X35577Y31247D02*
G01X35524Y31351D01*
G01X35420Y31455D01*
G01X35318Y31506D01*
G01X35110Y31506D01*
G01X35006Y31455D01*
G01X34902Y31351D01*
G01X34848Y31247D01*
G01X34798Y31089D01*
G01X34798Y30830D01*
G01X34848Y30675D01*
G01X34902Y30571D01*
G01X35006Y30467D01*
G01X35110Y30416D01*
G01X35318Y30416D01*
G01X35420Y30467D01*
G01X35524Y30571D01*
G01X35577Y30675D01*
G01X36542Y31506D02*
G01X36024Y31506D01*
G01X35971Y31038D01*
G01X36024Y31089D01*
G01X36179Y31142D01*
G01X36334Y31142D01*
G01X36492Y31089D01*
G01X36596Y30988D01*
G01X36647Y30830D01*
G01X36647Y30726D01*
G01X36596Y30571D01*
G01X36492Y30467D01*
G01X36334Y30416D01*
G01X36179Y30416D01*
G01X36024Y30467D01*
G01X35971Y30518D01*
G01X35920Y30622D01*
G01X72009Y25791D02*
G01X72009Y25011D01*
G01X72059Y24856D01*
G01X72163Y24752D01*
G01X72321Y24701D01*
G01X72425Y24701D01*
G01X72580Y24752D01*
G01X72684Y24856D01*
G01X72735Y25011D01*
G01X72735Y25791D01*
G01X73703Y25791D02*
G01X73182Y25791D01*
G01X73131Y25323D01*
G01X73182Y25374D01*
G01X73339Y25427D01*
G01X73494Y25427D01*
G01X73649Y25374D01*
G01X73753Y25273D01*
G01X73807Y25115D01*
G01X73807Y25011D01*
G01X73753Y24856D01*
G01X73649Y24752D01*
G01X73494Y24701D01*
G01X73339Y24701D01*
G01X73182Y24752D01*
G01X73131Y24803D01*
G01X73078Y24907D01*
G01X37084Y17155D02*
G01X37084Y16375D01*
G01X37134Y16220D01*
G01X37238Y16116D01*
G01X37396Y16065D01*
G01X37500Y16065D01*
G01X37655Y16116D01*
G01X37759Y16220D01*
G01X37810Y16375D01*
G01X37810Y17155D01*
G01X38153Y16946D02*
G01X38257Y17000D01*
G01X38414Y17155D01*
G01X38414Y16065D01*
G01X51435Y10424D02*
G01X51435Y9644D01*
G01X51485Y9489D01*
G01X51589Y9385D01*
G01X51747Y9334D01*
G01X51851Y9334D01*
G01X52006Y9385D01*
G01X52110Y9489D01*
G01X52161Y9644D01*
G01X52161Y10424D01*
G01X53025Y10424D02*
G01X52504Y9697D01*
G01X53284Y9697D01*
G01X53025Y10424D02*
G01X53025Y9334D01*
G01X7457Y8745D02*
G01X7353Y8849D01*
G01X7198Y8900D01*
G01X6990Y8900D01*
G01X6835Y8849D01*
G01X6731Y8745D01*
G01X6731Y8641D01*
G01X6781Y8536D01*
G01X6835Y8483D01*
G01X6939Y8432D01*
G01X7251Y8328D01*
G01X7353Y8277D01*
G01X7406Y8224D01*
G01X7457Y8120D01*
G01X7457Y7965D01*
G01X7353Y7861D01*
G01X7198Y7810D01*
G01X6990Y7810D01*
G01X6835Y7861D01*
G01X6731Y7965D01*
G01X7800Y8900D02*
G01X8061Y7810D01*
G01X8321Y8900D02*
G01X8061Y7810D01*
G01X8321Y8900D02*
G01X8580Y7810D01*
G01X8839Y8900D02*
G01X8580Y7810D01*
G01X9182Y8691D02*
G01X9286Y8745D01*
G01X9443Y8900D01*
G01X9443Y7810D01*
G01X18760Y8745D02*
G01X18656Y8849D01*
G01X18501Y8900D01*
G01X18292Y8900D01*
G01X18138Y8849D01*
G01X18033Y8745D01*
G01X18033Y8641D01*
G01X18084Y8536D01*
G01X18138Y8483D01*
G01X18242Y8432D01*
G01X18554Y8328D01*
G01X18656Y8277D01*
G01X18709Y8224D01*
G01X18760Y8120D01*
G01X18760Y7965D01*
G01X18656Y7861D01*
G01X18501Y7810D01*
G01X18292Y7810D01*
G01X18138Y7861D01*
G01X18033Y7965D01*
G01X19103Y8900D02*
G01X19364Y7810D01*
G01X19623Y8900D02*
G01X19364Y7810D01*
G01X19623Y8900D02*
G01X19882Y7810D01*
G01X20142Y8900D02*
G01X19882Y7810D01*
G01X20538Y8641D02*
G01X20538Y8691D01*
G01X20589Y8796D01*
G01X20642Y8849D01*
G01X20746Y8900D01*
G01X20954Y8900D01*
G01X21056Y8849D01*
G01X21109Y8796D01*
G01X21160Y8691D01*
G01X21160Y8587D01*
G01X21109Y8483D01*
G01X21005Y8328D01*
G01X20484Y7810D01*
G01X21213Y7810D01*
G01X30063Y8872D02*
G01X29959Y8976D01*
G01X29804Y9027D01*
G01X29595Y9027D01*
G01X29441Y8976D01*
G01X29336Y8872D01*
G01X29336Y8768D01*
G01X29387Y8663D01*
G01X29441Y8610D01*
G01X29545Y8559D01*
G01X29857Y8455D01*
G01X29959Y8404D01*
G01X30012Y8351D01*
G01X30063Y8247D01*
G01X30063Y8092D01*
G01X29959Y7988D01*
G01X29804Y7937D01*
G01X29595Y7937D01*
G01X29441Y7988D01*
G01X29336Y8092D01*
G01X30406Y9027D02*
G01X30667Y7937D01*
G01X30926Y9027D02*
G01X30667Y7937D01*
G01X30926Y9027D02*
G01X31185Y7937D01*
G01X31445Y9027D02*
G01X31185Y7937D01*
G01X31892Y9027D02*
G01X32463Y9027D01*
G01X32153Y8610D01*
G01X32308Y8610D01*
G01X32412Y8559D01*
G01X32463Y8509D01*
G01X32516Y8351D01*
G01X32516Y8247D01*
G01X32463Y8092D01*
G01X32359Y7988D01*
G01X32204Y7937D01*
G01X32049Y7937D01*
G01X31892Y7988D01*
G01X31841Y8039D01*
G01X31787Y8143D01*
G01X32893Y25664D02*
G01X33619Y24574D01*
G01X33619Y25664D02*
G01X32893Y24574D01*
G01X33962Y25455D02*
G01X34066Y25509D01*
G01X34223Y25664D01*
G01X34223Y24574D01*
G01X82296Y14742D02*
G01X82296Y13652D01*
G01X82296Y13652D02*
G01X82918Y13652D01*
G01X83261Y14533D02*
G01X83365Y14587D01*
G01X83522Y14742D01*
G01X83522Y13652D01*
G01X91567Y10170D02*
G01X91567Y9390D01*
G01X91617Y9235D01*
G01X91721Y9131D01*
G01X91879Y9080D01*
G01X91983Y9080D01*
G01X92138Y9131D01*
G01X92242Y9235D01*
G01X92293Y9390D01*
G01X92293Y10170D01*
G01X92740Y10170D02*
G01X93311Y10170D01*
G01X93002Y9753D01*
G01X93157Y9753D01*
G01X93261Y9702D01*
G01X93311Y9652D01*
G01X93365Y9494D01*
G01X93365Y9390D01*
G01X93311Y9235D01*
G01X93207Y9131D01*
G01X93052Y9080D01*
G01X92897Y9080D01*
G01X92740Y9131D01*
G01X92689Y9182D01*
G01X92636Y9286D01*
G01X44069Y25918D02*
G01X44069Y24828D01*
G01X44069Y25918D02*
G01X44536Y25918D01*
G01X44691Y25867D01*
G01X44744Y25814D01*
G01X44795Y25709D01*
G01X44795Y25605D01*
G01X44744Y25501D01*
G01X44691Y25450D01*
G01X44536Y25400D01*
G01X44069Y25400D01*
G01X44432Y25400D02*
G01X44795Y24828D01*
G01X45138Y25709D02*
G01X45242Y25763D01*
G01X45400Y25918D01*
G01X45400Y24828D01*
G01X46365Y25918D02*
G01X45847Y25918D01*
G01X45793Y25450D01*
G01X45847Y25501D01*
G01X46002Y25554D01*
G01X46156Y25554D01*
G01X46314Y25501D01*
G01X46418Y25400D01*
G01X46469Y25242D01*
G01X46469Y25138D01*
G01X46418Y24983D01*
G01X46314Y24879D01*
G01X46156Y24828D01*
G01X46002Y24828D01*
G01X45847Y24879D01*
G01X45793Y24930D01*
G01X45742Y25034D01*
G01X48767Y26045D02*
G01X48767Y24955D01*
G01X48767Y26045D02*
G01X49234Y26045D01*
G01X49389Y25994D01*
G01X49442Y25941D01*
G01X49493Y25836D01*
G01X49493Y25732D01*
G01X49442Y25628D01*
G01X49389Y25577D01*
G01X49234Y25527D01*
G01X48767Y25527D01*
G01X49130Y25527D02*
G01X49493Y24955D01*
G01X49836Y25836D02*
G01X49940Y25890D01*
G01X50098Y26045D01*
G01X50098Y24955D01*
G01X51063Y25890D02*
G01X51012Y25994D01*
G01X50855Y26045D01*
G01X50751Y26045D01*
G01X50596Y25994D01*
G01X50491Y25836D01*
G01X50441Y25577D01*
G01X50441Y25318D01*
G01X50491Y25110D01*
G01X50596Y25006D01*
G01X50751Y24955D01*
G01X50804Y24955D01*
G01X50959Y25006D01*
G01X51063Y25110D01*
G01X51116Y25265D01*
G01X51116Y25318D01*
G01X51063Y25473D01*
G01X50959Y25577D01*
G01X50804Y25628D01*
G01X50751Y25628D01*
G01X50596Y25577D01*
G01X50491Y25473D01*
G01X50441Y25318D01*
G01X41783Y31125D02*
G01X41783Y30035D01*
G01X41783Y31125D02*
G01X42250Y31125D01*
G01X42405Y31074D01*
G01X42458Y31021D01*
G01X42509Y30916D01*
G01X42509Y30812D01*
G01X42458Y30708D01*
G01X42405Y30657D01*
G01X42250Y30607D01*
G01X41783Y30607D01*
G01X42146Y30607D02*
G01X42509Y30035D01*
G01X42852Y30916D02*
G01X42956Y30970D01*
G01X43113Y31125D01*
G01X43113Y30035D01*
G01X43561Y31125D02*
G01X44132Y31125D01*
G01X43820Y30708D01*
G01X43975Y30708D01*
G01X44079Y30657D01*
G01X44132Y30607D01*
G01X44183Y30449D01*
G01X44183Y30345D01*
G01X44132Y30190D01*
G01X44028Y30086D01*
G01X43870Y30035D01*
G01X43715Y30035D01*
G01X43561Y30086D01*
G01X43507Y30137D01*
G01X43456Y30241D01*
G01X50419Y31252D02*
G01X50419Y30162D01*
G01X50419Y31252D02*
G01X50886Y31252D01*
G01X51041Y31201D01*
G01X51094Y31148D01*
G01X51145Y31043D01*
G01X51145Y30939D01*
G01X51094Y30835D01*
G01X51041Y30784D01*
G01X50886Y30734D01*
G01X50419Y30734D01*
G01X50782Y30734D02*
G01X51145Y30162D01*
G01X51488Y31043D02*
G01X51592Y31097D01*
G01X51749Y31252D01*
G01X51749Y30162D01*
G01X52611Y31252D02*
G01X52092Y30525D01*
G01X52870Y30525D01*
G01X52611Y31252D02*
G01X52611Y30162D01*
G01X92346Y2291D02*
G01X92293Y2395D01*
G01X92189Y2499D01*
G01X92087Y2550D01*
G01X91879Y2550D01*
G01X91775Y2499D01*
G01X91671Y2395D01*
G01X91617Y2291D01*
G01X91567Y2133D01*
G01X91567Y1874D01*
G01X91617Y1719D01*
G01X91671Y1615D01*
G01X91775Y1511D01*
G01X91879Y1460D01*
G01X92087Y1460D01*
G01X92189Y1511D01*
G01X92293Y1615D01*
G01X92346Y1719D01*
G01X92948Y2550D02*
G01X92793Y2499D01*
G01X92740Y2395D01*
G01X92740Y2291D01*
G01X92793Y2186D01*
G01X92897Y2133D01*
G01X93103Y2082D01*
G01X93261Y2032D01*
G01X93365Y1927D01*
G01X93416Y1823D01*
G01X93416Y1666D01*
G01X93365Y1562D01*
G01X93311Y1511D01*
G01X93157Y1460D01*
G01X92948Y1460D01*
G01X92793Y1511D01*
G01X92740Y1562D01*
G01X92689Y1666D01*
G01X92689Y1823D01*
G01X92740Y1927D01*
G01X92844Y2032D01*
G01X93002Y2082D01*
G01X93207Y2133D01*
G01X93311Y2186D01*
G01X93365Y2291D01*
G01X93365Y2395D01*
G01X93311Y2499D01*
G01X93157Y2550D01*
G01X92948Y2550D01*
G01X84218Y2418D02*
G01X84165Y2522D01*
G01X84061Y2626D01*
G01X83959Y2677D01*
G01X83751Y2677D01*
G01X83647Y2626D01*
G01X83543Y2522D01*
G01X83489Y2418D01*
G01X83439Y2260D01*
G01X83439Y2001D01*
G01X83489Y1846D01*
G01X83543Y1742D01*
G01X83647Y1638D01*
G01X83751Y1587D01*
G01X83959Y1587D01*
G01X84061Y1638D01*
G01X84165Y1742D01*
G01X84218Y1846D01*
G01X85183Y2522D02*
G01X85133Y2626D01*
G01X84975Y2677D01*
G01X84874Y2677D01*
G01X84716Y2626D01*
G01X84612Y2468D01*
G01X84561Y2209D01*
G01X84561Y1950D01*
G01X84612Y1742D01*
G01X84716Y1638D01*
G01X84874Y1587D01*
G01X84924Y1587D01*
G01X85079Y1638D01*
G01X85183Y1742D01*
G01X85237Y1897D01*
G01X85237Y1950D01*
G01X85183Y2105D01*
G01X85079Y2209D01*
G01X84924Y2260D01*
G01X84874Y2260D01*
G01X84716Y2209D01*
G01X84612Y2105D01*
G01X84561Y1950D01*
G01X87503Y18044D02*
G01X87503Y16954D01*
G01X87503Y18044D02*
G01X87970Y18044D01*
G01X88125Y17993D01*
G01X88178Y17940D01*
G01X88229Y17835D01*
G01X88229Y17731D01*
G01X88178Y17627D01*
G01X88125Y17576D01*
G01X87970Y17526D01*
G01X87503Y17526D01*
G01X87866Y17526D02*
G01X88229Y16954D01*
G01X89248Y17680D02*
G01X89197Y17526D01*
G01X89093Y17421D01*
G01X88938Y17368D01*
G01X88884Y17368D01*
G01X88729Y17421D01*
G01X88625Y17526D01*
G01X88572Y17680D01*
G01X88572Y17731D01*
G01X88625Y17889D01*
G01X88729Y17993D01*
G01X88884Y18044D01*
G01X88938Y18044D01*
G01X89093Y17993D01*
G01X89197Y17889D01*
G01X89248Y17680D01*
G01X89248Y17421D01*
G01X89197Y17160D01*
G01X89093Y17005D01*
G01X88938Y16954D01*
G01X88834Y16954D01*
G01X88676Y17005D01*
G01X88625Y17109D01*
G01X91186Y18044D02*
G01X91186Y16954D01*
G01X91186Y18044D02*
G01X91653Y18044D01*
G01X91808Y17993D01*
G01X91861Y17940D01*
G01X91912Y17835D01*
G01X91912Y17731D01*
G01X91861Y17627D01*
G01X91808Y17576D01*
G01X91653Y17526D01*
G01X91186Y17526D01*
G01X91549Y17526D02*
G01X91912Y16954D01*
G01X92880Y17889D02*
G01X92826Y17993D01*
G01X92672Y18044D01*
G01X92567Y18044D01*
G01X92412Y17993D01*
G01X92308Y17835D01*
G01X92255Y17576D01*
G01X92255Y17317D01*
G01X92308Y17109D01*
G01X92412Y17005D01*
G01X92567Y16954D01*
G01X92621Y16954D01*
G01X92776Y17005D01*
G01X92880Y17109D01*
G01X92931Y17264D01*
G01X92931Y17317D01*
G01X92880Y17472D01*
G01X92776Y17576D01*
G01X92621Y17627D01*
G01X92567Y17627D01*
G01X92412Y17576D01*
G01X92308Y17472D01*
G01X92255Y17317D01*
G01X58564Y3942D02*
G01X58511Y4046D01*
G01X58407Y4150D01*
G01X58305Y4201D01*
G01X58097Y4201D01*
G01X57993Y4150D01*
G01X57889Y4046D01*
G01X57835Y3942D01*
G01X57785Y3784D01*
G01X57785Y3525D01*
G01X57835Y3370D01*
G01X57889Y3266D01*
G01X57993Y3162D01*
G01X58097Y3111D01*
G01X58305Y3111D01*
G01X58407Y3162D01*
G01X58511Y3266D01*
G01X58564Y3370D01*
G01X59583Y3837D02*
G01X59529Y3683D01*
G01X59425Y3578D01*
G01X59270Y3525D01*
G01X59220Y3525D01*
G01X59062Y3578D01*
G01X58958Y3683D01*
G01X58907Y3837D01*
G01X58907Y3888D01*
G01X58958Y4046D01*
G01X59062Y4150D01*
G01X59220Y4201D01*
G01X59270Y4201D01*
G01X59425Y4150D01*
G01X59529Y4046D01*
G01X59583Y3837D01*
G01X59583Y3578D01*
G01X59529Y3317D01*
G01X59425Y3162D01*
G01X59270Y3111D01*
G01X59166Y3111D01*
G01X59011Y3162D01*
G01X58958Y3266D01*
G01X42054Y24770D02*
G01X42001Y24874D01*
G01X41897Y24978D01*
G01X41795Y25029D01*
G01X41587Y25029D01*
G01X41483Y24978D01*
G01X41379Y24874D01*
G01X41325Y24770D01*
G01X41275Y24612D01*
G01X41275Y24353D01*
G01X41325Y24198D01*
G01X41379Y24094D01*
G01X41483Y23990D01*
G01X41587Y23939D01*
G01X41795Y23939D01*
G01X41897Y23990D01*
G01X42001Y24094D01*
G01X42054Y24198D01*
G01X42397Y24820D02*
G01X42501Y24874D01*
G01X42656Y25029D01*
G01X42656Y23939D01*
G01X27068Y30993D02*
G01X27015Y31097D01*
G01X26911Y31201D01*
G01X26809Y31252D01*
G01X26601Y31252D01*
G01X26497Y31201D01*
G01X26393Y31097D01*
G01X26339Y30993D01*
G01X26289Y30835D01*
G01X26289Y30576D01*
G01X26339Y30421D01*
G01X26393Y30317D01*
G01X26497Y30213D01*
G01X26601Y30162D01*
G01X26809Y30162D01*
G01X26911Y30213D01*
G01X27015Y30317D01*
G01X27068Y30421D01*
G01X27462Y30993D02*
G01X27462Y31043D01*
G01X27515Y31148D01*
G01X27566Y31201D01*
G01X27670Y31252D01*
G01X27879Y31252D01*
G01X27983Y31201D01*
G01X28033Y31148D01*
G01X28087Y31043D01*
G01X28087Y30939D01*
G01X28033Y30835D01*
G01X27929Y30680D01*
G01X27411Y30162D01*
G01X28138Y30162D01*
G01X80766Y17670D02*
G01X80662Y17617D01*
G01X80558Y17513D01*
G01X80507Y17411D01*
G01X80507Y17203D01*
G01X80558Y17099D01*
G01X80662Y16995D01*
G01X80766Y16941D01*
G01X80924Y16891D01*
G01X81183Y16891D01*
G01X81338Y16941D01*
G01X81442Y16995D01*
G01X81546Y17099D01*
G01X81597Y17203D01*
G01X81597Y17411D01*
G01X81546Y17513D01*
G01X81442Y17617D01*
G01X81338Y17670D01*
G01X80715Y18013D02*
G01X80662Y18117D01*
G01X80507Y18272D01*
G01X81597Y18272D01*
G01X80715Y18615D02*
G01X80662Y18719D01*
G01X80507Y18874D01*
G01X81597Y18874D01*
G01X44190Y7129D02*
G01X44085Y7076D01*
G01X43981Y6972D01*
G01X43930Y6870D01*
G01X43930Y6662D01*
G01X43981Y6558D01*
G01X44085Y6454D01*
G01X44190Y6400D01*
G01X44347Y6350D01*
G01X44606Y6350D01*
G01X44761Y6400D01*
G01X44865Y6454D01*
G01X44969Y6558D01*
G01X45020Y6662D01*
G01X45020Y6870D01*
G01X44969Y6972D01*
G01X44865Y7076D01*
G01X44761Y7129D01*
G01X44139Y7472D02*
G01X44085Y7576D01*
G01X43930Y7731D01*
G01X45020Y7731D01*
G01X43930Y8178D02*
G01X43930Y8750D01*
G01X44347Y8437D01*
G01X44347Y8595D01*
G01X44398Y8699D01*
G01X44449Y8750D01*
G01X44606Y8801D01*
G01X44710Y8801D01*
G01X44865Y8750D01*
G01X44969Y8646D01*
G01X45020Y8491D01*
G01X45020Y8333D01*
G01X44969Y8178D01*
G01X44919Y8128D01*
G01X44814Y8074D01*
G01X48260Y18298D02*
G01X48260Y17208D01*
G01X48260Y18298D02*
G01X48727Y18298D01*
G01X48882Y18247D01*
G01X48935Y18194D01*
G01X48986Y18089D01*
G01X48986Y17985D01*
G01X48935Y17881D01*
G01X48882Y17830D01*
G01X48727Y17780D01*
G01X48260Y17780D01*
G01X48623Y17780D02*
G01X48986Y17208D01*
G01X49329Y18089D02*
G01X49433Y18143D01*
G01X49590Y18298D01*
G01X49590Y17208D01*
G01X7874Y12710D02*
G01X7874Y11620D01*
G01X7874Y12710D02*
G01X8341Y12710D01*
G01X8496Y12659D01*
G01X8549Y12606D01*
G01X8600Y12501D01*
G01X8600Y12397D01*
G01X8549Y12293D01*
G01X8496Y12242D01*
G01X8341Y12192D01*
G01X7874Y12192D01*
G01X8237Y12192D02*
G01X8600Y11620D01*
G01X8996Y12451D02*
G01X8996Y12501D01*
G01X9047Y12606D01*
G01X9100Y12659D01*
G01X9204Y12710D01*
G01X9410Y12710D01*
G01X9514Y12659D01*
G01X9568Y12606D01*
G01X9618Y12501D01*
G01X9618Y12397D01*
G01X9568Y12293D01*
G01X9464Y12138D01*
G01X8943Y11620D01*
G01X9672Y11620D01*
G01X16002Y11821D02*
G01X16002Y10731D01*
G01X16002Y11821D02*
G01X16469Y11821D01*
G01X16624Y11770D01*
G01X16677Y11717D01*
G01X16728Y11612D01*
G01X16728Y11508D01*
G01X16677Y11404D01*
G01X16624Y11353D01*
G01X16469Y11303D01*
G01X16002Y11303D01*
G01X16365Y11303D02*
G01X16728Y10731D01*
G01X17175Y11821D02*
G01X17746Y11821D01*
G01X17437Y11404D01*
G01X17592Y11404D01*
G01X17696Y11353D01*
G01X17746Y11303D01*
G01X17800Y11145D01*
G01X17800Y11041D01*
G01X17746Y10886D01*
G01X17642Y10782D01*
G01X17487Y10731D01*
G01X17332Y10731D01*
G01X17175Y10782D01*
G01X17124Y10833D01*
G01X17071Y10937D01*
G01X15240Y36332D02*
G01X15240Y35242D01*
G01X15240Y36332D02*
G01X15707Y36332D01*
G01X15862Y36281D01*
G01X15915Y36228D01*
G01X15966Y36123D01*
G01X15966Y36019D01*
G01X15915Y35915D01*
G01X15862Y35864D01*
G01X15707Y35814D01*
G01X15240Y35814D01*
G01X15603Y35814D02*
G01X15966Y35242D01*
G01X16830Y36332D02*
G01X16309Y35605D01*
G01X17089Y35605D01*
G01X16830Y36332D02*
G01X16830Y35242D01*
G01X11430Y36332D02*
G01X11430Y35242D01*
G01X11430Y36332D02*
G01X11897Y36332D01*
G01X12052Y36281D01*
G01X12105Y36228D01*
G01X12156Y36123D01*
G01X12156Y36019D01*
G01X12105Y35915D01*
G01X12052Y35864D01*
G01X11897Y35814D01*
G01X11430Y35814D01*
G01X11793Y35814D02*
G01X12156Y35242D01*
G01X13124Y36332D02*
G01X12603Y36332D01*
G01X12552Y35864D01*
G01X12603Y35915D01*
G01X12761Y35968D01*
G01X12916Y35968D01*
G01X13070Y35915D01*
G01X13175Y35814D01*
G01X13228Y35656D01*
G01X13228Y35552D01*
G01X13175Y35397D01*
G01X13070Y35293D01*
G01X12916Y35242D01*
G01X12761Y35242D01*
G01X12603Y35293D01*
G01X12552Y35344D01*
G01X12499Y35448D01*
G01X48387Y22362D02*
G01X48387Y21272D01*
G01X48387Y22362D02*
G01X48854Y22362D01*
G01X49009Y22311D01*
G01X49062Y22258D01*
G01X49113Y22153D01*
G01X49113Y22049D01*
G01X49062Y21945D01*
G01X49009Y21894D01*
G01X48854Y21844D01*
G01X48387Y21844D01*
G01X48750Y21844D02*
G01X49113Y21272D01*
G01X49456Y22153D02*
G01X49560Y22207D01*
G01X49717Y22362D01*
G01X49717Y21272D01*
G01X50060Y22153D02*
G01X50165Y22207D01*
G01X50319Y22362D01*
G01X50319Y21272D01*
G01X19177Y36332D02*
G01X19177Y35242D01*
G01X19177Y36332D02*
G01X19644Y36332D01*
G01X19799Y36281D01*
G01X19852Y36228D01*
G01X19903Y36123D01*
G01X19903Y36019D01*
G01X19852Y35915D01*
G01X19799Y35864D01*
G01X19644Y35814D01*
G01X19177Y35814D01*
G01X19540Y35814D02*
G01X19903Y35242D01*
G01X20246Y36123D02*
G01X20350Y36177D01*
G01X20508Y36332D01*
G01X20508Y35242D01*
G01X20901Y36073D02*
G01X20901Y36123D01*
G01X20955Y36228D01*
G01X21005Y36281D01*
G01X21110Y36332D01*
G01X21318Y36332D01*
G01X21422Y36281D01*
G01X21473Y36228D01*
G01X21526Y36123D01*
G01X21526Y36019D01*
G01X21473Y35915D01*
G01X21369Y35760D01*
G01X20850Y35242D01*
G01X21577Y35242D01*
G01X54754Y15372D02*
G01X54701Y15476D01*
G01X54597Y15580D01*
G01X54495Y15631D01*
G01X54287Y15631D01*
G01X54183Y15580D01*
G01X54079Y15476D01*
G01X54025Y15372D01*
G01X53975Y15214D01*
G01X53975Y14955D01*
G01X54025Y14800D01*
G01X54079Y14696D01*
G01X54183Y14592D01*
G01X54287Y14541D01*
G01X54495Y14541D01*
G01X54597Y14592D01*
G01X54701Y14696D01*
G01X54754Y14800D01*
G01X55097Y15422D02*
G01X55201Y15476D01*
G01X55356Y15631D01*
G01X55356Y14541D01*
G01X56324Y15631D02*
G01X55803Y15631D01*
G01X55753Y15163D01*
G01X55803Y15214D01*
G01X55958Y15267D01*
G01X56116Y15267D01*
G01X56271Y15214D01*
G01X56375Y15113D01*
G01X56426Y14955D01*
G01X56426Y14851D01*
G01X56375Y14696D01*
G01X56271Y14592D01*
G01X56116Y14541D01*
G01X55958Y14541D01*
G01X55803Y14592D01*
G01X55753Y14643D01*
G01X55699Y14747D01*
G01X58801Y18298D02*
G01X58801Y17518D01*
G01X58851Y17363D01*
G01X58955Y17259D01*
G01X59113Y17208D01*
G01X59217Y17208D01*
G01X59372Y17259D01*
G01X59476Y17363D01*
G01X59527Y17518D01*
G01X59527Y18298D01*
G01X60599Y18298D02*
G01X60078Y17208D01*
G01X59870Y18298D02*
G01X60599Y18298D01*
G01X51816Y18298D02*
G01X51816Y17518D01*
G01X51866Y17363D01*
G01X51970Y17259D01*
G01X52128Y17208D01*
G01X52232Y17208D01*
G01X52387Y17259D01*
G01X52491Y17363D01*
G01X52542Y17518D01*
G01X52542Y18298D01*
G01X53510Y18143D02*
G01X53456Y18247D01*
G01X53301Y18298D01*
G01X53197Y18298D01*
G01X53042Y18247D01*
G01X52938Y18089D01*
G01X52885Y17830D01*
G01X52885Y17571D01*
G01X52938Y17363D01*
G01X53042Y17259D01*
G01X53197Y17208D01*
G01X53251Y17208D01*
G01X53406Y17259D01*
G01X53510Y17363D01*
G01X53560Y17518D01*
G01X53560Y17571D01*
G01X53510Y17726D01*
G01X53406Y17830D01*
G01X53251Y17881D01*
G01X53197Y17881D01*
G01X53042Y17830D01*
G01X52938Y17726D01*
G01X52885Y17571D01*
G01X13462Y21854D02*
G01X13462Y21074D01*
G01X13512Y20919D01*
G01X13616Y20815D01*
G01X13774Y20764D01*
G01X13878Y20764D01*
G01X14033Y20815D01*
G01X14137Y20919D01*
G01X14188Y21074D01*
G01X14188Y21854D01*
G01X14584Y21595D02*
G01X14584Y21645D01*
G01X14635Y21750D01*
G01X14688Y21803D01*
G01X14792Y21854D01*
G01X14998Y21854D01*
G01X15102Y21803D01*
G01X15156Y21750D01*
G01X15206Y21645D01*
G01X15206Y21541D01*
G01X15156Y21437D01*
G01X15052Y21282D01*
G01X14531Y20764D01*
G01X15260Y20764D01*
G54D34*
G01X13591Y25364D02*
G01X13591Y23426D01*
G01X13591Y25364D02*
G01X14790Y25364D01*
G01X13591Y24442D02*
G01X14328Y24442D01*
G01X13591Y23426D02*
G01X14790Y23426D01*
G01X16692Y25087D02*
G01X16510Y25273D01*
G01X16233Y25364D01*
G01X15862Y25364D01*
G01X15585Y25273D01*
G01X15400Y25087D01*
G01X15400Y24904D01*
G01X15494Y24719D01*
G01X15585Y24627D01*
G01X15770Y24533D01*
G01X16324Y24348D01*
G01X16510Y24257D01*
G01X16601Y24165D01*
G01X16692Y23980D01*
G01X16692Y23703D01*
G01X16510Y23517D01*
G01X16233Y23426D01*
G01X15862Y23426D01*
G01X15585Y23517D01*
G01X15400Y23703D01*
G01X17302Y25364D02*
G01X17302Y23426D01*
G01X17302Y25364D02*
G01X18135Y25364D01*
G01X18412Y25273D01*
G01X18503Y25181D01*
G01X18595Y24996D01*
G01X18595Y24719D01*
G01X18503Y24533D01*
G01X18412Y24442D01*
G01X18135Y24348D01*
G01X17302Y24348D01*
G01X19204Y24996D02*
G01X19390Y25087D01*
G01X19667Y25364D01*
G01X19667Y23426D01*
G01X20370Y24904D02*
G01X20370Y24996D01*
G01X20462Y25181D01*
G01X20553Y25273D01*
G01X20739Y25364D01*
G01X21109Y25364D01*
G01X21292Y25273D01*
G01X21386Y25181D01*
G01X21478Y24996D01*
G01X21478Y24810D01*
G01X21386Y24627D01*
G01X21201Y24348D01*
G01X20276Y23426D01*
G01X21569Y23426D01*
G01X22179Y25364D02*
G01X22179Y23426D01*
G01X22179Y25364D02*
G01X23380Y25364D01*
G01X22179Y24442D02*
G01X22918Y24442D01*
G54D10*
G75*
G01X33907Y33961D02*
G02X34127Y34181I220J0D01*
G01*
G75*
G01X37467Y33961D02*
G03X37247Y34181I-220J0D01*
G01*
G75*
G01X33907Y27761D02*
G03X34127Y27541I220J0D01*
G01*
G75*
G01X37467Y27761D02*
G02X37247Y27541I-220J0D01*
G01*
G75*
G01X64772Y4901D02*
G02X64552Y4681I-220J0D01*
G01*
G75*
G01X61212Y4901D02*
G03X61432Y4681I220J0D01*
G01*
G75*
G01X64772Y11101D02*
G03X64552Y11321I-220J0D01*
G01*
G75*
G01X61212Y11101D02*
G02X61432Y11321I220J0D01*
G01*
G75*
G01X86997Y20776D02*
G02X86777Y20556I-220J0D01*
G01*
G75*
G01X83437Y20776D02*
G03X83657Y20556I220J0D01*
G01*
G75*
G01X86997Y26976D02*
G03X86777Y27196I-220J0D01*
G01*
G75*
G01X83437Y26976D02*
G02X83657Y27196I220J0D01*
G01*
G75*
G01X71249Y4901D02*
G02X71029Y4681I-220J0D01*
G01*
G75*
G01X67689Y4901D02*
G03X67909Y4681I220J0D01*
G01*
G75*
G01X71249Y11101D02*
G03X71029Y11321I-220J0D01*
G01*
G75*
G01X67689Y11101D02*
G02X67909Y11321I220J0D01*
G01*
G75*
G01X77853Y4901D02*
G02X77633Y4681I-220J0D01*
G01*
G75*
G01X74293Y4901D02*
G03X74513Y4681I220J0D01*
G01*
G75*
G01X77853Y11101D02*
G03X77633Y11321I-220J0D01*
G01*
G75*
G01X74293Y11101D02*
G02X74513Y11321I220J0D01*
G01*
G75*
G01X32514Y27761D02*
G02X32294Y27541I-220J0D01*
G01*
G75*
G01X28954Y27761D02*
G03X29174Y27541I220J0D01*
G01*
G75*
G01X32514Y33961D02*
G03X32294Y34181I-220J0D01*
G01*
G75*
G01X28954Y33961D02*
G02X29174Y34181I220J0D01*
G01*
G54D37*
G75*
G01X67470Y30673D02*
G03X67470Y30671I-200J-1D01*
G01*
G54D10*
G75*
G01X71770Y29972D02*
G03X73772Y29972I1001J0D01*
G01*
G54D15*
G75*
G01X42829Y21676D02*
G03X42827Y21676I-1J150D01*
G01*
G54D37*
G75*
G01X41328Y19525D02*
G03X41326Y19525I-1J200D01*
G01*
G54D10*
G75*
G01X82958Y11279D02*
G03X82658Y10979I0J-300D01*
G01*
G75*
G01X82658Y10979D02*
G03X83058Y10679I312J0D01*
G01*
G75*
G01X83058Y10679D02*
G02X83058Y10079I87J-300D01*
G01*
G75*
G01X83058Y10079D02*
G03X83058Y9379I-102J-350D01*
G01*
G75*
G01X83058Y9379D02*
G02X83058Y8679I102J-350D01*
G01*
G75*
G01X83058Y8679D02*
G03X83058Y8179I-73J-250D01*
G01*
G75*
G01X91983Y3049D02*
G02X91783Y3249I0J200D01*
G01*
G75*
G01X93183Y3049D02*
G03X93383Y3249I0J200D01*
G01*
G75*
G01X91983Y6349D02*
G03X91783Y6149I0J-200D01*
G01*
G75*
G01X93183Y6349D02*
G02X93383Y6149I0J-200D01*
G01*
G75*
G01X85055Y6349D02*
G02X85255Y6149I0J-200D01*
G01*
G75*
G01X83855Y6349D02*
G03X83655Y6149I0J-200D01*
G01*
G75*
G01X85055Y3049D02*
G03X85255Y3249I0J200D01*
G01*
G75*
G01X83855Y3049D02*
G02X83655Y3249I0J200D01*
G01*
G75*
G01X59274Y7746D02*
G02X59474Y7546I0J-200D01*
G01*
G75*
G01X58074Y7746D02*
G03X57874Y7546I0J-200D01*
G01*
G75*
G01X59274Y4446D02*
G03X59474Y4646I0J200D01*
G01*
G75*
G01X58074Y4446D02*
G02X57874Y4646I0J200D01*
G01*
G75*
G01X39532Y24004D02*
G02X39332Y24204I0J200D01*
G01*
G75*
G01X40732Y24004D02*
G03X40932Y24204I0J200D01*
G01*
G75*
G01X39532Y27304D02*
G03X39332Y27104I0J-200D01*
G01*
G75*
G01X40732Y27304D02*
G02X40932Y27104I0J-200D01*
G01*
G75*
G01X27906Y34924D02*
G02X28106Y34724I0J-200D01*
G01*
G75*
G01X26706Y34924D02*
G03X26506Y34724I0J-200D01*
G01*
G75*
G01X27906Y31624D02*
G03X28106Y31824I0J200D01*
G01*
G75*
G01X26706Y31624D02*
G02X26506Y31824I0J200D01*
G01*
G75*
G01X80553Y20956D02*
G02X80353Y21156I0J200D01*
G01*
G75*
G01X81753Y20956D02*
G03X81953Y21156I0J200D01*
G01*
G75*
G01X80553Y24256D02*
G03X80353Y24056I0J-200D01*
G01*
G75*
G01X81753Y24256D02*
G02X81953Y24056I0J-200D01*
G01*
G75*
G01X46136Y5843D02*
G02X45936Y6043I0J200D01*
G01*
G75*
G01X47336Y5843D02*
G03X47536Y6043I0J200D01*
G01*
G75*
G01X46136Y9143D02*
G03X45936Y8943I0J-200D01*
G01*
G75*
G01X47336Y9143D02*
G02X47536Y8943I0J-200D01*
G01*
G75*
G01X63338Y19430D02*
G02X63538Y19230I0J-200D01*
G01*
G75*
G01X62138Y19430D02*
G03X61938Y19230I0J-200D01*
G01*
G75*
G01X63338Y16130D02*
G03X63538Y16330I0J200D01*
G01*
G75*
G01X62138Y16130D02*
G02X61938Y16330I0J200D01*
G01*
G75*
G01X55972Y19557D02*
G02X56172Y19357I0J-200D01*
G01*
G75*
G01X54772Y19557D02*
G03X54572Y19357I0J-200D01*
G01*
G75*
G01X55972Y16257D02*
G03X56172Y16457I0J200D01*
G01*
G75*
G01X54772Y16257D02*
G02X54572Y16457I0J200D01*
G01*
G75*
G01X57831Y18555D02*
G02X57831Y17259I0J-648D01*
G01*
G54D38*
G75*
G01X57613Y15492D02*
G03X57616Y15492I2J-125D01*
G01*
G54D10*
G75*
G01X50846Y18555D02*
G02X50846Y17259I0J-648D01*
G01*
G54D38*
G75*
G01X50628Y15492D02*
G03X50631Y15492I2J-125D01*
G01*
G54D10*
G75*
G01X11371Y4321D02*
G03X11371Y4321I-1750J0D01*
G01*
G75*
G01X22801Y4321D02*
G03X22801Y4321I-1750J0D01*
G01*
G75*
G01X34231Y4321D02*
G03X34231Y4321I-1750J0D01*
G01*
M00*
M02*
