G04 Layer: TopSolderMaskLayer*
G04 EasyEDA v6.3.43, 2020-05-26T13:53:52+10:00*
G04 dfe334f236054c1482959114e70a1c8d,8629367194b24dd88a5c18b2f13758b0,10*
G04 Gerber Generator version 0.2*
G04 Scale: 100 percent, Rotated: No, Reflected: No *
G04 Dimensions in millimeters *
G04 leading zeros omitted , absolute positions ,3 integer and 3 decimal *
%FSLAX33Y33*%
%MOMM*%
G90*
G71D02*

%ADD40C,0.601599*%
%ADD41C,0.653212*%
%ADD42C,1.003198*%
%ADD43C,0.903199*%
%ADD44C,2.003196*%
%ADD49R,2.403196X3.703193*%
%ADD50R,2.403196X1.303198*%
%ADD57R,0.609600X1.600200*%

%LPD*%
G54D40*
G01X39497Y19812D02*
G01X39532Y19847D01*
G01X39532Y21894D01*
G54D41*
G01X44097Y20320D02*
G01X42897Y20320D01*
G01X44097Y19519D02*
G01X42897Y19519D01*
G01X44097Y18719D02*
G01X42897Y18719D01*
G01X44097Y17919D02*
G01X42897Y17919D01*
G01X44097Y17122D02*
G01X42897Y17122D01*
G01X44097Y16322D02*
G01X42897Y16322D01*
G01X44097Y15521D02*
G01X42897Y15521D01*
G01X44097Y14721D02*
G01X42897Y14721D01*
G01X41922Y13757D02*
G01X41922Y12557D01*
G01X41122Y13757D02*
G01X41122Y12557D01*
G01X40322Y13757D02*
G01X40322Y12557D01*
G01X39522Y13757D02*
G01X39522Y12557D01*
G01X38724Y13757D02*
G01X38724Y12557D01*
G01X37924Y13757D02*
G01X37924Y12557D01*
G01X37124Y13757D02*
G01X37124Y12557D01*
G01X36324Y13757D02*
G01X36324Y12557D01*
G01X35334Y14732D02*
G01X34134Y14732D01*
G01X35334Y15532D02*
G01X34134Y15532D01*
G01X35334Y16332D02*
G01X34134Y16332D01*
G01X35334Y17132D02*
G01X34134Y17132D01*
G01X35334Y17929D02*
G01X34134Y17929D01*
G01X35334Y18729D02*
G01X34134Y18729D01*
G01X35334Y19530D02*
G01X34134Y19530D01*
G01X35334Y20330D02*
G01X34134Y20330D01*
G01X36334Y22494D02*
G01X36334Y21294D01*
G01X37134Y22494D02*
G01X37134Y21294D01*
G01X37934Y22494D02*
G01X37934Y21294D01*
G01X38735Y22494D02*
G01X38735Y21294D01*
G01X39532Y22494D02*
G01X39532Y21294D01*
G01X40332Y22494D02*
G01X40332Y21294D01*
G01X41132Y22494D02*
G01X41132Y21294D01*
G01X41932Y22494D02*
G01X41932Y21294D01*
G54D42*
G01X60198Y4953D03*
G01X66040Y24003D03*
G01X39497Y15240D03*
G01X45974Y12065D03*
G54D43*
G01X16129Y8509D03*
G54D42*
G01X29337Y14478D03*
G01X37084Y15240D03*
G54D43*
G01X16129Y16383D03*
G01X19050Y27813D03*
G54D42*
G01X39497Y19812D03*
G54D43*
G01X14605Y8128D03*
G01X10922Y8128D03*
G01X46736Y5334D03*
G54D44*
G01X74295Y33655D03*
G54D43*
G01X44958Y14732D03*
G01X45593Y16637D03*
G54D44*
G01X71120Y33655D03*
G54D43*
G01X38227Y19812D03*
G54D42*
G01X66167Y4953D03*
G01X72771Y4953D03*
G01X79121Y4953D03*
G01X87757Y7874D03*
G01X94361Y4445D03*
G01X88392Y12319D03*
G01X86106Y19939D03*
G01X84963Y19939D03*
G01X83820Y19939D03*
G01X81915Y19939D03*
G01X80645Y19939D03*
G01X78867Y19939D03*
G01X76581Y19939D03*
G01X77724Y19939D03*
G01X79502Y24003D03*
G01X79502Y24892D03*
G01X79502Y25781D03*
G01X79502Y26670D03*
G54D43*
G01X44831Y24130D03*
G01X49022Y24130D03*
G54D42*
G01X36830Y3556D03*
G01X5080Y4191D03*
G01X30734Y26797D03*
G01X40005Y28194D03*
G01X38354Y28575D03*
G54D43*
G01X57277Y4953D03*
G01X57277Y5715D03*
G54D42*
G01X43307Y29464D03*
G01X51054Y29464D03*
G54D43*
G01X25527Y31496D03*
G54D44*
G01X80264Y33655D03*
G54D42*
G01X59690Y13208D03*
G54D43*
G01X50038Y12700D03*
G54D42*
G01X50165Y20320D03*
G01X55372Y20320D03*
G01X62738Y20320D03*
G01X62738Y15367D03*
G01X56896Y15494D03*
G54D43*
G01X52832Y14097D03*
G54D42*
G01X62611Y22860D03*
G54D43*
G01X47117Y22860D03*
G01X41021Y17145D03*
G01X41021Y16129D03*
G01X17018Y27686D03*
G01X37465Y18923D03*
G01X37465Y17780D03*
G01X11938Y32131D03*
G54D42*
G01X66294Y10795D03*
G01X59563Y8636D03*
G01X57785Y10668D03*
G01X50419Y13843D03*
G01X43815Y10033D03*
G01X8509Y9906D03*
G54D43*
G01X54610Y12573D03*
G01X90678Y12319D03*
G54D42*
G01X36830Y5080D03*
G01X11049Y27559D03*
G01X13081Y27559D03*
G01X24511Y37592D03*
G01X16383Y37592D03*
G01X16383Y39497D03*
G01X24511Y39497D03*
G01X70739Y39624D03*
G01X70739Y37465D03*
G01X91567Y39624D03*
G01X91567Y37592D03*
G01X67310Y39624D03*
G01X67310Y37465D03*
G01X64770Y37465D03*
G01X64770Y39624D03*
G01X48514Y11557D03*
G36*
G01X37607Y37480D02*
G01X37607Y39481D01*
G01X39608Y39481D01*
G01X39608Y37480D01*
G01X37607Y37480D01*
G37*
G54D44*
G01X41148Y38481D03*
G01X43688Y38481D03*
G01X46228Y38481D03*
G01X48768Y38481D03*
G01X51308Y38481D03*
G01X53848Y38481D03*
G01X56388Y38481D03*
G01X41275Y2032D03*
G01X43815Y2032D03*
G01X46355Y2032D03*
G01X48895Y2032D03*
G01X51435Y2032D03*
G36*
G01X52974Y1031D02*
G01X52974Y3032D01*
G01X54975Y3032D01*
G01X54975Y1031D01*
G01X52974Y1031D01*
G37*
G36*
G01X89644Y3296D02*
G01X89644Y4500D01*
G01X90949Y4500D01*
G01X90949Y3296D01*
G01X89644Y3296D01*
G37*
G36*
G01X89644Y4897D02*
G01X89644Y6101D01*
G01X90949Y6101D01*
G01X90949Y4897D01*
G01X89644Y4897D01*
G37*
G36*
G01X87231Y4897D02*
G01X87231Y6101D01*
G01X88536Y6101D01*
G01X88536Y4897D01*
G01X87231Y4897D01*
G37*
G36*
G01X87231Y3296D02*
G01X87231Y4500D01*
G01X88536Y4500D01*
G01X88536Y3296D01*
G01X87231Y3296D01*
G37*
G01X61214Y2159D03*
G01X63754Y2159D03*
G01X66294Y2159D03*
G01X68834Y2159D03*
G01X71374Y2159D03*
G36*
G01X72913Y1158D02*
G01X72913Y3159D01*
G01X74914Y3159D01*
G01X74914Y1158D01*
G01X72913Y1158D01*
G37*
G36*
G01X80756Y4897D02*
G01X80756Y6101D01*
G01X82059Y6101D01*
G01X82059Y4897D01*
G01X80756Y4897D01*
G37*
G36*
G01X80756Y3296D02*
G01X80756Y4500D01*
G01X82059Y4500D01*
G01X82059Y3296D01*
G01X80756Y3296D01*
G37*
G36*
G01X34084Y32313D02*
G01X34084Y34018D01*
G01X37289Y34018D01*
G01X37289Y32313D01*
G01X34084Y32313D01*
G37*
G36*
G01X34084Y27703D02*
G01X34084Y29408D01*
G01X37289Y29408D01*
G01X37289Y27703D01*
G01X34084Y27703D01*
G37*
G36*
G01X61389Y4843D02*
G01X61389Y6548D01*
G01X64594Y6548D01*
G01X64594Y4843D01*
G01X61389Y4843D01*
G37*
G36*
G01X61389Y9453D02*
G01X61389Y11158D01*
G01X64594Y11158D01*
G01X64594Y9453D01*
G01X61389Y9453D01*
G37*
G36*
G01X83614Y20718D02*
G01X83614Y22423D01*
G01X86819Y22423D01*
G01X86819Y20718D01*
G01X83614Y20718D01*
G37*
G36*
G01X83614Y25328D02*
G01X83614Y27033D01*
G01X86819Y27033D01*
G01X86819Y25328D01*
G01X83614Y25328D01*
G37*
G36*
G01X67866Y4843D02*
G01X67866Y6548D01*
G01X71071Y6548D01*
G01X71071Y4843D01*
G01X67866Y4843D01*
G37*
G36*
G01X67866Y9453D02*
G01X67866Y11158D01*
G01X71071Y11158D01*
G01X71071Y9453D01*
G01X67866Y9453D01*
G37*
G36*
G01X74470Y4843D02*
G01X74470Y6548D01*
G01X77675Y6548D01*
G01X77675Y4843D01*
G01X74470Y4843D01*
G37*
G36*
G01X74470Y9453D02*
G01X74470Y11158D01*
G01X77675Y11158D01*
G01X77675Y9453D01*
G01X74470Y9453D01*
G37*
G36*
G01X29131Y27703D02*
G01X29131Y29408D01*
G01X32336Y29408D01*
G01X32336Y27703D01*
G01X29131Y27703D01*
G37*
G36*
G01X29131Y32313D02*
G01X29131Y34018D01*
G01X32336Y34018D01*
G01X32336Y32313D01*
G01X29131Y32313D01*
G37*
G36*
G01X76619Y28082D02*
G01X76619Y30083D01*
G01X78823Y30083D01*
G01X78823Y28082D01*
G01X76619Y28082D01*
G37*
G36*
G01X76619Y25542D02*
G01X76619Y27543D01*
G01X78823Y27543D01*
G01X78823Y25542D01*
G01X76619Y25542D01*
G37*
G36*
G01X76619Y23002D02*
G01X76619Y25003D01*
G01X78823Y25003D01*
G01X78823Y23002D01*
G01X76619Y23002D01*
G37*
G36*
G01X76619Y20462D02*
G01X76619Y22463D01*
G01X78823Y22463D01*
G01X78823Y20462D01*
G01X76619Y20462D01*
G37*
G36*
G01X66718Y20462D02*
G01X66718Y22463D01*
G01X68922Y22463D01*
G01X68922Y20462D01*
G01X66718Y20462D01*
G37*
G36*
G01X66718Y23002D02*
G01X66718Y25003D01*
G01X68922Y25003D01*
G01X68922Y23002D01*
G01X66718Y23002D01*
G37*
G36*
G01X66718Y25542D02*
G01X66718Y27543D01*
G01X68922Y27543D01*
G01X68922Y25542D01*
G01X66718Y25542D01*
G37*
G36*
G01X66718Y28082D02*
G01X66718Y30083D01*
G01X68922Y30083D01*
G01X68922Y28082D01*
G01X66718Y28082D01*
G37*
G54D49*
G01X49225Y8255D03*
G54D50*
G01X55422Y10554D03*
G36*
G01X54221Y7602D02*
G01X54221Y8907D01*
G01X56624Y8907D01*
G01X56624Y7602D01*
G01X54221Y7602D01*
G37*
G01X55422Y5955D03*
G36*
G01X12722Y5765D02*
G01X12722Y7368D01*
G01X15125Y7368D01*
G01X15125Y5765D01*
G01X12722Y5765D01*
G37*
G36*
G01X3924Y5765D02*
G01X3924Y7368D01*
G01X6327Y7368D01*
G01X6327Y5765D01*
G01X3924Y5765D01*
G37*
G36*
G01X3924Y1267D02*
G01X3924Y2870D01*
G01X6327Y2870D01*
G01X6327Y1267D01*
G01X3924Y1267D01*
G37*
G36*
G01X12722Y1267D02*
G01X12722Y2870D01*
G01X15125Y2870D01*
G01X15125Y1267D01*
G01X12722Y1267D01*
G37*
G36*
G01X24152Y5765D02*
G01X24152Y7368D01*
G01X26555Y7368D01*
G01X26555Y5765D01*
G01X24152Y5765D01*
G37*
G36*
G01X15354Y5765D02*
G01X15354Y7368D01*
G01X17757Y7368D01*
G01X17757Y5765D01*
G01X15354Y5765D01*
G37*
G36*
G01X15354Y1267D02*
G01X15354Y2870D01*
G01X17757Y2870D01*
G01X17757Y1267D01*
G01X15354Y1267D01*
G37*
G36*
G01X24152Y1267D02*
G01X24152Y2870D01*
G01X26555Y2870D01*
G01X26555Y1267D01*
G01X24152Y1267D01*
G37*
G36*
G01X35582Y5765D02*
G01X35582Y7368D01*
G01X37985Y7368D01*
G01X37985Y5765D01*
G01X35582Y5765D01*
G37*
G36*
G01X26784Y5765D02*
G01X26784Y7368D01*
G01X29187Y7368D01*
G01X29187Y5765D01*
G01X26784Y5765D01*
G37*
G36*
G01X26784Y1267D02*
G01X26784Y2870D01*
G01X29187Y2870D01*
G01X29187Y1267D01*
G01X26784Y1267D01*
G37*
G36*
G01X35582Y1267D02*
G01X35582Y2870D01*
G01X37985Y2870D01*
G01X37985Y1267D01*
G01X35582Y1267D01*
G37*
G36*
G01X37424Y24048D02*
G01X37424Y26751D01*
G01X38125Y26751D01*
G01X38125Y24048D01*
G01X37424Y24048D01*
G37*
G36*
G01X36225Y24498D02*
G01X36225Y26301D01*
G01X36926Y26301D01*
G01X36926Y24498D01*
G01X36225Y24498D01*
G37*
G36*
G01X35026Y24048D02*
G01X35026Y26751D01*
G01X35727Y26751D01*
G01X35727Y24048D01*
G01X35026Y24048D01*
G37*
G36*
G01X80606Y7576D02*
G01X80606Y11981D01*
G01X82311Y11981D01*
G01X82311Y7576D01*
G01X80606Y7576D01*
G37*
G36*
G01X83807Y7576D02*
G01X83807Y11981D01*
G01X85511Y11981D01*
G01X85511Y7576D01*
G01X83807Y7576D01*
G37*
G36*
G01X87132Y10447D02*
G01X87132Y11051D01*
G01X88554Y11051D01*
G01X88554Y10447D01*
G01X87132Y10447D01*
G37*
G36*
G01X87132Y9806D02*
G01X87132Y10411D01*
G01X88554Y10411D01*
G01X88554Y9806D01*
G01X87132Y9806D01*
G37*
G36*
G01X87132Y9146D02*
G01X87132Y9751D01*
G01X88554Y9751D01*
G01X88554Y9146D01*
G01X87132Y9146D01*
G37*
G36*
G01X87132Y8506D02*
G01X87132Y9110D01*
G01X88554Y9110D01*
G01X88554Y8506D01*
G01X87132Y8506D01*
G37*
G36*
G01X89753Y8506D02*
G01X89753Y9110D01*
G01X91175Y9110D01*
G01X91175Y8506D01*
G01X89753Y8506D01*
G37*
G36*
G01X89753Y9146D02*
G01X89753Y9751D01*
G01X91175Y9751D01*
G01X91175Y9146D01*
G01X89753Y9146D01*
G37*
G36*
G01X89753Y9806D02*
G01X89753Y10411D01*
G01X91175Y10411D01*
G01X91175Y9806D01*
G01X89753Y9806D01*
G37*
G36*
G01X89753Y10447D02*
G01X89753Y11051D01*
G01X91175Y11051D01*
G01X91175Y10447D01*
G01X89753Y10447D01*
G37*
G36*
G01X44848Y26682D02*
G01X44848Y28435D01*
G01X46050Y28435D01*
G01X46050Y26682D01*
G01X44848Y26682D01*
G37*
G36*
G01X42847Y26682D02*
G01X42847Y28435D01*
G01X44051Y28435D01*
G01X44051Y26682D01*
G01X42847Y26682D01*
G37*
G36*
G01X48435Y26682D02*
G01X48435Y28435D01*
G01X49639Y28435D01*
G01X49639Y26682D01*
G01X48435Y26682D01*
G37*
G36*
G01X50436Y26682D02*
G01X50436Y28435D01*
G01X51638Y28435D01*
G01X51638Y26682D01*
G01X50436Y26682D01*
G37*
G36*
G01X44813Y29331D02*
G01X44813Y30535D01*
G01X46118Y30535D01*
G01X46118Y29331D01*
G01X44813Y29331D01*
G37*
G36*
G01X44813Y30932D02*
G01X44813Y32136D01*
G01X46118Y32136D01*
G01X46118Y30932D01*
G01X44813Y30932D01*
G37*
G36*
G01X48369Y29331D02*
G01X48369Y30535D01*
G01X49674Y30535D01*
G01X49674Y29331D01*
G01X48369Y29331D01*
G37*
G36*
G01X48369Y30932D02*
G01X48369Y32136D01*
G01X49674Y32136D01*
G01X49674Y30932D01*
G01X48369Y30932D01*
G37*
G36*
G01X91930Y3197D02*
G01X91930Y4401D01*
G01X93235Y4401D01*
G01X93235Y3197D01*
G01X91930Y3197D01*
G37*
G36*
G01X91930Y4998D02*
G01X91930Y6200D01*
G01X93235Y6200D01*
G01X93235Y4998D01*
G01X91930Y4998D01*
G37*
G36*
G01X83802Y4996D02*
G01X83802Y6200D01*
G01X85107Y6200D01*
G01X85107Y4996D01*
G01X83802Y4996D01*
G37*
G36*
G01X83802Y3197D02*
G01X83802Y4399D01*
G01X85107Y4399D01*
G01X85107Y3197D01*
G01X83802Y3197D01*
G37*
G36*
G01X87739Y14930D02*
G01X87739Y16134D01*
G01X89044Y16134D01*
G01X89044Y14930D01*
G01X87739Y14930D01*
G37*
G36*
G01X87739Y13329D02*
G01X87739Y14533D01*
G01X89044Y14533D01*
G01X89044Y13329D01*
G01X87739Y13329D01*
G37*
G36*
G01X91295Y13202D02*
G01X91295Y14406D01*
G01X92600Y14406D01*
G01X92600Y13202D01*
G01X91295Y13202D01*
G37*
G36*
G01X91295Y14803D02*
G01X91295Y16007D01*
G01X92600Y16007D01*
G01X92600Y14803D01*
G01X91295Y14803D01*
G37*
G36*
G01X58021Y6393D02*
G01X58021Y7597D01*
G01X59326Y7597D01*
G01X59326Y6393D01*
G01X58021Y6393D01*
G37*
G36*
G01X58021Y4594D02*
G01X58021Y5796D01*
G01X59326Y5796D01*
G01X59326Y4594D01*
G01X58021Y4594D01*
G37*
G36*
G01X39479Y24152D02*
G01X39479Y25356D01*
G01X40784Y25356D01*
G01X40784Y24152D01*
G01X39479Y24152D01*
G37*
G36*
G01X39479Y25953D02*
G01X39479Y27155D01*
G01X40784Y27155D01*
G01X40784Y25953D01*
G01X39479Y25953D01*
G37*
G36*
G01X26654Y33571D02*
G01X26654Y34775D01*
G01X27957Y34775D01*
G01X27957Y33571D01*
G01X26654Y33571D01*
G37*
G36*
G01X26654Y31772D02*
G01X26654Y32974D01*
G01X27957Y32974D01*
G01X27957Y31772D01*
G01X26654Y31772D01*
G37*
G36*
G01X80500Y21104D02*
G01X80500Y22308D01*
G01X81805Y22308D01*
G01X81805Y21104D01*
G01X80500Y21104D01*
G37*
G36*
G01X80500Y22905D02*
G01X80500Y24107D01*
G01X81805Y24107D01*
G01X81805Y22905D01*
G01X80500Y22905D01*
G37*
G36*
G01X46083Y5991D02*
G01X46083Y7195D01*
G01X47388Y7195D01*
G01X47388Y5991D01*
G01X46083Y5991D01*
G37*
G36*
G01X46083Y7792D02*
G01X46083Y8994D01*
G01X47388Y8994D01*
G01X47388Y7792D01*
G01X46083Y7792D01*
G37*
G36*
G01X46466Y14091D02*
G01X46466Y15295D01*
G01X47769Y15295D01*
G01X47769Y14091D01*
G01X46466Y14091D01*
G37*
G36*
G01X46466Y15692D02*
G01X46466Y16896D01*
G01X47769Y16896D01*
G01X47769Y15692D01*
G01X46466Y15692D01*
G37*
G36*
G01X10271Y8884D02*
G01X10271Y10088D01*
G01X11574Y10088D01*
G01X11574Y8884D01*
G01X10271Y8884D01*
G37*
G36*
G01X10271Y10485D02*
G01X10271Y11689D01*
G01X11574Y11689D01*
G01X11574Y10485D01*
G01X10271Y10485D01*
G37*
G36*
G01X13954Y8884D02*
G01X13954Y10088D01*
G01X15257Y10088D01*
G01X15257Y8884D01*
G01X13954Y8884D01*
G37*
G36*
G01X13954Y10485D02*
G01X13954Y11689D01*
G01X15257Y11689D01*
G01X15257Y10485D01*
G01X13954Y10485D01*
G37*
G36*
G01X16367Y31871D02*
G01X16367Y33075D01*
G01X17670Y33075D01*
G01X17670Y31871D01*
G01X16367Y31871D01*
G37*
G36*
G01X16367Y33472D02*
G01X16367Y34676D01*
G01X17670Y34676D01*
G01X17670Y33472D01*
G01X16367Y33472D01*
G37*
G36*
G01X13190Y31871D02*
G01X13190Y33075D01*
G01X14495Y33075D01*
G01X14495Y31871D01*
G01X13190Y31871D01*
G37*
G36*
G01X13190Y33472D02*
G01X13190Y34676D01*
G01X14495Y34676D01*
G01X14495Y33472D01*
G01X13190Y33472D01*
G37*
G36*
G01X46466Y18790D02*
G01X46466Y19994D01*
G01X47769Y19994D01*
G01X47769Y18790D01*
G01X46466Y18790D01*
G37*
G36*
G01X46466Y20391D02*
G01X46466Y21595D01*
G01X47769Y21595D01*
G01X47769Y20391D01*
G01X46466Y20391D01*
G37*
G36*
G01X19540Y31871D02*
G01X19540Y33075D01*
G01X20845Y33075D01*
G01X20845Y31871D01*
G01X19540Y31871D01*
G37*
G36*
G01X19540Y33472D02*
G01X19540Y34676D01*
G01X20845Y34676D01*
G01X20845Y33472D01*
G01X19540Y33472D01*
G37*
G36*
G01X62085Y18077D02*
G01X62085Y19281D01*
G01X63390Y19281D01*
G01X63390Y18077D01*
G01X62085Y18077D01*
G37*
G36*
G01X62085Y16278D02*
G01X62085Y17480D01*
G01X63390Y17480D01*
G01X63390Y16278D01*
G01X62085Y16278D01*
G37*
G36*
G01X54719Y18204D02*
G01X54719Y19408D01*
G01X56024Y19408D01*
G01X56024Y18204D01*
G01X54719Y18204D01*
G37*
G36*
G01X54719Y16405D02*
G01X54719Y17607D01*
G01X56024Y17607D01*
G01X56024Y16405D01*
G01X54719Y16405D01*
G37*
G36*
G01X58028Y14605D02*
G01X58028Y16205D01*
G01X58638Y16205D01*
G01X58638Y14605D01*
G01X58028Y14605D01*
G37*
G54D57*
G01X58983Y15405D03*
G01X59634Y15405D03*
G36*
G01X59979Y14605D02*
G01X59979Y16205D01*
G01X60589Y16205D01*
G01X60589Y14605D01*
G01X59979Y14605D01*
G37*
G36*
G01X59979Y19608D02*
G01X59979Y21209D01*
G01X60589Y21209D01*
G01X60589Y19608D01*
G01X59979Y19608D01*
G37*
G01X59634Y20408D03*
G01X58983Y20408D03*
G36*
G01X58028Y19608D02*
G01X58028Y21209D01*
G01X58638Y21209D01*
G01X58638Y19608D01*
G01X58028Y19608D01*
G37*
G36*
G01X51043Y14605D02*
G01X51043Y16205D01*
G01X51653Y16205D01*
G01X51653Y14605D01*
G01X51043Y14605D01*
G37*
G01X51998Y15405D03*
G01X52649Y15405D03*
G36*
G01X52994Y14605D02*
G01X52994Y16205D01*
G01X53604Y16205D01*
G01X53604Y14605D01*
G01X52994Y14605D01*
G37*
G36*
G01X52994Y19608D02*
G01X52994Y21209D01*
G01X53604Y21209D01*
G01X53604Y19608D01*
G01X52994Y19608D01*
G37*
G01X52649Y20408D03*
G01X51998Y20408D03*
G36*
G01X51043Y19608D02*
G01X51043Y21209D01*
G01X51653Y21209D01*
G01X51653Y19608D01*
G01X51043Y19608D01*
G37*
G36*
G01X10444Y28615D02*
G01X10444Y30820D01*
G01X11645Y30820D01*
G01X11645Y28615D01*
G01X10444Y28615D01*
G37*
G36*
G01X12443Y28615D02*
G01X12443Y30817D01*
G01X13647Y30817D01*
G01X13647Y28615D01*
G01X12443Y28615D01*
G37*
G36*
G01X14444Y28615D02*
G01X14444Y30820D01*
G01X15646Y30820D01*
G01X15646Y28615D01*
G01X14444Y28615D01*
G37*
G36*
G01X16443Y28615D02*
G01X16443Y30817D01*
G01X17647Y30817D01*
G01X17647Y28615D01*
G01X16443Y28615D01*
G37*
G36*
G01X18442Y28615D02*
G01X18442Y30820D01*
G01X19646Y30820D01*
G01X19646Y28615D01*
G01X18442Y28615D01*
G37*
G36*
G01X20444Y28615D02*
G01X20444Y30820D01*
G01X21645Y30820D01*
G01X21645Y28615D01*
G01X20444Y28615D01*
G37*
G36*
G01X22443Y28615D02*
G01X22443Y30817D01*
G01X23647Y30817D01*
G01X23647Y28615D01*
G01X22443Y28615D01*
G37*
G36*
G01X24444Y28613D02*
G01X24444Y30817D01*
G01X25646Y30817D01*
G01X25646Y28613D01*
G01X24444Y28613D01*
G37*
G36*
G01X25445Y26111D02*
G01X25445Y27315D01*
G01X27647Y27315D01*
G01X27647Y26111D01*
G01X25445Y26111D01*
G37*
G36*
G01X25443Y24112D02*
G01X25443Y25316D01*
G01X27647Y25316D01*
G01X27647Y24112D01*
G01X25443Y24112D01*
G37*
G36*
G01X25443Y22113D02*
G01X25443Y23317D01*
G01X27647Y23317D01*
G01X27647Y22113D01*
G01X25443Y22113D01*
G37*
G36*
G01X25443Y20111D02*
G01X25443Y21315D01*
G01X27647Y21315D01*
G01X27647Y20111D01*
G01X25443Y20111D01*
G37*
G36*
G01X25443Y18112D02*
G01X25443Y19316D01*
G01X27645Y19316D01*
G01X27645Y18112D01*
G01X25443Y18112D01*
G37*
G36*
G01X25445Y16116D02*
G01X25445Y17317D01*
G01X27647Y17317D01*
G01X27647Y16116D01*
G01X25445Y16116D01*
G37*
G36*
G01X24444Y12613D02*
G01X24444Y14818D01*
G01X25646Y14818D01*
G01X25646Y12613D01*
G01X24444Y12613D01*
G37*
G36*
G01X22443Y12613D02*
G01X22443Y14815D01*
G01X23647Y14815D01*
G01X23647Y12613D01*
G01X22443Y12613D01*
G37*
G36*
G01X20444Y12613D02*
G01X20444Y14815D01*
G01X21645Y14815D01*
G01X21645Y12613D01*
G01X20444Y12613D01*
G37*
G36*
G01X18442Y12613D02*
G01X18442Y14815D01*
G01X19646Y14815D01*
G01X19646Y12613D01*
G01X18442Y12613D01*
G37*
G36*
G01X16443Y12613D02*
G01X16443Y14815D01*
G01X17647Y14815D01*
G01X17647Y12613D01*
G01X16443Y12613D01*
G37*
G36*
G01X14444Y12613D02*
G01X14444Y14815D01*
G01X15646Y14815D01*
G01X15646Y12613D01*
G01X14444Y12613D01*
G37*
G36*
G01X12443Y12613D02*
G01X12443Y14815D01*
G01X13647Y14815D01*
G01X13647Y12613D01*
G01X12443Y12613D01*
G37*
G36*
G01X10444Y12613D02*
G01X10444Y14815D01*
G01X11645Y14815D01*
G01X11645Y12613D01*
G01X10444Y12613D01*
G37*

%LPD*%
G36*
G01X68326Y40259D02*
G01X66294Y40259D01*
G01X66294Y36703D01*
G01X68326Y36703D01*
G01X68326Y40259D01*
G37*

%LPD*%
G36*
G01X65786Y40259D02*
G01X63754Y40259D01*
G01X63754Y36703D01*
G01X65786Y36703D01*
G01X65786Y40259D01*
G37*

%LPD*%
G36*
G01X25527Y40259D02*
G01X15494Y40259D01*
G01X15494Y36703D01*
G01X25527Y36703D01*
G01X25527Y40259D01*
G37*

%LPD*%
G36*
G01X92583Y40259D02*
G01X69977Y40259D01*
G01X69977Y36703D01*
G01X92583Y36703D01*
G01X92583Y40259D01*
G37*

%LPD*%
G36*
G01X92583Y40259D02*
G01X69977Y40259D01*
G01X69977Y36703D01*
G01X92583Y36703D01*
G01X92583Y40259D01*
G37*

%LPD*%
G36*
G01X25527Y40259D02*
G01X15494Y40259D01*
G01X15494Y36703D01*
G01X25527Y36703D01*
G01X25527Y40259D01*
G37*
M00*
M02*
