;Layer: Drill PTH
;EasyEDA v6.3.43, 2020-05-26T13:53:52+10:00
;dfe334f236054c1482959114e70a1c8d,8629367194b24dd88a5c18b2f13758b0,10
;Gerber Generator version 0.2
M48
METRIC,LZ,000.000
;Holesize 1 = 0.305 METRIC
T01C0.305
;Holesize 2 = 1.200 METRIC
T02C1.200
%
G05
G90
T01
X+060197Y+004952
X+066039Y+024002
X+039496Y+015239
X+045973Y+012064
X+016128Y+008508
X+029336Y+014477
X+037083Y+015239
X+016128Y+016382
X+019049Y+027812
X+039496Y+019811
X+014604Y+008127
X+010921Y+008127
X+046735Y+005333
X+044957Y+014731
X+045592Y+016636
X+038226Y+019811
X+066166Y+004952
X+072770Y+004952
X+079120Y+004952
X+087756Y+007873
X+094360Y+004444
X+088391Y+012318
X+086105Y+019938
X+084962Y+019938
X+083819Y+019938
X+081914Y+019938
X+080644Y+019938
X+078866Y+019938
X+076580Y+019938
X+077723Y+019938
X+079501Y+024002
X+079501Y+024891
X+079501Y+025780
X+079501Y+026669
X+044830Y+024129
X+049021Y+024129
X+036829Y+003555
X+005079Y+004190
X+030733Y+026796
X+040004Y+028193
X+038353Y+028574
X+057276Y+004952
X+057276Y+005714
X+043306Y+029463
X+051053Y+029463
X+025526Y+031495
X+059690Y+013208
X+050038Y+012700
X+050165Y+020320
X+055372Y+020320
X+062738Y+020320
X+062738Y+015367
X+056896Y+015494
X+052832Y+014097
X+062611Y+022860
X+047117Y+022860
X+041021Y+017145
X+041021Y+016129
X+017018Y+027686
X+037465Y+018923
X+037465Y+017780
X+011938Y+032131
X+066294Y+010795
X+059563Y+008636
X+057785Y+010668
X+050419Y+013843
X+043815Y+010033
X+008509Y+009906
X+054610Y+012573
X+090678Y+012319
X+036829Y+005079
X+011048Y+027558
X+013080Y+027558
X+024510Y+037591
X+016382Y+037591
X+016382Y+039496
X+024510Y+039496
X+070738Y+039623
X+070738Y+037464
X+091566Y+039623
X+091566Y+037591
X+067309Y+039623
X+067309Y+037464
X+064769Y+037464
X+064769Y+039623
X+048514Y+011557
X+065913Y+009271
T02
X+074294Y+033654
X+071119Y+033654
X+080263Y+033654
X+038608Y+038481
X+041148Y+038481
X+043688Y+038481
X+046228Y+038481
X+048768Y+038481
X+051308Y+038481
X+053848Y+038481
X+056388Y+038481
X+041275Y+002032
X+043815Y+002032
X+046355Y+002032
X+048895Y+002032
X+051435Y+002032
X+053975Y+002032
X+061214Y+002159
X+063754Y+002159
X+066294Y+002159
X+068834Y+002159
X+071374Y+002159
X+073914Y+002159
M30
