G04 Layer: BottomSolderMaskLayer*
G04 EasyEDA v6.3.43, 2020-05-26T13:53:52+10:00*
G04 dfe334f236054c1482959114e70a1c8d,8629367194b24dd88a5c18b2f13758b0,10*
G04 Gerber Generator version 0.2*
G04 Scale: 100 percent, Rotated: No, Reflected: No *
G04 Dimensions in millimeters *
G04 leading zeros omitted , absolute positions ,3 integer and 3 decimal *
%FSLAX33Y33*%
%MOMM*%
G90*
G71D02*

%ADD42C,1.003198*%
%ADD43C,0.903199*%
%ADD44C,2.003196*%

%LPD*%
G54D42*
G01X60198Y4953D03*
G01X66040Y24003D03*
G01X39497Y15240D03*
G01X45974Y12065D03*
G54D43*
G01X16129Y8509D03*
G54D42*
G01X29337Y14478D03*
G01X37084Y15240D03*
G54D43*
G01X16129Y16383D03*
G01X19050Y27813D03*
G54D42*
G01X39497Y19812D03*
G54D43*
G01X14605Y8128D03*
G01X10922Y8128D03*
G01X46736Y5334D03*
G54D44*
G01X74295Y33655D03*
G54D43*
G01X44958Y14732D03*
G01X45593Y16637D03*
G54D44*
G01X71120Y33655D03*
G54D43*
G01X38227Y19812D03*
G54D42*
G01X66167Y4953D03*
G01X72771Y4953D03*
G01X79121Y4953D03*
G01X87757Y7874D03*
G01X94361Y4445D03*
G01X88392Y12319D03*
G01X86106Y19939D03*
G01X84963Y19939D03*
G01X83820Y19939D03*
G01X81915Y19939D03*
G01X80645Y19939D03*
G01X78867Y19939D03*
G01X76581Y19939D03*
G01X77724Y19939D03*
G01X79502Y24003D03*
G01X79502Y24892D03*
G01X79502Y25781D03*
G01X79502Y26670D03*
G54D43*
G01X44831Y24130D03*
G01X49022Y24130D03*
G54D42*
G01X36830Y3556D03*
G01X5080Y4191D03*
G01X30734Y26797D03*
G01X40005Y28194D03*
G01X38354Y28575D03*
G54D43*
G01X57277Y4953D03*
G01X57277Y5715D03*
G54D42*
G01X43307Y29464D03*
G01X51054Y29464D03*
G54D43*
G01X25527Y31496D03*
G54D44*
G01X80264Y33655D03*
G54D42*
G01X59690Y13208D03*
G54D43*
G01X50038Y12700D03*
G54D42*
G01X50165Y20320D03*
G01X55372Y20320D03*
G01X62738Y20320D03*
G01X62738Y15367D03*
G01X56896Y15494D03*
G54D43*
G01X52832Y14097D03*
G54D42*
G01X62611Y22860D03*
G54D43*
G01X47117Y22860D03*
G01X41021Y17145D03*
G01X41021Y16129D03*
G01X17018Y27686D03*
G01X37465Y18923D03*
G01X37465Y17780D03*
G01X11938Y32131D03*
G54D42*
G01X66294Y10795D03*
G01X59563Y8636D03*
G01X57785Y10668D03*
G01X50419Y13843D03*
G01X43815Y10033D03*
G01X8509Y9906D03*
G54D43*
G01X54610Y12573D03*
G01X90678Y12319D03*
G54D42*
G01X36830Y5080D03*
G01X11049Y27559D03*
G01X13081Y27559D03*
G01X24511Y37592D03*
G01X16383Y37592D03*
G01X16383Y39497D03*
G01X24511Y39497D03*
G01X70739Y39624D03*
G01X70739Y37465D03*
G01X91567Y39624D03*
G01X91567Y37592D03*
G01X67310Y39624D03*
G01X67310Y37465D03*
G01X64770Y37465D03*
G01X64770Y39624D03*
G01X48514Y11557D03*
G36*
G01X37607Y37480D02*
G01X37607Y39481D01*
G01X39608Y39481D01*
G01X39608Y37480D01*
G01X37607Y37480D01*
G37*
G54D44*
G01X41148Y38481D03*
G01X43688Y38481D03*
G01X46228Y38481D03*
G01X48768Y38481D03*
G01X51308Y38481D03*
G01X53848Y38481D03*
G01X56388Y38481D03*
G01X41275Y2032D03*
G01X43815Y2032D03*
G01X46355Y2032D03*
G01X48895Y2032D03*
G01X51435Y2032D03*
G36*
G01X52974Y1031D02*
G01X52974Y3032D01*
G01X54975Y3032D01*
G01X54975Y1031D01*
G01X52974Y1031D01*
G37*
G01X61214Y2159D03*
G01X63754Y2159D03*
G01X66294Y2159D03*
G01X68834Y2159D03*
G01X71374Y2159D03*
G36*
G01X72913Y1158D02*
G01X72913Y3159D01*
G01X74914Y3159D01*
G01X74914Y1158D01*
G01X72913Y1158D01*
G37*

%LPD*%
G36*
G01X65786Y40259D02*
G01X63754Y40259D01*
G01X63754Y36703D01*
G01X65786Y36703D01*
G01X65786Y40259D01*
G37*

%LPD*%
G36*
G01X68326Y40259D02*
G01X66294Y40259D01*
G01X66294Y36703D01*
G01X68326Y36703D01*
G01X68326Y40259D01*
G37*

%LPD*%
G36*
G01X65786Y40259D02*
G01X63754Y40259D01*
G01X63754Y36703D01*
G01X65786Y36703D01*
G01X65786Y40259D01*
G37*

%LPD*%
G36*
G01X25527Y40259D02*
G01X15494Y40259D01*
G01X15494Y36703D01*
G01X25527Y36703D01*
G01X25527Y40259D01*
G37*

%LPD*%
G36*
G01X92583Y40259D02*
G01X69977Y40259D01*
G01X69977Y36703D01*
G01X92583Y36703D01*
G01X92583Y40259D01*
G37*

%LPD*%
G36*
G01X25527Y40259D02*
G01X15494Y40259D01*
G01X15494Y36703D01*
G01X25527Y36703D01*
G01X25527Y40259D01*
G37*
M00*
M02*
